  0
SECTION
  2
HEADER
  9
$ACADVER
  1
AC1015
  9
$ACADMAINTVER
 70
     6
  9
$DWGCODEPAGE
  3
ANSI_1252
  9
$INSBASE
 10
0.0
 20
0.0
 30
0.0
  9
$EXTMIN
 10
0.0002220232
 20
0.0060155783
 30
0.0
  9
$EXTMAX
 10
15.9521586058
 20
12.7647180299
 30
0.0
  9
$LIMMIN
 10
0.0
 20
0.0
  9
$LIMMAX
 10
12.0
 20
9.0
  9
$ORTHOMODE
 70
     0
  9
$REGENMODE
 70
     1
  9
$FILLMODE
 70
     1
  9
$QTEXTMODE
 70
     0
  9
$MIRRTEXT
 70
     1
  9
$LTSCALE
 40
1.0
  9
$ATTMODE
 70
     1
  9
$TEXTSIZE
 40
0.125
  9
$TRACEWID
 40
0.05
  9
$TEXTSTYLE
  7
Standard
  9
$CLAYER
  8
0
  9
$CELTYPE
  6
ByLayer
  9
$CECOLOR
 62
   256
  9
$CELTSCALE
 40
1.0
  9
$DISPSILH
 70
     0
  9
$DIMSCALE
 40
1.0
  9
$DIMASZ
 40
0.0625
  9
$DIMEXO
 40
0.05
  9
$DIMDLI
 40
0.38
  9
$DIMRND
 40
0.0
  9
$DIMDLE
 40
0.0
  9
$DIMEXE
 40
0.125
  9
$DIMTP
 40
0.0
  9
$DIMTM
 40
0.0
  9
$DIMTXT
 40
0.125
  9
$DIMCEN
 40
0.09
  9
$DIMTSZ
 40
0.0
  9
$DIMTOL
 70
     0
  9
$DIMLIM
 70
     0
  9
$DIMTIH
 70
     1
  9
$DIMTOH
 70
     1
  9
$DIMSE1
 70
     0
  9
$DIMSE2
 70
     0
  9
$DIMTAD
 70
     0
  9
$DIMZIN
 70
     0
  9
$DIMBLK
  1

  9
$DIMASO
 70
     1
  9
$DIMSHO
 70
     1
  9
$DIMPOST
  1

  9
$DIMAPOST
  1

  9
$DIMALT
 70
     0
  9
$DIMALTD
 70
     2
  9
$DIMALTF
 40
25.4
  9
$DIMLFAC
 40
1.0
  9
$DIMTOFL
 70
     0
  9
$DIMTVP
 40
0.0
  9
$DIMTIX
 70
     0
  9
$DIMSOXD
 70
     0
  9
$DIMSAH
 70
     0
  9
$DIMBLK1
  1

  9
$DIMBLK2
  1

  9
$DIMSTYLE
  2
Standard
  9
$DIMCLRD
 70
     0
  9
$DIMCLRE
 70
     0
  9
$DIMCLRT
 70
     0
  9
$DIMTFAC
 40
1.0
  9
$DIMGAP
 40
0.06
  9
$DIMJUST
 70
     0
  9
$DIMSD1
 70
     0
  9
$DIMSD2
 70
     0
  9
$DIMTOLJ
 70
     1
  9
$DIMTZIN
 70
     0
  9
$DIMALTZ
 70
     0
  9
$DIMALTTZ
 70
     0
  9
$DIMUPT
 70
     0
  9
$DIMDEC
 70
     4
  9
$DIMTDEC
 70
     2
  9
$DIMALTU
 70
     2
  9
$DIMALTTD
 70
     2
  9
$DIMTXSTY
  7
Standard
  9
$DIMAUNIT
 70
     0
  9
$DIMADEC
 70
     2
  9
$DIMALTRND
 40
0.0
  9
$DIMAZIN
 70
     0
  9
$DIMDSEP
 70
    46
  9
$DIMATFIT
 70
     3
  9
$DIMFRAC
 70
     0
  9
$DIMLDRBLK
  1

  9
$DIMLUNIT
 70
     2
  9
$DIMLWD
 70
    -2
  9
$DIMLWE
 70
    -2
  9
$DIMTMOVE
 70
     0
  9
$LUNITS
 70
     2
  9
$LUPREC
 70
     4
  9
$SKETCHINC
 40
0.1
  9
$FILLETRAD
 40
0.5
  9
$AUNITS
 70
     0
  9
$AUPREC
 70
     2
  9
$MENU
  1
.
  9
$ELEVATION
 40
0.0
  9
$PELEVATION
 40
0.0
  9
$THICKNESS
 40
0.0
  9
$LIMCHECK
 70
     0
  9
$CHAMFERA
 40
0.0
  9
$CHAMFERB
 40
0.0
  9
$CHAMFERC
 40
0.0
  9
$CHAMFERD
 40
0.0
  9
$SKPOLY
 70
     0
  9
$TDCREATE
 40
2458607.456162639
  9
$TDUCREATE
 40
2458607.622829305
  9
$TDUPDATE
 40
2458607.456211042
  9
$TDUUPDATE
 40
2458607.622877708
  9
$TDINDWG
 40
0.0000000116
  9
$TDUSRTIMER
 40
0.0000000116
  9
$USRTIMER
 70
     1
  9
$ANGBASE
 50
0.0
  9
$ANGDIR
 70
     0
  9
$PDMODE
 70
     0
  9
$PDSIZE
 40
-1.0
  9
$PLINEWID
 40
0.0
  9
$SPLFRAME
 70
     0
  9
$SPLINETYPE
 70
     6
  9
$SPLINESEGS
 70
     8
  9
$HANDSEED
  5
11F
  9
$SURFTAB1
 70
     6
  9
$SURFTAB2
 70
     6
  9
$SURFTYPE
 70
     6
  9
$SURFU
 70
     6
  9
$SURFV
 70
     6
  9
$UCSBASE
  2

  9
$UCSNAME
  2

  9
$UCSORG
 10
0.0
 20
0.0
 30
0.0
  9
$UCSXDIR
 10
1.0
 20
0.0
 30
0.0
  9
$UCSYDIR
 10
0.0
 20
1.0
 30
0.0
  9
$UCSORTHOREF
  2

  9
$UCSORTHOVIEW
 70
     0
  9
$UCSORGTOP
 10
0.0
 20
0.0
 30
0.0
  9
$UCSORGBOTTOM
 10
0.0
 20
0.0
 30
0.0
  9
$UCSORGLEFT
 10
0.0
 20
0.0
 30
0.0
  9
$UCSORGRIGHT
 10
0.0
 20
0.0
 30
0.0
  9
$UCSORGFRONT
 10
0.0
 20
0.0
 30
0.0
  9
$UCSORGBACK
 10
0.0
 20
0.0
 30
0.0
  9
$PUCSBASE
  2

  9
$PUCSNAME
  2

  9
$PUCSORG
 10
0.0
 20
0.0
 30
0.0
  9
$PUCSXDIR
 10
1.0
 20
0.0
 30
0.0
  9
$PUCSYDIR
 10
0.0
 20
1.0
 30
0.0
  9
$PUCSORTHOREF
  2

  9
$PUCSORTHOVIEW
 70
     0
  9
$PUCSORGTOP
 10
0.0
 20
0.0
 30
0.0
  9
$PUCSORGBOTTOM
 10
0.0
 20
0.0
 30
0.0
  9
$PUCSORGLEFT
 10
0.0
 20
0.0
 30
0.0
  9
$PUCSORGRIGHT
 10
0.0
 20
0.0
 30
0.0
  9
$PUCSORGFRONT
 10
0.0
 20
0.0
 30
0.0
  9
$PUCSORGBACK
 10
0.0
 20
0.0
 30
0.0
  9
$USERI1
 70
     0
  9
$USERI2
 70
     0
  9
$USERI3
 70
     0
  9
$USERI4
 70
     0
  9
$USERI5
 70
     0
  9
$USERR1
 40
0.0
  9
$USERR2
 40
0.0
  9
$USERR3
 40
0.0
  9
$USERR4
 40
0.0
  9
$USERR5
 40
0.0
  9
$WORLDVIEW
 70
     1
  9
$SHADEDGE
 70
     3
  9
$SHADEDIF
 70
    70
  9
$TILEMODE
 70
     1
  9
$MAXACTVP
 70
    64
  9
$PINSBASE
 10
0.0
 20
0.0
 30
0.0
  9
$PLIMCHECK
 70
     0
  9
$PEXTMIN
 10
1.0000000000E+20
 20
1.0000000000E+20
 30
1.0000000000E+20
  9
$PEXTMAX
 10
-1.0000000000E+20
 20
-1.0000000000E+20
 30
-1.0000000000E+20
  9
$PLIMMIN
 10
0.0
 20
0.0
  9
$PLIMMAX
 10
12.0
 20
9.0
  9
$UNITMODE
 70
     0
  9
$VISRETAIN
 70
     1
  9
$PLINEGEN
 70
     0
  9
$PSLTSCALE
 70
     1
  9
$TREEDEPTH
 70
  3020
  9
$CMLSTYLE
  2
Standard
  9
$CMLJUST
 70
     0
  9
$CMLSCALE
 40
1.0
  9
$PROXYGRAPHICS
 70
     1
  9
$MEASUREMENT
 70
     0
  9
$CELWEIGHT
370
    -1
  9
$ENDCAPS
280
     0
  9
$JOINSTYLE
280
     0
  9
$LWDISPLAY
290
     1
  9
$INSUNITS
 70
     1
  9
$HYPERLINKBASE
  1

  9
$STYLESHEET
  1

  9
$XEDIT
290
     1
  9
$CEPSNTYPE
380
     0
  9
$PSTYLEMODE
290
     1
  9
$FINGERPRINTGUID
  2
{92A0C9DE-729F-4DF8-8D83-3937D0B5CFC5}
  9
$VERSIONGUID
  2
{FAEB1C32-E019-11D5-929B-00C0DF256EC4}
  9
$EXTNAMES
290
     1
  9
$PSVPSCALE
 40
0.0
  9
$OLESTARTUP
290
     0
  0
ENDSEC
  0
SECTION
  2
CLASSES
  0
CLASS
  1
ACDBDICTIONARYWDFLT
  2
AcDbDictionaryWithDefault
  3
ObjectDBX Classes
 90
        0
280
     0
281
     0
  0
CLASS
  1
VISUALSTYLE
  2
AcDbVisualStyle
  3
ObjectDBX Classes
 90
     4095
280
     0
281
     0
  0
CLASS
  1
MATERIAL
  2
AcDbMaterial
  3
ObjectDBX Classes
 90
     1153
280
     0
281
     0
  0
CLASS
  1
SCALE
  2
AcDbScale
  3
ObjectDBX Classes
 90
     1153
280
     0
281
     0
  0
CLASS
  1
TABLESTYLE
  2
AcDbTableStyle
  3
ObjectDBX Classes
 90
     4095
280
     0
281
     0
  0
CLASS
  1
MLEADERSTYLE
  2
AcDbMLeaderStyle
  3
ACDB_MLEADERSTYLE_CLASS
 90
     4095
280
     0
281
     0
  0
CLASS
  1
SUN
  2
AcDbSun
  3
SCENEOE
 90
     1153
280
     0
281
     0
  0
CLASS
  1
ACDBPLACEHOLDER
  2
AcDbPlaceHolder
  3
ObjectDBX Classes
 90
        0
280
     0
281
     0
  0
CLASS
  1
LAYOUT
  2
AcDbLayout
  3
ObjectDBX Classes
 90
        0
280
     0
281
     0
  0
ENDSEC
  0
SECTION
  2
TABLES
  0
TABLE
  2
VPORT
  5
8
330
0
100
AcDbSymbolTable
 70
     1
  0
VPORT
  5
29
330
8
100
AcDbSymbolTableRecord
100
AcDbViewportTableRecord
  2
*Active
 70
     0
 10
0.0
 20
0.0
 11
1.0
 21
1.0
 12
7.9761903145
 22
6.3853668041
 13
0.0
 23
0.0
 14
0.5
 24
0.5
 15
0.5
 25
0.5
 16
0.0
 26
0.0
 36
1.0
 17
0.0
 27
0.0
 37
0.0
 40
13.0138765007
 41
1.2502789091
 42
50.0
 43
0.0
 44
0.0
 50
0.0
 51
0.0
 71
     0
 72
   100
 73
     1
 74
     3
 75
     0
 76
     0
 77
     0
 78
     0
281
     0
 65
     1
110
0.0
120
0.0
130
0.0
111
1.0
121
0.0
131
0.0
112
0.0
122
1.0
132
0.0
 79
     0
146
0.0
  0
ENDTAB
  0
TABLE
  2
LTYPE
  5
5
330
0
100
AcDbSymbolTable
 70
     6
  0
LTYPE
  5
14
330
5
100
AcDbSymbolTableRecord
100
AcDbLinetypeTableRecord
  2
ByBlock
 70
     0
  3

 72
    65
 73
     0
 40
0.0
  0
LTYPE
  5
15
330
5
100
AcDbSymbolTableRecord
100
AcDbLinetypeTableRecord
  2
ByLayer
 70
     0
  3

 72
    65
 73
     0
 40
0.0
  0
LTYPE
  5
16
330
5
100
AcDbSymbolTableRecord
100
AcDbLinetypeTableRecord
  2
Continuous
 70
     0
  3
Solid line
 72
    65
 73
     0
 40
0.0
  0
LTYPE
  5
6E
330
5
100
AcDbSymbolTableRecord
100
AcDbLinetypeTableRecord
  2
HIDDEN
 70
     0
  3
Hidden __ __ __ __ __ __ __ __ __ __ __ __ __ __
 72
    65
 73
     2
 40
0.075
 49
0.05
 74
     0
 49
-0.025
 74
     0
  0
LTYPE
  5
6F
330
5
100
AcDbSymbolTableRecord
100
AcDbLinetypeTableRecord
  2
PHANTOM
 70
     0
  3
Phantom ______  __  __  ______  __  __  ______
 72
    65
 73
     6
 40
0.5
 49
0.25
 74
     0
 49
-0.05
 74
     0
 49
0.05
 74
     0
 49
-0.05
 74
     0
 49
0.05
 74
     0
 49
-0.05
 74
     0
  0
LTYPE
  5
70
330
5
100
AcDbSymbolTableRecord
100
AcDbLinetypeTableRecord
  2
CENTER
 70
     0
  3
Center ____ _ ____ _ ____ _ ____ _ ____ _ ____
 72
    65
 73
     4
 40
0.4
 49
0.25
 74
     0
 49
-0.05
 74
     0
 49
0.05
 74
     0
 49
-0.05
 74
     0
  0
LTYPE
  5
71
330
5
100
AcDbSymbolTableRecord
100
AcDbLinetypeTableRecord
  2
CENTERX2
 70
     0
  3
Center (2x) ________  __  ________  __  _____
 72
    65
 73
     4
 40
0.8
 49
0.5
 74
     0
 49
-0.1
 74
     0
 49
0.1
 74
     0
 49
-0.1
 74
     0
  0
LTYPE
  5
72
330
5
100
AcDbSymbolTableRecord
100
AcDbLinetypeTableRecord
  2
DOT2
 70
     0
  3
Dot (.5x) ........................................
 72
    65
 73
     2
 40
0.025
 49
0.0
 74
     0
 49
-0.025
 74
     0
  0
ENDTAB
  0
TABLE
  2
LAYER
  5
2
330
0
100
AcDbSymbolTable
 70
     1
  0
LAYER
  5
10
330
2
100
AcDbSymbolTableRecord
100
AcDbLayerTableRecord
  2
0
 70
     0
 62
     7
  6
Continuous
370
    -3
390
F
  0
ENDTAB
  0
TABLE
  2
STYLE
  5
3
330
0
100
AcDbSymbolTable
 70
     2
  0
STYLE
  5
11
330
3
100
AcDbSymbolTableRecord
100
AcDbTextStyleTableRecord
  2
Standard
 70
     0
 40
0.0
 41
1.0
 50
0.0
 71
     0
 42
0.125
  3
txt
  4

  0
STYLE
  5
11C
330
3
100
AcDbSymbolTableRecord
100
AcDbTextStyleTableRecord
  2
SLDTEXTSTYLE0
 70
     0
 40
0.0
 41
0.7
 50
0.0
 71
     0
 42
0.125
  3
TXT
  4

  0
ENDTAB
  0
TABLE
  2
VIEW
  5
6
330
0
100
AcDbSymbolTable
 70
     0
  0
ENDTAB
  0
TABLE
  2
UCS
  5
7
330
0
100
AcDbSymbolTable
 70
     0
  0
ENDTAB
  0
TABLE
  2
APPID
  5
9
330
0
100
AcDbSymbolTable
 70
     1
  0
APPID
  5
12
330
9
100
AcDbSymbolTableRecord
100
AcDbRegAppTableRecord
  2
ACAD
 70
     0
  0
ENDTAB
  0
TABLE
  2
DIMSTYLE
  5
A
330
0
100
AcDbSymbolTable
 70
     1
100
AcDbDimStyleTable
  0
DIMSTYLE
105
27
330
A
100
AcDbSymbolTableRecord
100
AcDbDimStyleTableRecord
  2
Standard
 70
     0
178
     0
340
11
  0
ENDTAB
  0
TABLE
  2
BLOCK_RECORD
  5
1
330
0
100
AcDbSymbolTable
 70
     1
  0
BLOCK_RECORD
  5
1F
330
1
100
AcDbSymbolTableRecord
100
AcDbBlockTableRecord
  2
*Model_Space
340
22
  0
BLOCK_RECORD
  5
1B
330
1
100
AcDbSymbolTableRecord
100
AcDbBlockTableRecord
  2
*Paper_Space
340
1E
  0
BLOCK_RECORD
  5
23
330
1
100
AcDbSymbolTableRecord
100
AcDbBlockTableRecord
  2
*Paper_Space0
340
26
  0
ENDTAB
  0
ENDSEC
  0
SECTION
  2
BLOCKS
  0
BLOCK
  5
20
330
1F
100
AcDbEntity
  8
0
100
AcDbBlockBegin
  2
*Model_Space
 70
     0
 10
0.0
 20
0.0
 30
0.0
  3
*Model_Space
  1

  0
ENDBLK
  5
21
330
1F
100
AcDbEntity
  8
0
100
AcDbBlockEnd
  0
BLOCK
  5
1C
330
1B
100
AcDbEntity
 67
     1
  8
0
100
AcDbBlockBegin
  2
*Paper_Space
 70
     0
 10
0.0
 20
0.0
 30
0.0
  3
*Paper_Space
  1

  0
ENDBLK
  5
1D
330
1B
100
AcDbEntity
 67
     1
  8
0
100
AcDbBlockEnd
  0
BLOCK
  5
24
330
23
100
AcDbEntity
  8
0
100
AcDbBlockBegin
  2
*Paper_Space0
 70
     0
 10
0.0
 20
0.0
 30
0.0
  3
*Paper_Space0
  1

  0
ENDBLK
  5
25
330
23
100
AcDbEntity
  8
0
100
AcDbBlockEnd
  0
ENDSEC
  0
SECTION
  2
ENTITIES
  0
SPLINE
  5
73
330
1F
100
AcDbEntity
  8
0
  6
Continuous
 62
     7
370
    25
100
AcDbSpline
210
0.0
220
0.0
230
1.0
 70
     8
 71
     3
 72
   158
 73
   154
 74
     0
 42
0.000000001
 43
0.00000001
 40
0.0
 40
0.0
 40
0.0
 40
0.0
 40
0.0312500000000002
 40
0.0312500000000002
 40
0.0625000000000003
 40
0.0625000000000003
 40
0.0781250000000004
 40
0.0781250000000004
 40
0.0937500000000005
 40
0.0937500000000005
 40
0.1250000000000007
 40
0.1250000000000007
 40
0.1406250000000008
 40
0.1406250000000008
 40
0.1562500000000009
 40
0.1562500000000009
 40
0.1718750000000009
 40
0.1718750000000009
 40
0.1875000000000011
 40
0.1875000000000011
 40
0.2031250000000011
 40
0.2031250000000011
 40
0.2187500000000012
 40
0.2187500000000012
 40
0.2343750000000013
 40
0.2343750000000013
 40
0.2421875000000013
 40
0.2421875000000013
 40
0.2500000000000014
 40
0.2500000000000014
 40
0.2578125000000014
 40
0.2578125000000014
 40
0.2656250000000015
 40
0.2656250000000015
 40
0.2812500000000016
 40
0.2812500000000016
 40
0.3125000000000017
 40
0.3125000000000017
 40
0.3281250000000018
 40
0.3281250000000018
 40
0.3359375000000019
 40
0.3359375000000019
 40
0.3437500000000019
 40
0.3437500000000019
 40
0.3515625000000019
 40
0.3515625000000019
 40
0.3593750000000022
 40
0.3593750000000022
 40
0.3750000000000028
 40
0.3750000000000028
 40
0.3906250000000034
 40
0.3906250000000034
 40
0.3984375000000037
 40
0.3984375000000037
 40
0.4062500000000039
 40
0.4062500000000039
 40
0.4218750000000045
 40
0.4218750000000045
 40
0.4296875000000048
 40
0.4296875000000048
 40
0.4375000000000051
 40
0.4375000000000051
 40
0.4453125000000054
 40
0.4453125000000054
 40
0.4531250000000057
 40
0.4531250000000057
 40
0.460937500000006
 40
0.460937500000006
 40
0.4687500000000063
 40
0.4687500000000063
 40
0.4843750000000069
 40
0.4843750000000069
 40
0.5000000000000075
 40
0.5000000000000075
 40
0.5156250000000082
 40
0.5156250000000082
 40
0.5312500000000089
 40
0.5312500000000089
 40
0.5468750000000094
 40
0.5468750000000094
 40
0.5546875000000098
 40
0.5546875000000098
 40
0.56250000000001
 40
0.56250000000001
 40
0.5781250000000107
 40
0.5781250000000107
 40
0.5859375000000108
 40
0.5859375000000108
 40
0.593750000000011
 40
0.593750000000011
 40
0.6093750000000111
 40
0.6093750000000111
 40
0.6171875000000111
 40
0.6171875000000111
 40
0.625000000000011
 40
0.625000000000011
 40
0.640625000000011
 40
0.640625000000011
 40
0.6484375000000109
 40
0.6484375000000109
 40
0.6562500000000109
 40
0.6562500000000109
 40
0.6640625000000108
 40
0.6640625000000108
 40
0.6679687500000107
 40
0.6679687500000107
 40
0.6718750000000107
 40
0.6718750000000107
 40
0.6875000000000102
 40
0.6875000000000102
 40
0.6953125000000101
 40
0.6953125000000101
 40
0.7031250000000099
 40
0.7031250000000099
 40
0.7109375000000098
 40
0.7109375000000098
 40
0.7187500000000095
 40
0.7187500000000095
 40
0.7265625000000093
 40
0.7265625000000093
 40
0.7343750000000092
 40
0.7343750000000092
 40
0.7500000000000088
 40
0.7500000000000088
 40
0.7578125000000084
 40
0.7578125000000084
 40
0.7656250000000081
 40
0.7656250000000081
 40
0.7812500000000077
 40
0.7812500000000077
 40
0.8125000000000068
 40
0.8125000000000068
 40
0.8281250000000062
 40
0.8281250000000062
 40
0.8437500000000058
 40
0.8437500000000058
 40
0.8750000000000047
 40
0.8750000000000047
 40
0.8906250000000041
 40
0.8906250000000041
 40
0.9062500000000034
 40
0.9062500000000034
 40
0.9218750000000029
 40
0.9218750000000029
 40
0.9375000000000023
 40
0.9375000000000023
 40
0.9531250000000018
 40
0.9531250000000018
 40
0.9687500000000011
 40
0.9687500000000011
 40
0.9843750000000006
 40
0.9843750000000006
 40
1.0
 40
1.0
 40
1.0
 40
1.0
 10
0.0052529401536981
 20
5.527004400814033
 30
0.0
 10
0.0025031296265238
 20
5.657142671783122
 30
0.0
 10
0.0005630943264762
 20
5.787119415444451
 30
0.0
 10
-0.0004757851819459
 20
6.046759394437692
 30
0.0
 10
0.0003159571185153
 20
6.176405373268834
 30
0.0
 10
0.0009753172232384
 20
6.370601889929107
 30
0.0
 10
0.0011134636235681
 20
6.435290121518904
 30
0.0
 10
0.0010447086514128
 20
6.564580128434578
 30
0.0
 10
0.0008505294656474
 20
6.62918720176946
 30
0.0
 10
0.0002260487709417
 20
6.822897571352758
 30
0.0
 10
-0.0003300115744739
 20
6.951882901633011
 30
0.0
 10
0.0004980405756462
 20
7.145179417962328
 30
0.0
 10
0.001069640333344
 20
7.209580285639872
 30
0.0
 10
0.0031474767856577
 20
7.338326540477343
 30
0.0
 10
0.0046641307583724
 20
7.40265909113653
 30
0.0
 10
0.0082387304866341
 20
7.531234578123478
 30
0.0
 10
0.0103048541369728
 20
7.595474086579012
 30
0.0
 10
0.0142946299995812
 20
7.72384054328798
 30
0.0
 10
0.0161909326931337
 20
7.787979227848263
 30
0.0
 10
0.0198380946247651
 20
7.916182583477683
 30
0.0
 10
0.0215551160001472
 20
7.980257794763148
 30
0.0
 10
0.025732617000394
 20
8.108395924966887
 30
0.0
 10
0.028206649728179
 20
8.172452690896522
 30
0.0
 10
0.0346761223824894
 20
8.30054971054591
 30
0.0
 10
0.0386717392376846
 20
8.36456551329596
 30
0.0
 10
0.0462643082904482
 20
8.460343443743497
 30
0.0
 10
0.0490897441591737
 20
8.492238285385476
 30
0.0
 10
0.0551743105575129
 20
8.555892455344722
 30
0.0
 10
0.058415483465888
 20
8.587663172143449
 30
0.0
 10
0.0650060912594495
 20
8.651118641610765
 30
0.0
 10
0.0683319819768502
 20
8.682797719141952
 30
0.0
 10
0.0749448580178174
 20
8.74615912641831
 30
0.0
 10
0.0782534729879068
 20
8.777831867307674
 30
0.0
 10
0.088290868589954
 20
8.872817330806761
 30
0.0
 10
0.0951321692190523
 20
8.93609725797331
 30
0.0
 10
0.1169319761752324
 20
9.125734799233712
 30
0.0
 10
0.1332811592922357
 20
9.251849769881485
 30
0.0
 10
0.1620360718315913
 20
9.44041090587584
 30
0.0
 10
0.172394766139193
 20
9.503168488212678
 30
0.0
 10
0.1888686036111339
 20
9.597088767391204
 30
0.0
 10
0.1945007101152598
 20
9.628356730458725
 30
0.0
 10
0.2059785391976969
 20
9.690865478303014
 30
0.0
 10
0.2118473253373696
 20
9.722131572384503
 30
0.0
 10
0.2242071772306474
 20
9.784654507055427
 30
0.0
 10
0.2306977004845557
 20
9.815911437968003
 30
0.0
 10
0.2446668350892509
 20
9.878382560934751
 30
0.0
 10
0.2521371284146552
 20
9.909555350042632
 30
0.0
 10
0.2758600659495396
 20
10.00290339378423
 30
0.0
 10
0.2934624369167487
 20
10.06503348590752
 30
0.0
 10
0.3312272543464885
 20
10.1881216851191
 30
0.0
 10
0.3514510314186206
 20
10.2491129570816
 30
0.0
 10
0.3830262580498057
 20
10.34000279096844
 30
0.0
 10
0.3937388833476765
 20
10.3702080416541
 30
0.0
 10
0.4153195315635148
 20
10.43051986217261
 30
0.0
 10
0.4261402970726408
 20
10.46065013068193
 30
0.0
 10
0.4592342733906537
 20
10.55091366837261
 30
0.0
 10
0.4822477382609434
 20
10.61082124405211
 30
0.0
 10
0.5203697348882559
 20
10.69936390952351
 30
0.0
 10
0.5336638569581464
 20
10.72866556010461
 30
0.0
 10
0.5618073222574925
 20
10.78669634718059
 30
0.0
 10
0.5767303224189332
 20
10.81540848370527
 30
0.0
 10
0.6081702456403604
 20
10.87212263813604
 30
0.0
 10
0.6246277895031491
 20
10.90016229601433
 30
0.0
 10
0.6583977788477307
 20
10.95586041654281
 30
0.0
 10
0.6756658585666729
 20
10.98352650674921
 30
0.0
 10
0.7106146043367522
 20
11.03871523881216
 30
0.0
 10
0.7283536954902119
 20
11.06621180095224
 30
0.0
 10
0.764492463391163
 20
11.12095669558685
 30
0.0
 10
0.7828942320318584
 20
11.14820616668476
 30
0.0
 10
0.838895844247098
 20
11.22902317563626
 30
0.0
 10
0.8773934233895756
 20
11.28181456980345
 30
0.0
 10
0.9573579447173972
 20
11.38462030564682
 30
0.0
 10
0.9987896067748353
 20
11.43466704242743
 30
0.0
 10
1.084422507792821
 20
11.53216933668335
 30
0.0
 10
1.128602169565647
 20
11.57964495658543
 30
0.0
 10
1.219264671852285
 20
11.67244231386939
 30
0.0
 10
1.265765576508258
 20
11.71774714999504
 30
0.0
 10
1.360970604051711
 20
11.80629664546183
 30
0.0
 10
1.409674955009581
 20
11.84954069616713
 30
0.0
 10
1.485173955434822
 20
11.91211982913749
 30
0.0
 10
1.510753035656509
 20
11.93259346496275
 30
0.0
 10
1.562652438200514
 20
11.97284782562636
 30
0.0
 10
1.589015184214476
 20
11.99265893344444
 30
0.0
 10
1.668678606538729
 20
12.05084547561554
 30
0.0
 10
1.722619102847041
 20
12.08798483452915
 30
0.0
 10
1.804067698539143
 20
12.14256899483348
 30
0.0
 10
1.831291517571668
 20
12.16062342033766
 30
0.0
 10
1.886139479052683
 20
12.19602314345669
 30
0.0
 10
1.913782084229133
 20
12.21333073486515
 30
0.0
 10
1.997467794138688
 20
12.26375540957605
 30
0.0
 10
2.054270414982955
 20
12.29542668842191
 30
0.0
 10
2.140621222613191
 20
12.34060461882397
 30
0.0
 10
2.169582990184652
 20
12.35530250797778
 30
0.0
 10
2.22773749437664
 20
12.3842138651991
 30
0.0
 10
2.256910744645598
 20
12.3984468279763
 30
0.0
 10
2.344730777254982
 20
12.44066829371809
 30
0.0
 10
2.403786314577754
 20
12.46797360690996
 30
0.0
 10
2.494394525265658
 20
12.50526090753318
 30
0.0
 10
2.525018949805331
 20
12.51703717078859
 30
0.0
 10
2.586267946196102
 20
12.53912969129116
 30
0.0
 10
2.616957838403872
 20
12.54953823847366
 30
0.0
 10
2.678401604467974
 20
12.56957295452898
 30
0.0
 10
2.709154378151032
 20
12.57918906189083
 30
0.0
 10
2.755256506556398
 20
12.59340145694613
 30
0.0
 10
2.770613891275745
 20
12.59811114818703
 30
0.0
 10
2.801364564821518
 20
12.60749915589099
 30
0.0
 10
2.816753953475173
 20
12.61216837189983
 30
0.0
 10
2.893789379646695
 20
12.63526140354363
 30
0.0
 10
2.955703824981157
 20
12.652898833292
 30
0.0
 10
3.049331238031483
 20
12.67590551295628
 30
0.0
 10
3.080654662982595
 20
12.68300663841659
 30
0.0
 10
3.143582072284302
 20
12.6958553998718
 30
0.0
 10
3.175217900965789
 20
12.70153833030146
 30
0.0
 10
3.238531716594252
 20
12.71163236844724
 30
0.0
 10
3.270215443497611
 20
12.71610378524909
 30
0.0
 10
3.333589085472226
 20
12.7245600588102
 30
0.0
 10
3.36530679874707
 20
12.72852328319219
 30
0.0
 10
3.428757741043702
 20
12.7361662839072
 30
0.0
 10
3.460495100750404
 20
12.73989829938799
 30
0.0
 10
3.524190906297421
 20
12.74689419178022
 30
0.0
 10
3.556144024398969
 20
12.7501252277922
 30
0.0
 10
3.652251841745384
 20
12.75854373165873
 30
0.0
 10
3.716806680898489
 20
12.76257649825902
 30
0.0
 10
3.813171540724622
 20
12.76578879572285
 30
0.0
 10
3.845245899015794
 20
12.76636881237116
 30
0.0
 10
3.909226917041145
 20
12.76662725093995
 30
0.0
 10
3.941144336013432
 20
12.76632207295332
 30
0.0
 10
4.036726293565226
 20
12.76440985745877
 30
0.0
 10
4.100201218420946
 20
12.76188704584656
 30
0.0
 10
4.290555560073511
 20
12.75214321239216
 30
0.0
 10
4.417237932935709
 20
12.7421304954531
 30
0.0
 10
4.606795949081588
 20
12.72100014287155
 30
0.0
 10
4.669908625757929
 20
12.71292292116693
 30
0.0
 10
4.795958001635777
 20
12.69478533263918
 30
0.0
 10
4.858899949686066
 20
12.68474784782806
 30
0.0
 10
5.047575595530899
 20
12.65204856128086
 30
0.0
 10
5.173172759053144
 20
12.62672220079378
 30
0.0
 10
5.361274289232987
 20
12.58304197621763
 30
0.0
 10
5.423924972200872
 20
12.56754998717856
 30
0.0
 10
5.549143811717184
 20
12.5345468422479
 30
0.0
 10
5.611532223239491
 20
12.51706018292972
 30
0.0
 10
5.735568804054965
 20
12.47989726052164
 30
0.0
 10
5.797234940801009
 20
12.46022379012836
 30
0.0
 10
5.92004893600351
 20
12.41916850807763
 30
0.0
 10
5.98117818719801
 20
12.39773315012646
 30
0.0
 10
6.103183137640423
 20
12.35395486185407
 30
0.0
 10
6.164084090288187
 20
12.33170020784301
 30
0.0
 10
6.286061680329392
 20
12.28723530260623
 30
0.0
 10
6.347086855934516
 20
12.2648738385221
 30
0.0
 10
6.468870618026588
 20
12.21898005470092
 30
0.0
 10
6.529595863216005
 20
12.19539798016961
 30
0.0
 10
6.650912618013961
 20
12.14754732434465
 30
0.0
 10
6.711539673864012
 20
12.12337259060399
 30
0.0
 10
6.772126407735678
 20
12.09886331620824
 30
0.0
  0
LWPOLYLINE
  5
74
330
1F
100
AcDbEntity
  8
0
  6
Continuous
 62
     7
370
    25
100
AcDbPolyline
 90
        9
 70
   128
 43
0.0
 10
6.7721264077
 20
12.0988633162
 10
6.7638727387
 20
12.0934589611
 10
6.7498458625
 20
12.0732275514
 10
6.7305655051
 20
12.0389187041
 10
6.7067460448
 20
11.9918036353
 10
6.6792700438
 20
11.9336280593
 10
6.6491555466
 20
11.8665475057
 10
6.6175183598
 20
11.7930474525
 10
6.585530709
 20
11.715851234
  0
SPLINE
  5
75
330
1F
100
AcDbEntity
  8
0
  6
Continuous
 62
     7
370
    25
100
AcDbSpline
210
0.0
220
0.0
230
1.0
 70
     8
 71
     3
 72
   140
 73
   136
 74
     0
 42
0.000000001
 43
0.00000001
 40
0.0
 40
0.0
 40
0.0
 40
0.0
 40
0.0156250000000004
 40
0.0156250000000004
 40
0.0312500000000007
 40
0.0312500000000007
 40
0.0468750000000011
 40
0.0468750000000011
 40
0.0625000000000015
 40
0.0625000000000015
 40
0.0781250000000018
 40
0.0781250000000018
 40
0.0937500000000022
 40
0.0937500000000022
 40
0.1093750000000026
 40
0.1093750000000026
 40
0.1250000000000029
 40
0.1250000000000029
 40
0.1562500000000035
 40
0.1562500000000035
 40
0.1875000000000042
 40
0.1875000000000042
 40
0.218750000000005
 40
0.218750000000005
 40
0.2343750000000053
 40
0.2343750000000053
 40
0.2500000000000057
 40
0.2500000000000057
 40
0.2578125000000058
 40
0.2578125000000058
 40
0.2656250000000059
 40
0.2656250000000059
 40
0.2734375000000061
 40
0.2734375000000061
 40
0.2812500000000062
 40
0.2812500000000062
 40
0.2968750000000064
 40
0.2968750000000064
 40
0.3046875000000064
 40
0.3046875000000064
 40
0.3125000000000064
 40
0.3125000000000064
 40
0.3281250000000064
 40
0.3281250000000064
 40
0.3359375000000064
 40
0.3359375000000064
 40
0.3437500000000064
 40
0.3437500000000064
 40
0.3515625000000065
 40
0.3515625000000065
 40
0.3593750000000065
 40
0.3593750000000065
 40
0.3750000000000062
 40
0.3750000000000062
 40
0.390625000000006
 40
0.390625000000006
 40
0.4062500000000058
 40
0.4062500000000058
 40
0.4140625000000056
 40
0.4140625000000056
 40
0.4218750000000054
 40
0.4218750000000054
 40
0.4296875000000053
 40
0.4296875000000053
 40
0.4375000000000052
 40
0.4375000000000052
 40
0.445312500000005
 40
0.445312500000005
 40
0.4531250000000048
 40
0.4531250000000048
 40
0.4687500000000049
 40
0.4687500000000049
 40
0.500000000000005
 40
0.500000000000005
 40
0.5156250000000053
 40
0.5156250000000053
 40
0.5312500000000057
 40
0.5312500000000057
 40
0.5390625000000056
 40
0.5390625000000056
 40
0.5468750000000056
 40
0.5468750000000056
 40
0.5546875000000054
 40
0.5546875000000054
 40
0.5625000000000054
 40
0.5625000000000054
 40
0.5781250000000052
 40
0.5781250000000052
 40
0.5859375000000052
 40
0.5859375000000052
 40
0.5937500000000052
 40
0.5937500000000052
 40
0.609375000000005
 40
0.609375000000005
 40
0.617187500000005
 40
0.617187500000005
 40
0.6250000000000049
 40
0.6250000000000049
 40
0.6328125000000049
 40
0.6328125000000049
 40
0.6406250000000049
 40
0.6406250000000049
 40
0.6484375000000048
 40
0.6484375000000048
 40
0.6562500000000048
 40
0.6562500000000048
 40
0.6718750000000046
 40
0.6718750000000046
 40
0.6875000000000043
 40
0.6875000000000043
 40
0.7187500000000042
 40
0.7187500000000042
 40
0.7343750000000041
 40
0.7343750000000041
 40
0.750000000000004
 40
0.750000000000004
 40
0.7812500000000037
 40
0.7812500000000037
 40
0.7968750000000033
 40
0.7968750000000033
 40
0.8125000000000031
 40
0.8125000000000031
 40
0.8437500000000027
 40
0.8437500000000027
 40
0.8750000000000023
 40
0.8750000000000023
 40
0.9062500000000019
 40
0.9062500000000019
 40
0.9218750000000017
 40
0.9218750000000017
 40
0.9375000000000013
 40
0.9375000000000013
 40
0.9687500000000006
 40
0.9687500000000006
 40
1.0
 40
1.0
 40
1.0
 40
1.0
 10
6.585530708966682
 20
11.71585123395461
 30
0.0
 10
6.52827282905964
 20
11.74007667629547
 30
0.0
 10
6.470968258207209
 20
11.76400480403702
 30
0.0
 10
6.356335224861759
 20
11.81145461412539
 30
0.0
 10
6.298978687080185
 20
11.83490174153301
 30
0.0
 10
6.183986686750127
 20
11.88072151070772
 30
0.0
 10
6.126343230882251
 20
11.90307362909829
 30
0.0
 10
6.011049951480972
 20
11.94742771421997
 30
0.0
 10
5.953440394396385
 20
11.96953521000452
 30
0.0
 10
5.83823711584034
 20
12.01345884665064
 30
0.0
 10
5.780605257862689
 20
12.03517457018294
 30
0.0
 10
5.664907959517637
 20
12.07714263030219
 30
0.0
 10
5.606850686414732
 20
12.0974165756949
 30
0.0
 10
5.490149175343815
 20
12.13611205049688
 30
0.0
 10
5.431481856186114
 20
12.15447354311369
 30
0.0
 10
5.313535545048028
 20
12.18929322807239
 30
0.0
 10
5.254311949338764
 20
12.20577156032258
 30
0.0
 10
5.07670979061591
 20
12.25257861650104
 30
0.0
 10
4.958100439879178
 20
12.28027797697017
 30
0.0
 10
4.720458905663731
 20
12.32909795798521
 30
0.0
 10
4.601459025847153
 20
12.35039790057914
 30
0.0
 10
4.362771429894398
 20
12.38534175710888
 30
0.0
 10
4.243077475317442
 20
12.39895908809496
 30
0.0
 10
4.063068555136287
 20
12.4142525806799
 30
0.0
 10
4.002995361200688
 20
12.4185370631012
 30
0.0
 10
3.882702862837124
 20
12.42549410273365
 30
0.0
 10
3.822465020058818
 20
12.42806220012975
 30
0.0
 10
3.731713603334904
 20
12.42920751140716
 30
0.0
 10
3.70139180177318
 20
12.42910883049412
 30
0.0
 10
3.640605021222638
 20
12.42796132124423
 30
0.0
 10
3.610097999257168
 20
12.42692209722138
 30
0.0
 10
3.549243616356816
 20
12.42400191951252
 30
0.0
 10
3.518885215739233
 20
12.42212208114836
 30
0.0
 10
3.458295143874626
 20
12.41758675403356
 30
0.0
 10
3.428062616290385
 20
12.41493755074166
 30
0.0
 10
3.337468750329666
 20
12.40649801362349
 30
0.0
 10
3.277172010133745
 20
12.4005403619075
 30
0.0
 10
3.187021211841611
 20
12.38985856788302
 30
0.0
 10
3.157025935381265
 20
12.38595818121483
 30
0.0
 10
3.097252421640414
 20
12.37655928884047
 30
0.0
 10
3.0674805826174
 20
12.37100545655493
 30
0.0
 10
2.978434396542712
 20
12.35235172684328
 30
0.0
 10
2.919439633537251
 20
12.33716577130673
 30
0.0
 10
2.831180058868869
 20
12.3128469387271
 30
0.0
 10
2.80179881042009
 20
12.30448728606754
 30
0.0
 10
2.743065315860489
 20
12.28766798109591
 30
0.0
 10
2.713712891702877
 20
12.27921115367889
 30
0.0
 10
2.655100270264273
 20
12.26164494140722
 30
0.0
 10
2.625839612541577
 20
12.25253956903181
 30
0.0
 10
2.567476798016726
 20
12.23307686707566
 30
0.0
 10
2.538297503677143
 20
12.22261647704692
 30
0.0
 10
2.451986866979055
 20
12.18878817652877
 30
0.0
 10
2.39581023067878
 20
12.16346230794461
 30
0.0
 10
2.284141382318887
 20
12.11144409757941
 30
0.0
 10
2.228573755612797
 20
12.08490991885507
 30
0.0
 10
2.118987690117467
 20
12.02868065555147
 30
0.0
 10
2.065053231520075
 20
11.99881134282482
 30
0.0
 10
1.985727982672092
 20
11.9507612404177
 30
0.0
 10
1.959555791517941
 20
11.9341893024082
 30
0.0
 10
1.907472855020972
 20
11.90050816584535
 30
0.0
 10
1.881532506458622
 20
11.88346039659011
 30
0.0
 10
1.829853279162451
 20
11.84895114592177
 30
0.0
 10
1.804131423205243
 20
11.83145439063289
 30
0.0
 10
1.753055021886063
 20
11.795701949397
 30
0.0
 10
1.727663824012487
 20
11.77740356962855
 30
0.0
 10
1.677548525445696
 20
11.7399931503947
 30
0.0
 10
1.652875892716722
 20
11.72093027092131
 30
0.0
 10
1.604415255156544
 20
11.68198284630374
 30
0.0
 10
1.580650849581665
 20
11.66207638550952
 30
0.0
 10
1.510533357315169
 20
11.60126505940525
 30
0.0
 10
1.465243688716422
 20
11.55937255749527
 30
0.0
 10
1.332659416151545
 20
11.43064464577278
 30
0.0
 10
1.248889109053311
 20
11.3405365270013
 30
0.0
 10
1.132722103310956
 20
11.19656153127695
 30
0.0
 10
1.095627445333272
 20
11.14705803387368
 30
0.0
 10
1.024217710834403
 20
11.04546842112885
 30
0.0
 10
0.9897520385924526
 20
10.99329227854295
 30
0.0
 10
0.9400105164967301
 20
10.9145288268226
 30
0.0
 10
0.9237238291337567
 20
10.8881708977829
 30
0.0
 10
0.8916452589441383
 20
10.83527962908467
 30
0.0
 10
0.8758993767797203
 20
10.80873040460495
 30
0.0
 10
0.8458903219593595
 20
10.75511201262043
 30
0.0
 10
0.8317008912007481
 20
10.72801721157145
 30
0.0
 10
0.805588298471273
 20
10.67303168537789
 30
0.0
 10
0.7934924543009291
 20
10.64520094426333
 30
0.0
 10
0.7590830683494456
 20
10.56103956520275
 30
0.0
 10
0.7387046161178188
 20
10.50401924872028
 30
0.0
 10
0.7091333980471607
 20
10.41810344662375
 30
0.0
 10
0.6994056030039693
 20
10.38941374161631
 30
0.0
 10
0.6800525252425842
 20
10.3319864764126
 30
0.0
 10
0.6704700294654969
 20
10.30323393551287
 30
0.0
 10
0.6423295844835112
 20
10.21674423969294
 30
0.0
 10
0.6244622385933059
 20
10.15874577041611
 30
0.0
 10
0.5997321333018064
 20
10.07097311822378
 30
0.0
 10
0.5918173451877838
 20
10.04155919364376
 30
0.0
 10
0.5768284420197883
 20
9.982709220295815
 30
0.0
 10
0.5697473934119314
 20
9.953251606667436
 30
0.0
 10
0.5565195557922419
 20
9.894262670273285
 30
0.0
 10
0.5503962289312122
 20
9.864729971998884
 30
0.0
 10
0.5390879751946084
 20
9.805587987306827
 30
0.0
 10
0.5338569101006583
 20
9.775981344988528
 30
0.0
 10
0.5238369662325286
 20
9.716718848171077
 30
0.0
 10
0.5190373107214302
 20
9.687063656501158
 30
0.0
 10
0.5095934031868741
 20
9.627720557132253
 30
0.0
 10
0.5049808957030544
 20
9.598030783544457
 30
0.0
 10
0.4915927104452853
 20
9.508898378152503
 30
0.0
 10
0.4833294310285184
 20
9.44938874835745
 30
0.0
 10
0.4681750937581085
 20
9.330183019831699
 30
0.0
 10
0.4612373288736044
 20
9.27048979239935
 30
0.0
 10
0.4419900680096707
 20
9.091152124231241
 30
0.0
 10
0.4314211028609768
 20
8.971236231590593
 30
0.0
 10
0.4164013795296931
 20
8.790977152826647
 30
0.0
 10
0.4114653829767459
 20
8.730831898802636
 30
0.0
 10
0.401607051736118
 20
8.610432762088003
 30
0.0
 10
0.3968661981649751
 20
8.550166591575568
 30
0.0
 10
0.3862343588270186
 20
8.36893546808977
 30
0.0
 10
0.3833090868833469
 20
8.247555339259343
 30
0.0
 10
0.3812459580468757
 20
8.06558937957158
 30
0.0
 10
0.380933155235351
 20
8.004910172406081
 30
0.0
 10
0.380229778127248
 20
7.883474810523203
 30
0.0
 10
0.3798235943008625
 20
7.822718280465473
 30
0.0
 10
0.37835298639606
 20
7.640330601904549
 30
0.0
 10
0.3769420686678745
 20
7.518579912448278
 30
0.0
 10
0.377276941236506
 20
7.274882122198343
 30
0.0
 10
0.3792288316051973
 20
7.152938899650418
 30
0.0
 10
0.3846485190474959
 20
6.908788589627063
 30
0.0
 10
0.3879665542252876
 20
6.786577444598096
 30
0.0
 10
0.3925632134117719
 20
6.603021732057696
 30
0.0
 10
0.3940218440116369
 20
6.541796535816331
 30
0.0
 10
0.3966354191774453
 20
6.419263291516391
 30
0.0
 10
0.3978151100558288
 20
6.357955909699706
 30
0.0
 10
0.4012208747992088
 20
6.173918492945561
 30
0.0
 10
0.4033518210151021
 20
6.051075052748097
 30
0.0
 10
0.4101261749063556
 20
5.805138802829414
 30
0.0
 10
0.4147689653469823
 20
5.682044471089617
 30
0.0
 10
0.4201263294341767
 20
5.558806240232821
 30
0.0
  0
SPLINE
  5
78
330
1F
100
AcDbEntity
  8
0
  6
Continuous
 62
     7
370
    25
100
AcDbSpline
210
0.0
220
0.0
230
1.0
 70
    24
 71
     3
 72
    16
 73
    12
 74
     0
 42
0.000000001
 43
0.00000001
 40
0.0
 40
0.0
 40
0.0
 40
0.0
 40
0.0624999999999983
 40
0.0624999999999983
 40
0.1249999999999966
 40
0.1249999999999966
 40
0.2499999999999932
 40
0.2499999999999932
 40
0.4999999999999865
 40
0.4999999999999865
 40
1.0
 40
1.0
 40
1.0
 40
1.0
 10
15.58921743984664
 20
7.456855349446534
 30
0.0
 10
15.58921743984665
 20
7.456855349446537
 30
0.0
 10
15.58819550577995
 20
7.456869196765654
 30
0.0
 10
15.58500804390933
 20
7.45691238722494
 30
0.0
 10
15.58291213674489
 20
7.456940786997778
 30
0.0
 10
15.57595446812038
 20
7.457035064173679
 30
0.0
 10
15.57060562189625
 20
7.457107541628925
 30
0.0
 10
15.55412752814805
 20
7.457330821613453
 30
0.0
 10
15.5424243867832
 20
7.457489400467468
 30
0.0
 10
15.50708921132349
 20
7.457968195985354
 30
0.0
 10
15.48306123847738
 20
7.458293777662901
 30
0.0
 10
15.45889512452789
 20
7.458621231167609
 30
0.0
  0
SPLINE
  5
79
330
1F
100
AcDbEntity
  8
0
  6
Continuous
 62
     7
370
    25
100
AcDbSpline
210
0.0
220
0.0
230
1.0
 70
    24
 71
     3
 72
    22
 73
    18
 74
     0
 42
0.000000001
 43
0.00000001
 40
0.0
 40
0.0
 40
0.0
 40
0.0
 40
0.2499999999999938
 40
0.2499999999999938
 40
0.4999999999999877
 40
0.4999999999999877
 40
0.5624999999999861
 40
0.5624999999999861
 40
0.6249999999999846
 40
0.6249999999999846
 40
0.7499999999999897
 40
0.7499999999999897
 40
0.8749999999999949
 40
0.8749999999999949
 40
0.9374999999999974
 40
0.9374999999999974
 40
1.0
 40
1.0
 40
1.0
 40
1.0
 10
15.45889512452789
 20
7.458621231167609
 30
0.0
 10
15.41186766062683
 20
7.459258244745693
 30
0.0
 10
15.36423733148755
 20
7.459903424474161
 30
0.0
 10
15.26657559111188
 20
7.46122630794518
 30
0.0
 10
15.21651077134704
 20
7.461904464225128
 30
0.0
 10
15.1505036775253
 20
7.462798567617622
 30
0.0
 10
15.13712718494804
 20
7.462979759769866
 30
0.0
 10
15.10996390725334
 20
7.46334770171871
 30
0.0
 10
15.09613722306037
 20
7.463534991970833
 30
0.0
 10
15.05429539436994
 20
7.464101763189108
 30
0.0
 10
15.02594485945444
 20
7.464485787208035
 30
0.0
 10
14.96818755253296
 20
7.465268142574252
 30
0.0
 10
14.93878253639271
 20
7.465666450137348
 30
0.0
 10
14.89376258190522
 20
7.466276270865795
 30
0.0
 10
14.87855901336263
 20
7.46648221179464
 30
0.0
 10
14.84808403546348
 20
7.466895012594496
 30
0.0
 10
14.83281527265047
 20
7.467101836616579
 30
0.0
 10
14.81751368669961
 20
7.467309105246619
 30
0.0
  0
SPLINE
  5
7A
330
1F
100
AcDbEntity
  8
0
  6
Continuous
 62
     7
370
    25
100
AcDbSpline
210
0.0
220
0.0
230
1.0
 70
     8
 71
     3
 72
   188
 73
   184
 74
     0
 42
0.000000001
 43
0.00000001
 40
0.0
 40
0.0
 40
0.0
 40
0.0
 40
0.0078125000000019
 40
0.0078125000000019
 40
0.0156250000000039
 40
0.0156250000000039
 40
0.0312500000000074
 40
0.0312500000000074
 40
0.0351562500000081
 40
0.0351562500000081
 40
0.0390625000000088
 40
0.0390625000000088
 40
0.0468750000000101
 40
0.0468750000000101
 40
0.0546875000000115
 40
0.0546875000000115
 40
0.0625000000000129
 40
0.0625000000000129
 40
0.0703125000000143
 40
0.0703125000000143
 40
0.0742187500000148
 40
0.0742187500000148
 40
0.0781250000000154
 40
0.0781250000000154
 40
0.0937500000000173
 40
0.0937500000000173
 40
0.1093750000000192
 40
0.1093750000000192
 40
0.1250000000000211
 40
0.1250000000000211
 40
0.140625000000023
 40
0.140625000000023
 40
0.156250000000025
 40
0.156250000000025
 40
0.1718750000000269
 40
0.1718750000000269
 40
0.1796875000000279
 40
0.1796875000000279
 40
0.187500000000029
 40
0.187500000000029
 40
0.2031250000000311
 40
0.2031250000000311
 40
0.2109375000000321
 40
0.2109375000000321
 40
0.2187500000000332
 40
0.2187500000000332
 40
0.2343750000000352
 40
0.2343750000000352
 40
0.2421875000000361
 40
0.2421875000000361
 40
0.2500000000000369
 40
0.2500000000000369
 40
0.2578125000000376
 40
0.2578125000000376
 40
0.2656250000000384
 40
0.2656250000000384
 40
0.2734375000000392
 40
0.2734375000000392
 40
0.2812500000000399
 40
0.2812500000000399
 40
0.2890625000000407
 40
0.2890625000000407
 40
0.292968750000041
 40
0.292968750000041
 40
0.2968750000000412
 40
0.2968750000000412
 40
0.3007812500000415
 40
0.3007812500000415
 40
0.3046875000000417
 40
0.3046875000000417
 40
0.3125000000000419
 40
0.3125000000000419
 40
0.320312500000042
 40
0.320312500000042
 40
0.3281250000000422
 40
0.3281250000000422
 40
0.3320312500000419
 40
0.3320312500000419
 40
0.3359375000000417
 40
0.3359375000000417
 40
0.3437500000000411
 40
0.3437500000000411
 40
0.3515625000000406
 40
0.3515625000000406
 40
0.3593750000000401
 40
0.3593750000000401
 40
0.3671875000000396
 40
0.3671875000000396
 40
0.3750000000000391
 40
0.3750000000000391
 40
0.4062500000000375
 40
0.4062500000000375
 40
0.4140625000000371
 40
0.4140625000000371
 40
0.4218750000000367
 40
0.4218750000000367
 40
0.437500000000036
 40
0.437500000000036
 40
0.4531250000000352
 40
0.4531250000000352
 40
0.4609375000000349
 40
0.4609375000000349
 40
0.4687500000000345
 40
0.4687500000000345
 40
0.4765625000000341
 40
0.4765625000000341
 40
0.4843750000000338
 40
0.4843750000000338
 40
0.5000000000000326
 40
0.5000000000000326
 40
0.5156250000000315
 40
0.5156250000000315
 40
0.5312500000000304
 40
0.5312500000000304
 40
0.5468750000000293
 40
0.5468750000000293
 40
0.5625000000000281
 40
0.5625000000000281
 40
0.578125000000027
 40
0.578125000000027
 40
0.5937500000000259
 40
0.5937500000000259
 40
0.6093750000000248
 40
0.6093750000000248
 40
0.6250000000000236
 40
0.6250000000000236
 40
0.6406250000000225
 40
0.6406250000000225
 40
0.6562500000000214
 40
0.6562500000000214
 40
0.6718750000000203
 40
0.6718750000000203
 40
0.6875000000000191
 40
0.6875000000000191
 40
0.703125000000018
 40
0.703125000000018
 40
0.7109375000000172
 40
0.7109375000000172
 40
0.7187500000000163
 40
0.7187500000000163
 40
0.7500000000000141
 40
0.7500000000000141
 40
0.765625000000013
 40
0.765625000000013
 40
0.7812500000000119
 40
0.7812500000000119
 40
0.7968750000000108
 40
0.7968750000000108
 40
0.8125000000000095
 40
0.8125000000000095
 40
0.8281250000000084
 40
0.8281250000000084
 40
0.8437500000000073
 40
0.8437500000000073
 40
0.8593750000000062
 40
0.8593750000000062
 40
0.8750000000000051
 40
0.8750000000000051
 40
0.8828125000000044
 40
0.8828125000000044
 40
0.8906250000000039
 40
0.8906250000000039
 40
0.8984375000000032
 40
0.8984375000000032
 40
0.9062500000000027
 40
0.9062500000000027
 40
0.914062500000002
 40
0.914062500000002
 40
0.9218750000000014
 40
0.9218750000000014
 40
0.9375000000000007
 40
0.9375000000000007
 40
0.9453125000000006
 40
0.9453125000000006
 40
0.9531250000000003
 40
0.9531250000000003
 40
0.9687500000000001
 40
0.9687500000000001
 40
0.9765625000000001
 40
0.9765625000000001
 40
0.984375
 40
0.984375
 40
1.0
 40
1.0
 40
1.0
 40
1.0
 10
14.81751368669961
 20
7.46730910524662
 30
0.0
 10
14.80149639932088
 20
7.497888157070589
 30
0.0
 10
14.78748147626538
 20
7.529281819095005
 30
0.0
 10
14.76331983266972
 20
7.593642821415008
 30
0.0
 10
14.75314638634763
 20
7.626778320615914
 30
0.0
 10
14.72908345312984
 20
7.726667377357158
 30
0.0
 10
14.72129446071071
 20
7.794263730896136
 30
0.0
 10
14.72283101425577
 20
7.880130065784922
 30
0.0
 10
14.72372068421332
 20
7.89743249590615
 30
0.0
 10
14.72664322867126
 20
7.931695748374924
 30
0.0
 10
14.72867268769209
 20
7.948696518425025
 30
0.0
 10
14.73640979056283
 20
7.999319118994645
 30
0.0
 10
14.74377222490028
 20
8.03255984320861
 30
0.0
 10
14.76253736241683
 20
8.098110798052426
 30
0.0
 10
14.77395287380009
 20
8.130488107422476
 30
0.0
 10
14.80049398897211
 20
8.194091195600656
 30
0.0
 10
14.8154974640873
 20
8.224942468892872
 30
0.0
 10
14.84832482431584
 20
8.285098402201582
 30
0.0
 10
14.86621425191855
 20
8.3143671210306
 30
0.0
 10
14.89400429730185
 20
8.357746015277769
 30
0.0
 10
14.90341069311954
 20
8.372128096916189
 30
0.0
 10
14.92207740777879
 20
8.400968038780725
 30
0.0
 10
14.93129677101218
 20
8.41544484231168
 30
0.0
 10
14.97683542966717
 20
8.48810713351682
 30
0.0
 10
15.01153556840628
 20
8.5470998637148
 30
0.0
 10
15.07814866413656
 20
8.666474894158501
 30
0.0
 10
15.11016245161522
 20
8.726806924619872
 30
0.0
 10
15.17104558063612
 20
8.849038672290435
 30
0.0
 10
15.19993026253605
 20
8.910930741450965
 30
0.0
 10
15.25548087277937
 20
9.03582105574626
 30
0.0
 10
15.28208893753001
 20
9.098848149202642
 30
0.0
 10
15.33246210434534
 20
9.226319716161688
 30
0.0
 10
15.35618501764631
 20
9.290912006322891
 30
0.0
 10
15.39894650874556
 20
9.420833219184205
 30
0.0
 10
15.41813876675689
 20
9.486257700139221
 30
0.0
 10
15.44308482447913
 20
9.585208846439544
 30
0.0
 10
15.45074086972528
 20
9.618332309469386
 30
0.0
 10
15.46462341586996
 20
9.684882243516343
 30
0.0
 10
15.47087832826754
 20
9.718302692396978
 30
0.0
 10
15.48790712339385
 20
9.818931991465679
 30
0.0
 10
15.49701938340514
 20
9.88649304125927
 30
0.0
 10
15.50765568542692
 20
9.988477301069794
 30
0.0
 10
15.51076880323926
 20
10.02256368861511
 30
0.0
 10
15.51533892753281
 20
10.09108749511109
 30
0.0
 10
15.51674645121354
 20
10.12536872377731
 30
0.0
 10
15.51673162248547
 20
10.22764586838146
 30
0.0
 10
15.51146253140507
 20
10.29530859870747
 30
0.0
 10
15.49667859965236
 20
10.39611975083058
 30
0.0
 10
15.49064901402365
 20
10.4296141217134
 30
0.0
 10
15.4769330181977
 20
10.49643840580308
 30
0.0
 10
15.46925201839807
 20
10.5298919804298
 30
0.0
 10
15.45164197846453
 20
10.59592718549152
 30
0.0
 10
15.44169272373144
 20
10.6284167379344
 30
0.0
 10
15.41907024685864
 20
10.69213876580136
 30
0.0
 10
15.40647453505085
 20
10.72340701127791
 30
0.0
 10
15.37870775624556
 20
10.78475500789873
 30
0.0
 10
15.36350642971035
 20
10.81482079464335
 30
0.0
 10
15.33058072427096
 20
10.87378801090043
 30
0.0
 10
15.31293780047925
 20
10.90272703093241
 30
0.0
 10
15.27498354072633
 20
10.95937363202733
 30
0.0
 10
15.25435023908456
 20
10.98718083265722
 30
0.0
 10
15.22067235598859
 20
11.02521931320421
 30
0.0
 10
15.20895926928721
 20
11.03733451731034
 30
0.0
 10
15.1846841753829
 20
11.060581530726
 30
0.0
 10
15.17207210857786
 20
11.0716553506807
 30
0.0
 10
15.14618124599618
 20
11.0930306475965
 30
0.0
 10
15.13293402828328
 20
11.10336870478335
 30
0.0
 10
15.10613702044084
 20
11.12369431738505
 30
0.0
 10
15.09256240504949
 20
11.13365311506197
 30
0.0
 10
15.0512839710956
 20
11.16288707015427
 30
0.0
 10
15.02292892638631
 20
11.18157315177065
 30
0.0
 10
14.96511842694248
 20
11.2168278438225
 30
0.0
 10
14.93577179992878
 20
11.23343975960545
 30
0.0
 10
14.87654947582456
 20
11.26544641537501
 30
0.0
 10
14.84653552658771
 20
11.28052309321135
 30
0.0
 10
14.80038258746607
 20
11.30053380168269
 30
0.0
 10
14.78481751118935
 20
11.30678817490299
 30
0.0
 10
14.75328367107913
 20
11.31836819990382
 30
0.0
 10
14.73733392369225
 20
11.32373760081992
 30
0.0
 10
14.68913994302069
 20
11.33905269998948
 30
0.0
 10
14.65657109606629
 20
11.34825159376598
 30
0.0
 10
14.59084433185801
 20
11.3652941693302
 30
0.0
 10
14.55788169085248
 20
11.3730960148194
 30
0.0
 10
14.49188362779611
 20
11.38785034348848
 30
0.0
 10
14.45883371297593
 20
11.39476251166195
 30
0.0
 10
14.39264542756292
 20
11.4077784963266
 30
0.0
 10
14.35951017951722
 20
11.4139108481654
 30
0.0
 10
14.29315194465069
 20
11.42537375243091
 30
0.0
 10
14.2599251571586
 20
11.43066957248344
 30
0.0
 10
14.09344178751433
 20
11.45395539224739
 30
0.0
 10
13.9590032276437
 20
11.46114390723055
 30
0.0
 10
13.78993525236077
 20
11.46081034915032
 30
0.0
 10
13.75606674618782
 20
11.46024183316398
 30
0.0
 10
13.6881534043494
 20
11.45749341690608
 30
0.0
 10
13.65417834651279
 20
11.45524047674816
 30
0.0
 10
13.55280567838329
 20
11.44570121266791
 30
0.0
 10
13.48567483749872
 20
11.43604907625287
 30
0.0
 10
13.351974818937
 20
11.41264368975074
 30
0.0
 10
13.28536418116001
 20
11.39876967323207
 30
0.0
 10
13.18623336658703
 20
11.3762321169456
 30
0.0
 10
13.15328975956049
 20
11.36843470668002
 30
0.0
 10
13.08754123500014
 20
11.35244476299821
 30
0.0
 10
13.05474548781661
 20
11.34422610346657
 30
0.0
 10
12.98938428141229
 20
11.32713269933435
 30
0.0
 10
12.95682843092335
 20
11.31823057967942
 30
0.0
 10
12.89197916545622
 20
11.29967866768138
 30
0.0
 10
12.85966902236705
 20
11.29007653333884
 30
0.0
 10
12.76289223095687
 20
11.26083241961604
 30
0.0
 10
12.69849627570601
 20
11.24098903731721
 30
0.0
 10
12.57005522051011
 20
11.20030269408452
 30
0.0
 10
12.50603904092861
 20
11.17937733970507
 30
0.0
 10
12.37869959787884
 20
11.13555252899792
 30
0.0
 10
12.31533790264745
 20
11.11276256387278
 30
0.0
 10
12.19009264994676
 20
11.06297145339397
 30
0.0
 10
12.12824541399095
 20
11.0358668288902
 30
0.0
 10
12.00450233669716
 20
10.98179605549008
 30
0.0
 10
11.94263222045181
 20
10.95475661640095
 30
0.0
 10
11.81815107749741
 20
10.9027885749632
 30
0.0
 10
11.75556728249497
 20
10.87778239011359
 30
0.0
 10
11.63015033901149
 20
10.82848042269604
 30
0.0
 10
11.56732488291229
 20
10.80416272471051
 30
0.0
 10
11.44238281353918
 20
10.75350785195772
 30
0.0
 10
11.38022019329954
 20
10.72729870933179
 30
0.0
 10
11.2558779054999
 20
10.6749407689016
 30
0.0
 10
11.19364067416249
 20
10.64903483534455
 30
0.0
 10
11.06796065121816
 20
10.60220367499268
 30
0.0
 10
11.00455151835434
 20
10.58113938892912
 30
0.0
 10
10.87640560479205
 20
10.54449592170667
 30
0.0
 10
10.8116680557158
 20
10.52891991505897
 30
0.0
 10
10.68112355685991
 20
10.5021860726747
 30
0.0
 10
10.61531653071148
 20
10.49102855245175
 30
0.0
 10
10.48289938748889
 20
10.47203143853777
 30
0.0
 10
10.41630579801772
 20
10.46412356195285
 30
0.0
 10
10.28244204569772
 20
10.45110303493822
 30
0.0
 10
10.21505123294454
 20
10.44577188344858
 30
0.0
 10
10.11465380093126
 20
10.44158752498431
 30
0.0
 10
10.08126576341775
 20
10.44085056441735
 30
0.0
 10
10.01467902888503
 20
10.44097813441322
 30
0.0
 10
9.981477287916091
 20
10.44181691845762
 30
0.0
 10
9.81588384257724
 20
10.44952321154773
 30
0.0
 10
9.684743193562255
 20
10.46697247206074
 30
0.0
 10
9.489081551247972
 20
10.50202187901601
 30
0.0
 10
9.424040802996025
 20
10.51522580293213
 30
0.0
 10
9.294312161559068
 20
10.54461819066303
 30
0.0
 10
9.229640261533888
 20
10.56094192878181
 30
0.0
 10
9.100746148646996
 20
10.59739297596719
 30
0.0
 10
9.036928514032962
 20
10.61722485111233
 30
0.0
 10
8.910044330667628
 20
10.65846767038807
 30
0.0
 10
8.847039633944028
 20
10.6800971456482
 30
0.0
 10
8.72293136879654
 20
10.72773763290682
 30
0.0
 10
8.66179064297924
 20
10.75366300813658
 30
0.0
 10
8.539241269910008
 20
10.80489627917165
 30
0.0
 10
8.477828360268536
 20
10.83019435143348
 30
0.0
 10
8.355319311989819
 20
10.88152055914787
 30
0.0
 10
8.29422416490478
 20
10.90755097983422
 30
0.0
 10
8.173114361096737
 20
10.96210203095094
 30
0.0
 10
8.1131602711974
 20
10.99076224994207
 30
0.0
 10
8.023167455591073
 20
11.03361042258144
 30
0.0
 10
7.993166207922883
 20
11.04788475199085
 30
0.0
 10
7.932831004463464
 20
11.07566661728786
 30
0.0
 10
7.902450183956755
 20
11.0890661439092
 30
0.0
 10
7.842071806502385
 20
11.11674850595592
 30
0.0
 10
7.812093151417884
 20
11.1310749045683
 30
0.0
 10
7.7525012638798
 20
11.16056989255044
 30
0.0
 10
7.722886156294044
 20
11.17573416029675
 30
0.0
 10
7.66380258063883
 20
11.20640065637212
 30
0.0
 10
7.634333982259054
 20
11.22190258437457
 30
0.0
 10
7.575300860412355
 20
11.25268536151085
 30
0.0
 10
7.545714835873444
 20
11.26791665705233
 30
0.0
 10
7.45657573357913
 20
11.31273238561165
 30
0.0
 10
7.39665129459493
 20
11.34146094116576
 30
0.0
 10
7.306951301392691
 20
11.38498398257728
 30
0.0
 10
7.277112170750668
 20
11.39963097313702
 30
0.0
 10
7.217307340771549
 20
11.4286368586029
 30
0.0
 10
7.18731214513689
 20
11.44292934245851
 30
0.0
 10
7.096953421381761
 20
11.48496038944594
 30
0.0
 10
7.036286732300668
 20
11.51201127773576
 30
0.0
 10
6.944894692556381
 20
11.55169840349973
 30
0.0
 10
6.914367469180691
 20
11.56478406279538
 30
0.0
 10
6.853298063379303
 20
11.59092144904164
 30
0.0
 10
6.822769847677504
 20
11.60400485739559
 30
0.0
 10
6.731067037100646
 20
11.64298704647248
 30
0.0
 10
6.669665163755766
 20
11.66837028032052
 30
0.0
 10
6.608059686346782
 20
11.69329166910665
 30
0.0
  0
SPLINE
  5
7C
330
1F
100
AcDbEntity
  8
0
  6
Continuous
 62
     7
370
    25
100
AcDbSpline
210
0.0
220
0.0
230
1.0
 70
     8
 71
     3
 72
   214
 73
   210
 74
     0
 42
0.000000001
 43
0.00000001
 40
0.0
 40
0.0
 40
0.0
 40
0.0
 40
0.0156250000000002
 40
0.0156250000000002
 40
0.0234375000000005
 40
0.0234375000000005
 40
0.0312500000000007
 40
0.0312500000000007
 40
0.046875000000001
 40
0.046875000000001
 40
0.0546875000000011
 40
0.0546875000000011
 40
0.0625000000000012
 40
0.0625000000000012
 40
0.0703125000000013
 40
0.0703125000000013
 40
0.0781250000000015
 40
0.0781250000000015
 40
0.0937500000000017
 40
0.0937500000000017
 40
0.101562500000002
 40
0.101562500000002
 40
0.1093750000000022
 40
0.1093750000000022
 40
0.1171875000000025
 40
0.1171875000000025
 40
0.1250000000000027
 40
0.1250000000000027
 40
0.1328125000000029
 40
0.1328125000000029
 40
0.1406250000000031
 40
0.1406250000000031
 40
0.1562500000000034
 40
0.1562500000000034
 40
0.1640625000000035
 40
0.1640625000000035
 40
0.1718750000000036
 40
0.1718750000000036
 40
0.1796875000000037
 40
0.1796875000000037
 40
0.1875000000000039
 40
0.1875000000000039
 40
0.195312500000004
 40
0.195312500000004
 40
0.2031250000000041
 40
0.2031250000000041
 40
0.2187500000000044
 40
0.2187500000000044
 40
0.2343750000000046
 40
0.2343750000000046
 40
0.2500000000000049
 40
0.2500000000000049
 40
0.2578125000000049
 40
0.2578125000000049
 40
0.2656250000000049
 40
0.2656250000000049
 40
0.2734375000000049
 40
0.2734375000000049
 40
0.2812500000000049
 40
0.2812500000000049
 40
0.2968750000000045
 40
0.2968750000000045
 40
0.3125000000000041
 40
0.3125000000000041
 40
0.3203125000000038
 40
0.3203125000000038
 40
0.3281250000000035
 40
0.3281250000000035
 40
0.3437500000000028
 40
0.3437500000000028
 40
0.3593750000000021
 40
0.3593750000000021
 40
0.3750000000000013
 40
0.3750000000000013
 40
0.3906250000000007
 40
0.3906250000000007
 40
0.4062499999999999
 40
0.4062499999999999
 40
0.4140624999999998
 40
0.4140624999999998
 40
0.4218749999999996
 40
0.4218749999999996
 40
0.4374999999999992
 40
0.4374999999999992
 40
0.4531249999999987
 40
0.4531249999999987
 40
0.4609374999999984
 40
0.4609374999999984
 40
0.468749999999998
 40
0.468749999999998
 40
0.4765624999999976
 40
0.4765624999999976
 40
0.4843749999999972
 40
0.4843749999999972
 40
0.4921874999999968
 40
0.4921874999999968
 40
0.4999999999999964
 40
0.4999999999999964
 40
0.515624999999996
 40
0.515624999999996
 40
0.5312499999999956
 40
0.5312499999999956
 40
0.5390624999999953
 40
0.5390624999999953
 40
0.5468749999999951
 40
0.5468749999999951
 40
0.5624999999999948
 40
0.5624999999999948
 40
0.5781249999999944
 40
0.5781249999999944
 40
0.5937499999999942
 40
0.5937499999999942
 40
0.6093749999999939
 40
0.6093749999999939
 40
0.6171874999999939
 40
0.6171874999999939
 40
0.6249999999999939
 40
0.6249999999999939
 40
0.6328124999999939
 40
0.6328124999999939
 40
0.6406249999999939
 40
0.6406249999999939
 40
0.6484374999999939
 40
0.6484374999999939
 40
0.6562499999999939
 40
0.6562499999999939
 40
0.6640624999999939
 40
0.6640624999999939
 40
0.6718749999999939
 40
0.6718749999999939
 40
0.6796874999999939
 40
0.6796874999999939
 40
0.6874999999999939
 40
0.6874999999999939
 40
0.6914062499999943
 40
0.6914062499999943
 40
0.6953124999999947
 40
0.6953124999999947
 40
0.703124999999995
 40
0.703124999999995
 40
0.7187499999999957
 40
0.7187499999999957
 40
0.7343749999999963
 40
0.7343749999999963
 40
0.7421874999999968
 40
0.7421874999999968
 40
0.7499999999999972
 40
0.7499999999999972
 40
0.7656249999999976
 40
0.7656249999999976
 40
0.7734374999999977
 40
0.7734374999999977
 40
0.7812499999999978
 40
0.7812499999999978
 40
0.7890624999999979
 40
0.7890624999999979
 40
0.796874999999998
 40
0.796874999999998
 40
0.8124999999999981
 40
0.8124999999999981
 40
0.8281249999999982
 40
0.8281249999999982
 40
0.8437499999999983
 40
0.8437499999999983
 40
0.8593749999999984
 40
0.8593749999999984
 40
0.8749999999999986
 40
0.8749999999999986
 40
0.8906249999999987
 40
0.8906249999999987
 40
0.9062499999999988
 40
0.9062499999999988
 40
0.921874999999999
 40
0.921874999999999
 40
0.9296874999999991
 40
0.9296874999999991
 40
0.9374999999999992
 40
0.9374999999999992
 40
0.9414062499999992
 40
0.9414062499999992
 40
0.9453124999999993
 40
0.9453124999999993
 40
0.9492187499999993
 40
0.9492187499999993
 40
0.9511718749999993
 40
0.9511718749999993
 40
0.9531249999999994
 40
0.9531249999999994
 40
0.9570312499999994
 40
0.9570312499999994
 40
0.9609374999999996
 40
0.9609374999999996
 40
0.9648437499999996
 40
0.9648437499999996
 40
0.9687499999999997
 40
0.9687499999999997
 40
0.9726562499999997
 40
0.9726562499999997
 40
0.9765624999999998
 40
0.9765624999999998
 40
0.9804687499999998
 40
0.9804687499999998
 40
0.9843749999999999
 40
0.9843749999999999
 40
0.9882812499999999
 40
0.9882812499999999
 40
0.9921875
 40
0.9921875
 40
1.0
 40
1.0
 40
1.0
 40
1.0
 10
6.772126407735686
 20
12.09886331620824
 30
0.0
 10
6.837044124856064
 20
12.07260202037046
 30
0.0
 10
6.901775941525663
 20
12.04582285075123
 30
0.0
 10
6.998522008905818
 20
12.00467446306767
 30
0.0
 10
7.030738350457101
 20
11.99086822130304
 30
0.0
 10
7.095179495891722
 20
11.96327931178814
 30
0.0
 10
7.127388823187093
 20
11.94945352999968
 30
0.0
 10
7.223830078556939
 20
11.90745600963384
 30
0.0
 10
7.287881979111273
 20
11.87878275784207
 30
0.0
 10
7.383383206585917
 20
11.83416654667304
 30
0.0
 10
7.415102226094349
 20
11.81897488574533
 30
0.0
 10
7.478402611097833
 20
11.78820809303684
 30
0.0
 10
7.510010190966922
 20
11.7727132066965
 30
0.0
 10
7.573357001867885
 20
11.74204264902371
 30
0.0
 10
7.605061692593651
 20
11.72677912810275
 30
0.0
 10
7.668299251229061
 20
11.69585798242138
 30
0.0
 10
7.699832829090759
 20
11.68020198605257
 30
0.0
 10
7.794086574341773
 20
11.6324381222318
 30
0.0
 10
7.85629687458096
 20
11.59916079075868
 30
0.0
 10
7.950301118531258
 20
11.55082465474043
 30
0.0
 10
7.98177099385591
 20
11.53502254614393
 30
0.0
 10
8.045252142411272
 20
11.50466011393768
 30
0.0
 10
8.077337866004438
 20
11.49027055445783
 30
0.0
 10
8.14145284614541
 20
11.46136191905858
 30
0.0
 10
8.17335118899787
 20
11.44654257108487
 30
0.0
 10
8.236942323199102
 20
11.41643240901538
 30
0.0
 10
8.268676231234943
 20
11.40123590279211
 30
0.0
 10
8.332249284328881
 20
11.3710842687344
 30
0.0
 10
8.36408728508066
 20
11.35612651624554
 30
0.0
 10
8.428091948053348
 20
11.32696485030845
 30
0.0
 10
8.460270031447433
 20
11.31278713319606
 30
0.0
 10
8.557133722128427
 20
11.27100960773182
 30
0.0
 10
8.622121280287486
 20
11.24410237328093
 30
0.0
 10
8.719560686594074
 20
11.20364534612764
 30
0.0
 10
8.752032837008198
 20
11.19014212000699
 30
0.0
 10
8.816911205022238
 20
11.16298444003115
 30
0.0
 10
8.849335478061032
 20
11.14937139928946
 30
0.0
 10
8.914485959864177
 20
11.12283785696584
 30
0.0
 10
8.947252765243865
 20
11.11001047038653
 30
0.0
 10
9.013426961756142
 20
11.08582498582649
 30
0.0
 10
9.046784360926067
 20
11.0743522230715
 30
0.0
 10
9.11381799051593
 20
11.05213798938059
 30
0.0
 10
9.14747018096516
 20
11.04134137882488
 30
0.0
 10
9.215026760843836
 20
11.02032661748176
 30
0.0
 10
9.248962214029556
 20
11.01014889213857
 30
0.0
 10
9.351355703414864
 20
10.98115347099579
 30
0.0
 10
9.419915101314169
 20
10.96427366481003
 30
0.0
 10
9.55749958972658
 20
10.93435544201377
 30
0.0
 10
9.626507246617086
 20
10.92117321952337
 30
0.0
 10
9.76502211542296
 20
10.89892948723577
 30
0.0
 10
9.834538416601564
 20
10.88994295264756
 30
0.0
 10
9.939444251800163
 20
10.88167128518015
 30
0.0
 10
9.97451819184665
 20
10.87978289134313
 30
0.0
 10
10.04491684355051
 20
10.87807466010158
 30
0.0
 10
10.08024957036783
 20
10.87832093787889
 30
0.0
 10
10.15115540407223
 20
10.88079633247103
 30
0.0
 10
10.18672096450537
 20
10.88296320035034
 30
0.0
 10
10.25798672275546
 20
10.8884075284337
 30
0.0
 10
10.29355777208211
 20
10.89161897866523
 30
0.0
 10
10.39988351267062
 20
10.90252563130896
 30
0.0
 10
10.47035960083234
 20
10.91148248155424
 30
0.0
 10
10.61022812298517
 20
10.93387642267464
 30
0.0
 10
10.67959873027486
 20
10.94740375347799
 30
0.0
 10
10.7824295712248
 20
10.97275965735214
 30
0.0
 10
10.8164974593528
 20
10.98207595454275
 30
0.0
 10
10.88417558578113
 20
11.00260064827421
 30
0.0
 10
10.91779280038415
 20
11.01378020211269
 30
0.0
 10
11.01805544042156
 20
11.04975403040044
 30
0.0
 10
11.08403933008671
 20
11.07728334662948
 30
0.0
 10
11.21589334771766
 20
11.13281231344456
 30
0.0
 10
11.28182109271451
 20
11.16057869870562
 30
0.0
 10
11.41436088220883
 20
11.21414836317927
 30
0.0
 10
11.48100050093543
 20
11.23987484168126
 30
0.0
 10
11.61394711390237
 20
11.29227995323002
 30
0.0
 10
11.68024572739035
 20
11.31898257660754
 30
0.0
 10
11.81197488903974
 20
11.37487270460252
 30
0.0
 10
11.87747396408388
 20
11.40386404752556
 30
0.0
 10
11.97597183864249
 20
11.44663753675274
 30
0.0
 10
12.00885646755971
 20
11.46074650221044
 30
0.0
 10
12.0749224734303
 20
11.48811497674806
 30
0.0
 10
12.10812428532113
 20
11.50131598977795
 30
0.0
 10
12.20825125501696
 20
11.53942611114489
 30
0.0
 10
12.2756143741938
 20
11.5630815327335
 30
0.0
 10
12.41093200715776
 20
11.60869947869719
 30
0.0
 10
12.47892642822249
 20
11.63054776645623
 30
0.0
 10
12.58119729147909
 20
11.66252088323784
 30
0.0
 10
12.61533374111836
 20
11.67304644807725
 30
0.0
 10
12.6836591106007
 20
11.69394737912342
 30
0.0
 10
12.71784623330986
 20
11.70432788971764
 30
0.0
 10
12.78639455402115
 20
11.7245906115078
 30
0.0
 10
12.82075682288305
 20
11.73446975731314
 30
0.0
 10
12.88977510173713
 20
11.75338719996726
 30
0.0
 10
12.92442226387424
 20
11.76245082425214
 30
0.0
 10
12.99392135690191
 20
11.77999191182876
 30
0.0
 10
13.02877009597877
 20
11.78847851184987
 30
0.0
 10
13.09861812773973
 20
11.8050207445181
 30
0.0
 10
13.13362761304235
 20
11.81304720027524
 30
0.0
 10
13.23902498735015
 20
11.83607051982417
 30
0.0
 10
13.3097915876651
 20
11.84999241254505
 30
0.0
 10
13.45173048948298
 20
11.87326973653559
 30
0.0
 10
13.52299358496853
 20
11.88273965615454
 30
0.0
 10
13.63053474478892
 20
11.89216962045802
 30
0.0
 10
13.66655289410466
 20
11.89445047325489
 30
0.0
 10
13.73853853265871
 20
11.89741612936073
 30
0.0
 10
13.77444887646359
 20
11.89813848783206
 30
0.0
 10
13.88200729272832
 20
11.89871395585765
 30
0.0
 10
13.95350793959908
 20
11.89720771974062
 30
0.0
 10
14.09602483483427
 20
11.88972882470415
 30
0.0
 10
14.16704072983984
 20
11.88375290762026
 30
0.0
 10
14.30849205979617
 20
11.8664489099117
 30
0.0
 10
14.37891721332652
 20
11.85502602889052
 30
0.0
 10
14.51944837060631
 20
11.82923752891593
 30
0.0
 10
14.58955145916165
 20
11.81484503025654
 30
0.0
 10
14.6943867273445
 20
11.79031156312197
 30
0.0
 10
14.7293484141524
 20
11.78160015802878
 30
0.0
 10
14.79868549236173
 20
11.7627369751409
 30
0.0
 10
14.8330518912172
 20
11.75260951610923
 30
0.0
 10
14.90096188674326
 20
11.73045957951365
 30
0.0
 10
14.93445786800385
 20
11.71832743757838
 30
0.0
 10
15.00020799419853
 20
11.69120304602217
 30
0.0
 10
15.03252388288338
 20
11.67635300014603
 30
0.0
 10
15.09616654334882
 20
11.64437484581866
 30
0.0
 10
15.12752744096857
 20
11.62732533353404
 30
0.0
 10
15.18978218255092
 20
11.59215062473333
 30
0.0
 10
15.22061867921855
 20
11.57384819326674
 30
0.0
 10
15.28135989862014
 20
11.53528213913179
 30
0.0
 10
15.31104536461203
 20
11.51522386914843
 30
0.0
 10
15.36911539705203
 20
11.47363535601389
 30
0.0
 10
15.39756078623481
 20
11.45217393403638
 30
0.0
 10
15.45292888428663
 20
11.40752817106299
 30
0.0
 10
15.47968692783579
 20
11.38415751058249
 30
0.0
 10
15.530692640146
 20
11.33457569025557
 30
0.0
 10
15.55502122559723
 20
11.30845608797586
 30
0.0
 10
15.58963181973659
 20
11.26714687245003
 30
0.0
 10
15.60086579254058
 20
11.25303441050432
 30
0.0
 10
15.62277765995174
 20
11.22418028185312
 30
0.0
 10
15.63343204185125
 20
11.20946612703717
 30
0.0
 10
15.66432504019038
 20
11.1649977817587
 30
0.0
 10
15.6836685395438
 20
11.13477112240795
 30
0.0
 10
15.73890247869176
 20
11.04279299285101
 30
0.0
 10
15.77164425772208
 20
10.97957992686338
 30
0.0
 10
15.82855963026069
 20
10.84917647730729
 30
0.0
 10
15.85280950172981
 20
10.78202150166432
 30
0.0
 10
15.8828248283349
 20
10.67833699264428
 30
0.0
 10
15.89183630862248
 20
10.64320312379914
 30
0.0
 10
15.90807766076892
 20
10.57276783617812
 30
0.0
 10
15.91537464702686
 20
10.53746989035575
 30
0.0
 10
15.93488045510699
 20
10.43134352312348
 30
0.0
 10
15.94438226376001
 20
10.36025119338356
 30
0.0
 10
15.95211468464331
 20
10.25297703160437
 30
0.0
 10
15.95365520759881
 20
10.21711788473784
 30
0.0
 10
15.95455379372546
 20
10.14518682169741
 30
0.0
 10
15.95384550991993
 20
10.10910843731714
 30
0.0
 10
15.95047170166945
 20
10.03676085599811
 30
0.0
 10
15.94783644696482
 20
10.0005313544802
 30
0.0
 10
15.94140855813831
 20
9.928502404807794
 30
0.0
 10
15.93766695986492
 20
9.89259962962988
 30
0.0
 10
15.92495469948815
 20
9.785206187406798
 30
0.0
 10
15.91447561242134
 20
9.714034840593465
 30
0.0
 10
15.88895492344322
 20
9.572657991031472
 30
0.0
 10
15.87370386991716
 20
9.50249682733831
 30
0.0
 10
15.83798656847027
 20
9.36327851050844
 30
0.0
 10
15.81769690922186
 20
9.294183975110627
 30
0.0
 10
15.77280652237816
 20
9.15690751937866
 30
0.0
 10
15.74806399308828
 20
9.08860386112964
 30
0.0
 10
15.69544338258386
 20
8.953681361773349
 30
0.0
 10
15.66764087048022
 20
8.886964382392367
 30
0.0
 10
15.60959641666845
 20
8.754747141671183
 30
0.0
 10
15.57942246288415
 20
8.689212969890038
 30
0.0
 10
15.51612633756647
 20
8.5596151134108
 30
0.0
 10
15.48288305030063
 20
8.49561183779212
 30
0.0
 10
15.41363922628881
 20
8.368980524101733
 30
0.0
 10
15.3776861942633
 20
8.306328792027845
 30
0.0
 10
15.3212482720005
 20
8.213602299571521
 30
0.0
 10
15.30203237860661
 20
8.182894599689542
 30
0.0
 10
15.26266389174782
 20
8.12194639925493
 30
0.0
 10
15.24243551386674
 20
8.091768309311146
 30
0.0
 10
15.21529630474619
 20
8.044708650674059
 30
0.0
 10
15.20679449136669
 20
8.028716268594525
 30
0.0
 10
15.19146095448032
 20
7.995793619845656
 30
0.0
 10
15.184621801631
 20
7.978801614687499
 30
0.0
 10
15.17322022173662
 20
7.944443584407582
 30
0.0
 10
15.16860972441241
 20
7.927006328765528
 30
0.0
 10
15.16374785013858
 20
7.900363976944245
 30
0.0
 10
15.16247030232334
 20
7.891401933752786
 30
0.0
 10
15.16065139051552
 20
7.87330347906178
 30
0.0
 10
15.16011183229442
 20
7.864127042616187
 30
0.0
 10
15.15963173620122
 20
7.836816665110143
 30
0.0
 10
15.16079116625095
 20
7.818794862492267
 30
0.0
 10
15.16565323609357
 20
7.783069466094006
 30
0.0
 10
15.16936104057751
 20
7.765366518524707
 30
0.0
 10
15.17924348189936
 20
7.730269275811562
 30
0.0
 10
15.18536440922943
 20
7.713092122272011
 30
0.0
 10
15.1997387847421
 20
7.679934245206296
 30
0.0
 10
15.20801205386044
 20
7.663875760279858
 30
0.0
 10
15.22695718736363
 20
7.632908204826742
 30
0.0
 10
15.23771418371074
 20
7.617964640900258
 30
0.0
 10
15.26115678458293
 20
7.59051176947464
 30
0.0
 10
15.27391498335769
 20
7.577859355787075
 30
0.0
 10
15.3013971949728
 20
7.55459072378931
 30
0.0
 10
15.31620664517566
 20
7.543893418085294
 30
0.0
 10
15.34705864434514
 20
7.524596803330771
 30
0.0
 10
15.36297512210526
 20
7.516054186917764
 30
0.0
 10
15.39562403914779
 20
7.50080838615558
 30
0.0
 10
15.41235738774412
 20
7.494107251683909
 30
0.0
 10
15.4465523470952
 20
7.482346713053104
 30
0.0
 10
15.46408404693308
 20
7.477274384933279
 30
0.0
 10
15.51704846063117
 20
7.464543208899062
 30
0.0
 10
15.55290574143672
 20
7.459337715849018
 30
0.0
 10
15.58921743984664
 20
7.456855349446536
 30
0.0
  0
SPLINE
  5
7D
330
1F
100
AcDbEntity
  8
0
  6
Continuous
 62
     7
370
    25
100
AcDbSpline
210
0.0
220
0.0
230
1.0
 70
     8
 71
     3
 72
     8
 73
     4
 74
     0
 42
0.000000001
 43
0.00000001
 40
0.0
 40
0.0
 40
0.0
 40
0.0
 40
1.0
 40
1.0
 40
1.0
 40
1.0
 10
12.78630911897138
 20
5.065159218107423
 30
0.0
 10
12.8409338928242
 20
5.153296433195323
 30
0.0
 10
12.90554855104691
 20
5.233038003382966
 30
0.0
 10
12.97992663277353
 20
5.304574249693554
 30
0.0
  0
SPLINE
  5
7E
330
1F
100
AcDbEntity
  8
0
  6
Continuous
 62
     7
370
    25
100
AcDbSpline
210
0.0
220
0.0
230
1.0
 70
     8
 71
     3
 72
    10
 73
     6
 74
     0
 42
0.000000001
 43
0.00000001
 40
0.0
 40
0.0
 40
0.0
 40
0.0
 40
0.5
 40
0.5
 40
1.0
 40
1.0
 40
1.0
 40
1.0
 10
12.97992663277354
 20
5.304574249693554
 30
0.0
 10
12.99515895144158
 20
5.297646882906873
 30
0.0
 10
13.01082908476104
 20
5.29254426880514
 30
0.0
 10
13.04303268379696
 20
5.285796782548003
 30
0.0
 10
13.05972053284072
 20
5.284187037581339
 30
0.0
 10
13.07611980899428
 20
5.28440918135967
 30
0.0
  0
SPLINE
  5
7F
330
1F
100
AcDbEntity
  8
0
  6
Continuous
 62
     7
370
    25
100
AcDbSpline
210
0.0
220
0.0
230
1.0
 70
    24
 71
     3
 72
     8
 73
     4
 74
     0
 42
0.000000001
 43
0.00000001
 40
0.0
 40
0.0
 40
0.0
 40
0.0
 40
1.0
 40
1.0
 40
1.0
 40
1.0
 10
13.82055469784508
 20
5.274886091739746
 30
0.0
 10
13.82055469784508
 20
5.274886091739746
 30
0.0
 10
13.81861669161885
 20
5.281426816032394
 30
0.0
 10
13.81476834955706
 20
5.294414877716092
 30
0.0
  0
SPLINE
  5
80
330
1F
100
AcDbEntity
  8
0
  6
Continuous
 62
     7
370
    25
100
AcDbSpline
210
0.0
220
0.0
230
1.0
 70
     8
 71
     3
 72
   132
 73
   128
 74
     0
 42
0.000000001
 43
0.00000001
 40
0.0
 40
0.0
 40
0.0
 40
0.0
 40
0.0156249999999994
 40
0.0156249999999994
 40
0.0312499999999988
 40
0.0312499999999988
 40
0.0624999999999982
 40
0.0624999999999982
 40
0.070312499999998
 40
0.070312499999998
 40
0.0781249999999979
 40
0.0781249999999979
 40
0.0937499999999975
 40
0.0937499999999975
 40
0.1093749999999974
 40
0.1093749999999974
 40
0.1171874999999974
 40
0.1171874999999974
 40
0.1249999999999974
 40
0.1249999999999974
 40
0.1406249999999977
 40
0.1406249999999977
 40
0.1484374999999978
 40
0.1484374999999978
 40
0.1562499999999979
 40
0.1562499999999979
 40
0.1718749999999982
 40
0.1718749999999982
 40
0.1874999999999984
 40
0.1874999999999984
 40
0.1953124999999985
 40
0.1953124999999985
 40
0.2031249999999986
 40
0.2031249999999986
 40
0.2187499999999989
 40
0.2187499999999989
 40
0.2343749999999991
 40
0.2343749999999991
 40
0.2499999999999993
 40
0.2499999999999993
 40
0.2656249999999996
 40
0.2656249999999996
 40
0.2812499999999998
 40
0.2812499999999998
 40
0.296875
 40
0.296875
 40
0.3125000000000002
 40
0.3125000000000002
 40
0.3281250000000004
 40
0.3281250000000004
 40
0.3437500000000007
 40
0.3437500000000007
 40
0.3750000000000004
 40
0.3750000000000004
 40
0.4062500000000002
 40
0.4062500000000002
 40
0.4218750000000004
 40
0.4218750000000004
 40
0.4375000000000006
 40
0.4375000000000006
 40
0.4531250000000008
 40
0.4531250000000008
 40
0.4687500000000011
 40
0.4687500000000011
 40
0.5000000000000007
 40
0.5000000000000007
 40
0.5312500000000003
 40
0.5312500000000003
 40
0.5468749999999997
 40
0.5468749999999997
 40
0.5624999999999991
 40
0.5624999999999991
 40
0.5781249999999984
 40
0.5781249999999984
 40
0.5937499999999979
 40
0.5937499999999979
 40
0.6093749999999972
 40
0.6093749999999972
 40
0.6171874999999969
 40
0.6171874999999969
 40
0.6249999999999964
 40
0.6249999999999964
 40
0.6406249999999962
 40
0.6406249999999962
 40
0.6484374999999961
 40
0.6484374999999961
 40
0.6562499999999961
 40
0.6562499999999961
 40
0.6718749999999956
 40
0.6718749999999956
 40
0.6796874999999953
 40
0.6796874999999953
 40
0.6874999999999952
 40
0.6874999999999952
 40
0.703124999999995
 40
0.703124999999995
 40
0.7109374999999949
 40
0.7109374999999949
 40
0.7187499999999949
 40
0.7187499999999949
 40
0.7343749999999946
 40
0.7343749999999946
 40
0.7421874999999944
 40
0.7421874999999944
 40
0.7499999999999943
 40
0.7499999999999943
 40
0.7656249999999948
 40
0.7656249999999948
 40
0.7812499999999951
 40
0.7812499999999951
 40
0.7968749999999956
 40
0.7968749999999956
 40
0.8124999999999959
 40
0.8124999999999959
 40
0.8281249999999963
 40
0.8281249999999963
 40
0.8437499999999967
 40
0.8437499999999967
 40
0.8749999999999976
 40
0.8749999999999976
 40
0.9062499999999983
 40
0.9062499999999983
 40
0.9218749999999988
 40
0.9218749999999988
 40
0.9374999999999991
 40
0.9374999999999991
 40
1.0
 40
1.0
 40
1.0
 40
1.0
 10
13.82055469784505
 20
5.274886091739737
 30
0.0
 10
13.78317404829779
 20
5.263497109848446
 30
0.0
 10
13.74610491884526
 20
5.251225578472023
 30
0.0
 10
13.67275386440905
 20
5.224452332464763
 30
0.0
 10
13.6363961666642
 20
5.209920971290655
 30
0.0
 10
13.52956058589395
 20
5.16254974231475
 30
0.0
 10
13.46116884695694
 20
5.126005321071946
 30
0.0
 10
13.38113422841072
 20
5.070763742869169
 30
0.0
 10
13.36540466684529
 20
5.059229295792389
 30
0.0
 10
13.33456697763143
 20
5.035071217086028
 30
0.0
 10
13.31950189674494
 20
5.022472949012498
 30
0.0
 10
13.27600930845461
 20
4.98350627647575
 30
0.0
 10
13.24907628988793
 20
4.95579301602116
 30
0.0
 10
13.1995691276257
 20
4.896697927240157
 30
0.0
 10
13.17699924185215
 20
4.865312515311024
 30
0.0
 10
13.14638511659679
 20
4.815506918252377
 30
0.0
 10
13.13668320193625
 20
4.798382102867874
 30
0.0
 10
13.11853717255289
 20
4.763667020902226
 30
0.0
 10
13.1100857097411
 20
4.746081994605026
 30
0.0
 10
13.08642686243695
 20
4.69270635495292
 30
0.0
 10
13.07288855493866
 20
4.656304866597868
 30
0.0
 10
13.0555558599414
 20
4.600613882413954
 30
0.0
 10
13.05028134467872
 20
4.581866106979709
 30
0.0
 10
13.04076130195232
 20
4.543993951003078
 30
0.0
 10
13.03650707117876
 20
4.524805108785007
 30
0.0
 10
13.02555373598561
 20
4.467181008804026
 30
0.0
 10
13.02066139813748
 20
4.428701310059956
 30
0.0
 10
13.01623950810174
 20
4.351600310307266
 30
0.0
 10
13.01672580073069
 20
4.312978590922445
 30
0.0
 10
13.02142109106502
 20
4.254941295085419
 30
0.0
 10
13.02364251175429
 20
4.235578199829422
 30
0.0
 10
13.02931623271519
 20
4.196819508421943
 30
0.0
 10
13.0327609330278
 20
4.177498087184259
 30
0.0
 10
13.04458415694678
 20
4.120242987478562
 30
0.0
 10
13.05446807371868
 20
4.082769885980296
 30
0.0
 10
13.07718981121413
 20
4.008852157865674
 30
0.0
 10
13.09002620695616
 20
3.972407035106679
 30
0.0
 10
13.11813373816738
 20
3.900364504576837
 30
0.0
 10
13.13339742950976
 20
3.86476450494872
 30
0.0
 10
13.16639695093833
 20
3.794425242075325
 30
0.0
 10
13.18422334607631
 20
3.759520397832743
 30
0.0
 10
13.22259264588359
 20
3.692070305916158
 30
0.0
 10
13.24320922613109
 20
3.659507148095579
 30
0.0
 10
13.28805839212998
 20
3.597314909463757
 30
0.0
 10
13.31231453683429
 20
3.567704944713609
 30
0.0
 10
13.36363521440266
 20
3.510763780310301
 30
0.0
 10
13.39062929192808
 20
3.483375412218352
 30
0.0
 10
13.44613756028
 20
3.429832117046514
 30
0.0
 10
13.47471542690888
 20
3.403631350943985
 30
0.0
 10
13.53260235973722
 20
3.352357947279026
 30
0.0
 10
13.56190688147829
 20
3.327298657796823
 30
0.0
 10
13.65080610496168
 20
3.25369708863225
 30
0.0
 10
13.71133339023854
 20
3.206646229268008
 30
0.0
 10
13.83605395681206
 20
3.118407300035167
 30
0.0
 10
13.90035767640367
 20
3.077395846963752
 30
0.0
 10
14.00092774428706
 20
3.022458701760286
 30
0.0
 10
14.03512468373332
 20
3.005223538375096
 30
0.0
 10
14.10475268014936
 20
2.972726855660584
 30
0.0
 10
14.14018068585467
 20
2.957460456642057
 30
0.0
 10
14.21192985695423
 20
2.928356030925581
 30
0.0
 10
14.24827600572373
 20
2.914499107367117
 30
0.0
 10
14.32136448680898
 20
2.887698952867097
 30
0.0
 10
14.35806368457332
 20
2.874752527067677
 30
0.0
 10
14.46845011325268
 20
2.83675884170139
 30
0.0
 10
14.54239238873622
 20
2.812451650321253
 30
0.0
 10
14.69063509409965
 20
2.764913846956127
 30
0.0
 10
14.76495537488398
 20
2.741781080089531
 30
0.0
 10
14.87662474659242
 20
2.70768615820321
 30
0.0
 10
14.9138782952478
 20
2.696418476901671
 30
0.0
 10
14.98833315529677
 20
2.673716069318731
 30
0.0
 10
15.02550869656763
 20
2.662198935011154
 30
0.0
 10
15.09922082835976
 20
2.637121421564565
 30
0.0
 10
15.13556951624826
 20
2.623476665292482
 30
0.0
 10
15.20637492000139
 20
2.592667199956133
 30
0.0
 10
15.24089607319056
 20
2.575565837355971
 30
0.0
 10
15.30827800379461
 20
2.538167550438788
 30
0.0
 10
15.34115944517891
 20
2.517910396028436
 30
0.0
 10
15.38916017510191
 20
2.484981434099369
 30
0.0
 10
15.40497814029845
 20
2.473541520771431
 30
0.0
 10
15.43586168515126
 20
2.449865506344231
 30
0.0
 10
15.4509221483416
 20
2.43763578444588
 30
0.0
 10
15.49481339865143
 20
2.399621273214519
 30
0.0
 10
15.52234544262075
 20
2.3725022996669
 30
0.0
 10
15.56038816320194
 20
2.328479659698517
 30
0.0
 10
15.57256139999419
 20
2.313197504836771
 30
0.0
 10
15.59558138052891
 20
2.281657877635999
 30
0.0
 10
15.60633909624631
 20
2.265529528544048
 30
0.0
 10
15.63645519558984
 20
2.216116428150559
 30
0.0
 10
15.65367310705729
 20
2.181811523717904
 30
0.0
 10
15.67562736030318
 20
2.128508471839482
 30
0.0
 10
15.68229715824926
 20
2.110431813306929
 30
0.0
 10
15.69434723611307
 20
2.073663909479298
 30
0.0
 10
15.69974427133304
 20
2.05490350187133
 30
0.0
 10
15.71378831467815
 20
1.998169631737036
 30
0.0
 10
15.72027579202771
 20
1.960027395502111
 30
0.0
 10
15.72535409495626
 20
1.902296747450798
 30
0.0
 10
15.72626477708561
 20
1.882966248720517
 30
0.0
 10
15.72637718904232
 20
1.844115256252653
 30
0.0
 10
15.7255643987581
 20
1.824497694015366
 30
0.0
 10
15.72039694439447
 20
1.766432490912091
 30
0.0
 10
15.71333570543804
 20
1.728576493000495
 30
0.0
 10
15.69717855762521
 20
1.673106978491426
 30
0.0
 10
15.69086747487583
 20
1.654835705479156
 30
0.0
 10
15.67639970182279
 20
1.618729079027827
 30
0.0
 10
15.66822243436954
 20
1.600877971016889
 30
0.0
 10
15.64159139153045
 20
1.549051228896257
 30
0.0
 10
15.62090606302139
 20
1.516392708517007
 30
0.0
 10
15.5748642117997
 20
1.454091699546984
 30
0.0
 10
15.5493622771322
 20
1.424314669927399
 30
0.0
 10
15.49580934964427
 20
1.368393545243617
 30
0.0
 10
15.46766460876338
 20
1.342089510844094
 30
0.0
 10
15.40917967629617
 20
1.292139401709488
 30
0.0
 10
15.37883270247951
 20
1.268501537996682
 30
0.0
 10
15.31620105905125
 20
1.223571714877682
 30
0.0
 10
15.28389917491575
 20
1.202275275733994
 30
0.0
 10
15.2175564437744
 20
1.161890518977968
 30
0.0
 10
15.18385208623352
 20
1.14300694382285
 30
0.0
 10
15.08132244823002
 20
1.089834704787943
 30
0.0
 10
15.01108943305184
 20
1.059002842953434
 30
0.0
 10
14.86756569898314
 20
1.004847548486069
 30
0.0
 10
14.79427270392739
 20
0.9815297051539408
 30
0.0
 10
14.68233105587067
 20
0.9514693885872755
 30
0.0
 10
14.64470278395302
 20
0.9422837968722896
 30
0.0
 10
14.56936707880102
 20
0.9256005851242572
 30
0.0
 10
14.53158874828132
 20
0.9180838380822917
 30
0.0
 10
14.34217688501224
 20
0.8843841393752016
 30
0.0
 10
14.18899466405918
 20
0.8697641214502336
 30
0.0
 10
14.03441369139056
 20
0.8655875700460635
 30
0.0
  0
SPLINE
  5
81
330
1F
100
AcDbEntity
  8
0
  6
Continuous
 62
     7
370
    25
100
AcDbSpline
210
0.0
220
0.0
230
1.0
 70
    24
 71
     3
 72
    31
 73
    27
 74
     0
 42
0.000000001
 43
0.00000001
 40
0.0
 40
0.0
 40
0.0
 40
0.0
 40
0.1249999999999995
 40
0.1249999999999995
 40
0.1874999999999992
 40
0.1874999999999992
 40
0.249999999999999
 40
0.249999999999999
 40
0.3749999999999986
 40
0.3749999999999986
 40
0.4374999999999985
 40
0.4374999999999985
 40
0.4999999999999983
 40
0.4999999999999983
 40
0.6249999999999983
 40
0.6249999999999983
 40
0.6874999999999987
 40
0.6874999999999987
 40
0.7499999999999989
 40
0.8124999999999992
 40
0.8124999999999992
 40
0.8749999999999996
 40
0.8749999999999996
 40
0.9374999999999998
 40
0.9374999999999998
 40
1.0
 40
1.0
 40
1.0
 40
1.0
 10
14.03441369139055
 20
0.8655875700460612
 30
0.0
 10
14.03441369139056
 20
0.8655875700460612
 30
0.0
 10
14.03433116765481
 20
0.8684196380927169
 30
0.0
 10
14.03408865987491
 20
0.8767420742811752
 30
0.0
 10
14.03398788991964
 20
0.8802003201270931
 30
0.0
 10
14.03374557427631
 20
0.8885161625296437
 30
0.0
 10
14.03360333979172
 20
0.8933973973594941
 30
0.0
 10
14.03312409112866
 20
0.909844360085168
 30
0.0
 10
14.03273305885876
 20
0.9232638929160253
 30
0.0
 10
14.03204018708292
 20
0.9470420213676842
 30
0.0
 10
14.03179047807783
 20
0.9556115908104058
 30
0.0
 10
14.0312579816768
 20
0.9738859213078435
 30
0.0
 10
14.03097779943453
 20
0.9835012781149597
 30
0.0
 10
14.03009675986565
 20
1.013736990942321
 30
0.0
 10
14.02945579245628
 20
1.035733853747746
 30
0.0
 10
14.02841203344033
 20
1.071553808925142
 30
0.0
 10
14.02805033361831
 20
1.083966704250775
 30
0.0
 10
14.02731519224175
 20
1.109195450307262
 30
0.0
 10
14.02656445306902
 20
1.134959485023143
 30
0.0
 10
14.02578299483722
 20
1.161777743265597
 30
0.0
 10
14.02498597085753
 20
1.189130190326661
 30
0.0
 10
14.0245779762672
 20
1.203131839858316
 30
0.0
 10
14.02375451435519
 20
1.231391589788926
 30
0.0
 10
14.02334019110253
 20
1.245610427771807
 30
0.0
 10
14.02250639451714
 20
1.274224845335105
 30
0.0
 10
14.02208553263512
 20
1.288668077467824
 30
0.0
 10
14.02167074264967
 20
1.302902932880103
 30
0.0
  0
SPLINE
  5
82
330
1F
100
AcDbEntity
  8
0
  6
Continuous
 62
     7
370
    25
100
AcDbSpline
210
0.0
220
0.0
230
1.0
 70
     8
 71
     3
 72
   104
 73
   100
 74
     0
 42
0.000000001
 43
0.00000001
 40
0.0
 40
0.0
 40
0.0
 40
0.0
 40
0.062500000000004
 40
0.062500000000004
 40
0.0937500000000054
 40
0.0937500000000054
 40
0.1250000000000068
 40
0.1250000000000068
 40
0.1562500000000083
 40
0.1562500000000083
 40
0.1718750000000095
 40
0.1718750000000095
 40
0.1875000000000107
 40
0.1875000000000107
 40
0.2031250000000119
 40
0.2031250000000119
 40
0.2109375000000126
 40
0.2109375000000126
 40
0.2187500000000132
 40
0.2187500000000132
 40
0.2265625000000139
 40
0.2265625000000139
 40
0.2304687500000142
 40
0.2304687500000142
 40
0.2343750000000145
 40
0.2343750000000145
 40
0.2382812500000149
 40
0.2382812500000149
 40
0.2421875000000152
 40
0.2421875000000152
 40
0.2500000000000158
 40
0.2500000000000158
 40
0.2578125000000164
 40
0.2578125000000164
 40
0.265625000000017
 40
0.265625000000017
 40
0.2734375000000177
 40
0.2734375000000177
 40
0.2773437500000179
 40
0.2773437500000179
 40
0.2812500000000183
 40
0.2812500000000183
 40
0.2890625000000182
 40
0.2890625000000182
 40
0.2968750000000181
 40
0.2968750000000181
 40
0.3125000000000181
 40
0.3125000000000181
 40
0.3281250000000181
 40
0.3281250000000181
 40
0.3437500000000181
 40
0.3437500000000181
 40
0.3593750000000181
 40
0.3593750000000181
 40
0.375000000000018
 40
0.375000000000018
 40
0.437500000000015
 40
0.437500000000015
 40
0.4687500000000135
 40
0.4687500000000135
 40
0.500000000000012
 40
0.500000000000012
 40
0.5312500000000105
 40
0.5312500000000105
 40
0.5625000000000091
 40
0.5625000000000091
 40
0.5937500000000075
 40
0.5937500000000075
 40
0.6250000000000061
 40
0.6250000000000061
 40
0.6562500000000047
 40
0.6562500000000047
 40
0.6875000000000032
 40
0.6875000000000032
 40
0.7187500000000018
 40
0.7187500000000018
 40
0.7500000000000002
 40
0.7500000000000002
 40
0.7656249999999998
 40
0.7656249999999998
 40
0.7812499999999993
 40
0.7812499999999993
 40
0.8124999999999991
 40
0.8124999999999991
 40
0.8437499999999989
 40
0.8437499999999989
 40
0.859374999999999
 40
0.859374999999999
 40
0.8749999999999991
 40
0.8749999999999991
 40
0.9062499999999994
 40
0.9062499999999994
 40
0.9374999999999997
 40
0.9374999999999997
 40
0.9531249999999999
 40
0.9531249999999999
 40
0.9687500000000001
 40
0.9687500000000001
 40
1.0
 40
1.0
 40
1.0
 40
1.0
 10
14.02167074264972
 20
1.302902932877007
 30
0.0
 10
14.14735453437826
 20
1.306298724789576
 30
0.0
 10
14.27199681747914
 20
1.317532409298584
 30
0.0
 10
14.45705574125908
 20
1.348715292879292
 30
0.0
 10
14.51842559064507
 20
1.361493690917351
 30
0.0
 10
14.64043256341049
 20
1.392554272864273
 30
0.0
 10
14.70039856377124
 20
1.41065616622331
 30
0.0
 10
14.81789417908221
 20
1.452898988071685
 30
0.0
 10
14.87543062010314
 20
1.477022996873108
 30
0.0
 10
14.95936672725739
 20
1.519079913352642
 30
0.0
 10
14.98694741239391
 20
1.534085445411508
 30
0.0
 10
15.04116909524915
 20
1.566425699854801
 30
0.0
 10
15.06764028879266
 20
1.583663317807604
 30
0.0
 10
15.11862386575402
 20
1.62029612073703
 30
0.0
 10
15.14321756054682
 20
1.639716579046973
 30
0.0
 10
15.17836523834619
 20
1.670989828458205
 30
0.0
 10
15.18978915414188
 20
1.681773181856416
 30
0.0
 10
15.21189748552691
 20
1.704248981185065
 30
0.0
 10
15.22263254285719
 20
1.715986651393015
 30
0.0
 10
15.24283058302644
 20
1.740503535656988
 30
0.0
 10
15.25226278551722
 20
1.753206409336955
 30
0.0
 10
15.26476703523352
 20
1.773356475997011
 30
0.0
 10
15.2686562509357
 20
1.780259029102149
 30
0.0
 10
15.27564274692864
 20
1.794591957439502
 30
0.0
 10
15.27872049749048
 20
1.802021126026109
 30
0.0
 10
15.2836050982772
 20
1.817058052385358
 30
0.0
 10
15.285429861414
 20
1.82472083033277
 30
0.0
 10
15.2878982137301
 20
1.840322419524811
 30
0.0
 10
15.28855892706058
 20
1.848304147937488
 30
0.0
 10
15.28915528462626
 20
1.872230263724923
 30
0.0
 10
15.28779921718019
 20
1.887969897228431
 30
0.0
 10
15.28282014271196
 20
1.919176260647544
 30
0.0
 10
15.27912680418659
 20
1.934747188259243
 30
0.0
 10
15.2697936484381
 20
1.965018416749008
 30
0.0
 10
15.26417513815032
 20
1.979708895489312
 30
0.0
 10
15.25083913112199
 20
2.008108340647491
 30
0.0
 10
15.243095273658
 20
2.021804980461326
 30
0.0
 10
15.22944213755998
 20
2.04139724988203
 30
0.0
 10
15.22454526773205
 20
2.047770377131376
 30
0.0
 10
15.21433400445522
 20
2.059945916068603
 30
0.0
 10
15.2089978281301
 20
2.065790914971815
 30
0.0
 10
15.19242825992527
 20
2.082735120312391
 30
0.0
 10
15.18064956032696
 20
2.093260101140512
 30
0.0
 10
15.15614531354987
 20
2.113313003502561
 30
0.0
 10
15.14337248374968
 20
2.122863030187248
 30
0.0
 10
15.1043919362741
 20
2.150063376625767
 30
0.0
 10
15.07747729781692
 20
2.166398711513688
 30
0.0
 10
15.02200863207607
 20
2.195891313629695
 30
0.0
 10
14.99336087927797
 20
2.208866887521038
 30
0.0
 10
14.93437644521611
 20
2.231543931656736
 30
0.0
 10
14.90414829165992
 20
2.241448518042367
 30
0.0
 10
14.84365052148531
 20
2.260554143559439
 30
0.0
 10
14.81327599798835
 20
2.269704678490363
 30
0.0
 10
14.75257102320517
 20
2.28814686183214
 30
0.0
 10
14.7222203482318
 20
2.297373756630124
 30
0.0
 10
14.57056009042658
 20
2.34380637932623
 30
0.0
 10
14.44957009288639
 20
2.382095847420742
 30
0.0
 10
14.2691008392607
 20
2.442496269189456
 30
0.0
 10
14.20910964832362
 20
2.463113065764803
 30
0.0
 10
14.08983868759492
 20
2.506427711550104
 30
0.0
 10
14.03063028455254
 20
2.529133231282162
 30
0.0
 10
13.91461321317329
 20
2.578105691434256
 30
0.0
 10
13.85775566024387
 20
2.604440698392945
 30
0.0
 10
13.74691425890777
 20
2.661726627225063
 30
0.0
 10
13.69292011960024
 20
2.692661019242206
 30
0.0
 10
13.58757047901973
 20
2.758768140433797
 30
0.0
 10
13.53619755514023
 20
2.793912884382756
 30
0.0
 10
13.43544562439755
 20
2.867405120239299
 30
0.0
 10
13.38605568924812
 20
2.905735058484346
 30
0.0
 10
13.28883744527455
 20
2.984903311945394
 30
0.0
 10
13.24099511697237
 20
3.02571910824278
 30
0.0
 10
13.14705389206786
 20
3.110151104401373
 30
0.0
 10
13.10125793978984
 20
3.1534714328666
 30
0.0
 10
13.01413347375149
 20
3.243540202135813
 30
0.0
 10
12.97289856411792
 20
3.290441194075799
 30
0.0
 10
12.89701673157521
 20
3.389527009254161
 30
0.0
 10
12.86239846724825
 20
3.44173481783233
 30
0.0
 10
12.81486278420931
 20
3.52356886217373
 30
0.0
 10
12.79969641140882
 20
3.551474932947345
 30
0.0
 10
12.77073720505705
 20
3.60800051193274
 30
0.0
 10
12.75698704180065
 20
3.636514286137225
 30
0.0
 10
12.71769043951941
 20
3.722727899744222
 30
0.0
 10
12.69403738127427
 20
3.78107921107293
 30
0.0
 10
12.65211204118203
 20
3.899633244076173
 30
0.0
 10
12.63386463076676
 20
3.959844523479701
 30
0.0
 10
12.61174370817699
 20
4.051967921981493
 30
0.0
 10
12.60525360133495
 20
4.08297972668639
 30
0.0
 10
12.5942959077066
 20
4.14569924209161
 30
0.0
 10
12.58985511531738
 20
4.177322037848997
 30
0.0
 10
12.58001941369614
 20
4.271756589269388
 30
0.0
 10
12.57805671586887
 20
4.334593586478295
 30
0.0
 10
12.58348001306937
 20
4.460024687730141
 30
0.0
 10
12.59086286061133
 20
4.522618873549563
 30
0.0
 10
12.60852270833899
 20
4.616339049052613
 30
0.0
 10
12.61550815070482
 20
4.647535827383964
 30
0.0
 10
12.63135263435944
 20
4.708992279873342
 30
0.0
 10
12.64022854806898
 20
4.739369825965031
 30
0.0
 10
12.66968170100705
 20
4.829463515872215
 30
0.0
 10
12.6930451820383
 20
4.888155114747377
 30
0.0
 10
12.72060397101209
 20
4.945304032897132
 30
0.0
  0
SPLINE
  5
83
330
1F
100
AcDbEntity
  8
0
  6
Continuous
 62
     7
370
    25
100
AcDbSpline
210
0.0
220
0.0
230
1.0
 70
     8
 71
     3
 72
    30
 73
    26
 74
     0
 42
0.000000001
 43
0.00000001
 40
0.0
 40
0.0
 40
0.0
 40
0.0
 40
0.1250000000000286
 40
0.1250000000000286
 40
0.1875000000000266
 40
0.1875000000000266
 40
0.2500000000000246
 40
0.2500000000000246
 40
0.3125000000000225
 40
0.3125000000000225
 40
0.3750000000000205
 40
0.3750000000000205
 40
0.4375000000000184
 40
0.4375000000000184
 40
0.5000000000000163
 40
0.5000000000000163
 40
0.5625000000000143
 40
0.5625000000000143
 40
0.6250000000000123
 40
0.6250000000000123
 40
0.7500000000000082
 40
0.7500000000000082
 40
0.8750000000000041
 40
0.8750000000000041
 40
1.0
 40
1.0
 40
1.0
 40
1.0
 10
12.72060397101217
 20
4.945304032897301
 30
0.0
 10
12.72839961803862
 20
4.942241228111301
 30
0.0
 10
12.73656374787203
 20
4.940647614049956
 30
0.0
 10
12.7490589386929
 20
4.940483594701113
 30
0.0
 10
12.75317334457589
 20
4.940804218744113
 30
0.0
 10
12.76130559668351
 20
4.942173691778197
 30
0.0
 10
12.76536243600564
 20
4.943238460790816
 30
0.0
 10
12.77315924977021
 20
4.946062407274455
 30
0.0
 10
12.77689059020866
 20
4.947808658953383
 30
0.0
 10
12.78402554044529
 20
4.951961778873891
 30
0.0
 10
12.78745816889756
 20
4.954398399234276
 30
0.0
 10
12.793748854248
 20
4.959783606468551
 30
0.0
 10
12.79662819218008
 20
4.962735820112566
 30
0.0
 10
12.80185512580663
 20
4.969160220830831
 30
0.0
 10
12.80421050879979
 20
4.972660300207761
 30
0.0
 10
12.80819154372914
 20
4.979915956151109
 30
0.0
 10
12.80984518828613
 20
4.983698539097916
 30
0.0
 10
12.81247184658339
 20
4.991576453640513
 30
0.0
 10
12.81343397314038
 20
4.995670425071387
 30
0.0
 10
12.81517252926885
 20
5.007931613529979
 30
0.0
 10
12.81483607027492
 20
5.016396241947296
 30
0.0
 10
12.81124710051746
 20
5.032477703020382
 30
0.0
 10
12.8079483694846
 20
5.040287855820216
 30
0.0
 10
12.79891294261864
 20
5.054080580518513
 30
0.0
 10
12.79308387899505
 20
5.060234482128352
 30
0.0
 10
12.78630911897137
 20
5.065159218107423
 30
0.0
  0
SPLINE
  5
84
330
1F
100
AcDbEntity
  8
0
  6
Continuous
 62
     7
370
    25
100
AcDbSpline
210
0.0
220
0.0
230
1.0
 70
    24
 71
     3
 72
    18
 73
    14
 74
     0
 42
0.000000001
 43
0.00000001
 40
0.0
 40
0.0
 40
0.0
 40
0.0
 40
0.25
 40
0.25
 40
0.5
 40
0.5
 40
0.625
 40
0.625
 40
0.75
 40
0.75
 40
0.875
 40
0.875
 40
1.0
 40
1.0
 40
1.0
 40
1.0
 10
13.07611980899324
 20
5.284409181359655
 30
0.0
 10
13.14324609480971
 20
5.285318470685397
 30
0.0
 10
13.20869762211718
 20
5.286205073815753
 30
0.0
 10
13.33742436215156
 20
5.287948799827506
 30
0.0
 10
13.40070038472869
 20
5.288805933679093
 30
0.0
 10
13.49432721587183
 20
5.290074198072483
 30
0.0
 10
13.52533968544546
 20
5.290494291441349
 30
0.0
 10
13.58648932676961
 20
5.291322621438347
 30
0.0
 10
13.61667733675379
 20
5.291731546718664
 30
0.0
 10
13.67606206937507
 20
5.292535969350239
 30
0.0
 10
13.70527336816068
 20
5.292931664149283
 30
0.0
 10
13.76211533251771
 20
5.293701642568547
 30
0.0
 10
13.78956812119948
 20
5.294073516677273
 30
0.0
 10
13.81476834955671
 20
5.294414877715989
 30
0.0
  0
SPLINE
  5
85
330
1F
100
AcDbEntity
  8
0
  6
Continuous
 62
     7
370
    25
100
AcDbSpline
210
0.0
220
0.0
230
1.0
 70
     8
 71
     3
 72
   212
 73
   208
 74
     0
 42
0.000000001
 43
0.00000001
 40
0.0
 40
0.0
 40
0.0
 40
0.0
 40
0.0156249999999991
 40
0.0156249999999991
 40
0.0234374999999989
 40
0.0234374999999989
 40
0.0312499999999986
 40
0.0312499999999986
 40
0.0468749999999981
 40
0.0468749999999981
 40
0.0624999999999976
 40
0.0624999999999976
 40
0.078124999999997
 40
0.078124999999997
 40
0.0859374999999968
 40
0.0859374999999968
 40
0.0937499999999965
 40
0.0937499999999965
 40
0.109374999999996
 40
0.109374999999996
 40
0.1249999999999955
 40
0.1249999999999955
 40
0.1406249999999949
 40
0.1406249999999949
 40
0.1562499999999944
 40
0.1562499999999944
 40
0.1718749999999939
 40
0.1718749999999939
 40
0.1874999999999934
 40
0.1874999999999934
 40
0.195312499999993
 40
0.195312499999993
 40
0.2031249999999925
 40
0.2031249999999925
 40
0.2109374999999921
 40
0.2109374999999921
 40
0.2187499999999916
 40
0.2187499999999916
 40
0.2343749999999908
 40
0.2343749999999908
 40
0.2382812499999906
 40
0.2382812499999906
 40
0.2421874999999905
 40
0.2421874999999905
 40
0.2499999999999905
 40
0.2499999999999905
 40
0.2578124999999904
 40
0.2578124999999904
 40
0.2656249999999903
 40
0.2656249999999903
 40
0.2812499999999902
 40
0.2812499999999902
 40
0.2890624999999902
 40
0.2890624999999902
 40
0.2968749999999902
 40
0.2968749999999902
 40
0.3046874999999902
 40
0.3046874999999902
 40
0.3124999999999902
 40
0.3124999999999902
 40
0.3203124999999902
 40
0.3203124999999902
 40
0.3281249999999902
 40
0.3281249999999902
 40
0.3359374999999902
 40
0.3359374999999902
 40
0.3437499999999902
 40
0.3437499999999902
 40
0.3593749999999902
 40
0.3593749999999902
 40
0.3671874999999902
 40
0.3671874999999902
 40
0.3749999999999901
 40
0.3749999999999901
 40
0.3906249999999902
 40
0.3906249999999902
 40
0.4062499999999902
 40
0.4062499999999902
 40
0.4140624999999902
 40
0.4140624999999902
 40
0.4218749999999901
 40
0.4218749999999901
 40
0.4296874999999901
 40
0.4296874999999901
 40
0.43749999999999
 40
0.43749999999999
 40
0.4531249999999901
 40
0.4531249999999901
 40
0.4687499999999901
 40
0.4687499999999901
 40
0.4843749999999901
 40
0.4843749999999901
 40
0.4921874999999901
 40
0.4921874999999901
 40
0.4999999999999901
 40
0.4999999999999901
 40
0.5156249999999903
 40
0.5156249999999903
 40
0.5312499999999906
 40
0.5312499999999906
 40
0.5468749999999908
 40
0.5468749999999908
 40
0.562499999999991
 40
0.562499999999991
 40
0.5781249999999912
 40
0.5781249999999912
 40
0.5937499999999915
 40
0.5937499999999915
 40
0.6015624999999916
 40
0.6015624999999916
 40
0.6093749999999917
 40
0.6093749999999917
 40
0.6249999999999918
 40
0.6249999999999918
 40
0.6328124999999919
 40
0.6328124999999919
 40
0.6406249999999919
 40
0.6406249999999919
 40
0.6445312499999919
 40
0.6445312499999919
 40
0.6484374999999919
 40
0.6484374999999919
 40
0.6523437499999919
 40
0.6523437499999919
 40
0.6562499999999919
 40
0.6562499999999919
 40
0.6601562499999919
 40
0.6601562499999919
 40
0.664062499999992
 40
0.664062499999992
 40
0.6718749999999922
 40
0.6718749999999922
 40
0.6796874999999925
 40
0.6796874999999925
 40
0.6874999999999927
 40
0.6874999999999927
 40
0.6953124999999929
 40
0.6953124999999929
 40
0.7031249999999931
 40
0.7031249999999931
 40
0.7070312499999932
 40
0.7070312499999932
 40
0.7109374999999933
 40
0.7109374999999933
 40
0.7187499999999936
 40
0.7187499999999936
 40
0.7265624999999938
 40
0.7265624999999938
 40
0.734374999999994
 40
0.734374999999994
 40
0.7499999999999943
 40
0.7499999999999943
 40
0.7539062499999944
 40
0.7539062499999944
 40
0.7578124999999946
 40
0.7578124999999946
 40
0.7656249999999947
 40
0.7656249999999947
 40
0.7734374999999948
 40
0.7734374999999948
 40
0.7812499999999949
 40
0.7812499999999949
 40
0.789062499999995
 40
0.789062499999995
 40
0.7968749999999951
 40
0.7968749999999951
 40
0.8124999999999954
 40
0.8124999999999954
 40
0.8203124999999957
 40
0.8203124999999957
 40
0.8281249999999959
 40
0.8281249999999959
 40
0.8437499999999962
 40
0.8437499999999962
 40
0.8593749999999966
 40
0.8593749999999966
 40
0.8671874999999968
 40
0.8671874999999968
 40
0.874999999999997
 40
0.874999999999997
 40
0.8828124999999973
 40
0.8828124999999973
 40
0.8906249999999976
 40
0.8906249999999976
 40
0.8984374999999978
 40
0.8984374999999978
 40
0.906249999999998
 40
0.906249999999998
 40
0.9140624999999982
 40
0.9140624999999982
 40
0.9218749999999984
 40
0.9218749999999984
 40
0.9296874999999987
 40
0.9296874999999987
 40
0.9374999999999989
 40
0.9374999999999989
 40
0.9453124999999991
 40
0.9453124999999991
 40
0.9531249999999993
 40
0.9531249999999993
 40
0.9687499999999997
 40
0.9687499999999997
 40
0.9765624999999998
 40
0.9765624999999998
 40
0.9843749999999999
 40
0.9843749999999999
 40
1.0
 40
1.0
 40
1.0
 40
1.0
 10
14.03441369139056
 20
0.865587570046059
 30
0.0
 10
13.93841161260988
 20
0.8625865640817588
 30
0.0
 10
13.84290234045371
 20
0.8627008713487899
 30
0.0
 10
13.70053603978582
 20
0.8685466243327725
 30
0.0
 10
13.65323799500787
 20
0.8714901533676888
 30
0.0
 10
13.55901438639371
 20
0.8797318770376499
 30
0.0
 10
13.51208377422699
 20
0.8849981582809567
 30
0.0
 10
13.37183548941291
 20
0.9042331038720087
 30
0.0
 10
13.27912049865655
 20
0.9220116660090453
 30
0.0
 10
13.0943019347968
 20
0.961433911832826
 30
0.0
 10
13.00223886677741
 20
0.9833336513796557
 30
0.0
 10
12.8186757872038
 20
1.030692533226237
 30
0.0
 10
12.72714547570528
 20
1.055960132205159
 30
0.0
 10
12.59034454685586
 20
1.096987791440386
 30
0.0
 10
12.54486876107253
 20
1.111191059497016
 30
0.0
 10
12.45441542592623
 20
1.140766041161089
 30
0.0
 10
12.40942316857301
 20
1.156180539598257
 30
0.0
 10
12.27505959924978
 20
1.2040642482902
 30
0.0
 10
12.18627459742144
 20
1.238101738792712
 30
0.0
 10
12.00943665806119
 20
1.308134867703792
 30
0.0
 10
11.92137381637386
 20
1.344104014175411
 30
0.0
 10
11.74544788151403
 20
1.416576600537859
 30
0.0
 10
11.65754735655933
 20
1.452979916756102
 30
0.0
 10
11.48165492521496
 20
1.525542119343481
 30
0.0
 10
11.39371109780229
 20
1.561829608826539
 30
0.0
 10
11.21773282531289
 20
1.63416220090128
 30
0.0
 10
11.12961907618763
 20
1.669995178605352
 30
0.0
 10
10.9514912046489
 20
1.736577957586098
 30
0.0
 10
10.86155108401262
 20
1.767525701073182
 30
0.0
 10
10.72288654263608
 20
1.803905038549111
 30
0.0
 10
10.67594120750373
 20
1.81448912968725
 30
0.0
 10
10.58188947859705
 20
1.832765520545131
 30
0.0
 10
10.53476432878048
 20
1.840488565872545
 30
0.0
 10
10.44036694921941
 20
1.853838273252038
 30
0.0
 10
10.39309452918948
 20
1.85946222309744
 30
0.0
 10
10.29844326387932
 20
1.869193205300169
 30
0.0
 10
10.25106721385625
 20
1.873340079466415
 30
0.0
 10
10.10881155067636
 20
1.883963211595328
 30
0.0
 10
10.01377604044533
 20
1.888217412316013
 30
0.0
 10
9.894242510293752
 20
1.882999900457662
 30
0.0
 10
9.870298690644166
 20
1.881427404281063
 30
0.0
 10
9.822329690234678
 20
1.8771227426695
 30
0.0
 10
9.798253200244734
 20
1.874403507019303
 30
0.0
 10
9.726501153598731
 20
1.864915627708051
 30
0.0
 10
9.679184103048783
 20
1.856826125916613
 30
0.0
 10
9.585148134924944
 20
1.838608561269836
 30
0.0
 10
9.538430079778278
 20
1.828477559083935
 30
0.0
 10
9.445219185832118
 20
1.807447970755534
 30
0.0
 10
9.398722828325967
 20
1.7965613770941
 30
0.0
 10
9.259755268967695
 20
1.762124171247493
 30
0.0
 10
9.167792133403703
 20
1.736841963924903
 30
0.0
 10
9.031812498436397
 20
1.692221292914045
 30
0.0
 10
8.986814305140696
 20
1.676228645333195
 30
0.0
 10
8.897536402785509
 20
1.641794607086621
 30
0.0
 10
8.85327319490724
 20
1.623296976977679
 30
0.0
 10
8.76500468974041
 20
1.585422704053273
 30
0.0
 10
8.72096808395302
 20
1.566152767086217
 30
0.0
 10
8.63287218231446
 20
1.527690225588929
 30
0.0
 10
8.58884263832106
 20
1.50840738032902
 30
0.0
 10
8.50081544542691
 20
1.469772844785828
 30
0.0
 10
8.456816589696086
 20
1.450420554982842
 30
0.0
 10
8.368835928508224
 20
1.411675466136106
 30
0.0
 10
8.324835787154655
 20
1.392326230806143
 30
0.0
 10
8.237040157593764
 20
1.353141530794235
 30
0.0
 10
8.19326305125637
 20
1.333262393171672
 30
0.0
 10
8.106126506068192
 20
1.292511794108973
 30
0.0
 10
8.062750301892011
 20
1.27168016490915
 30
0.0
 10
7.93319890713018
 20
1.207813882704686
 30
0.0
 10
7.84756371998451
 20
1.163496251512281
 30
0.0
 10
7.71883478755886
 20
1.097675905389976
 30
0.0
 10
7.675870518476103
 20
1.075865571795873
 30
0.0
 10
7.589679965873324
 20
1.032867416952976
 30
0.0
 10
7.54646876870511
 20
1.011643752487494
 30
0.0
 10
7.416462371439884
 20
0.9488584972617824
 30
0.0
 10
7.329270094735439
 20
0.9082403090588105
 30
0.0
 10
7.153855827684809
 20
0.829450398812495
 30
0.0
 10
7.065683651299342
 20
0.791160325254489
 30
0.0
 10
6.933136417748536
 20
0.7344117677453824
 30
0.0
 10
6.888913067649848
 20
0.7155928474654734
 30
0.0
 10
6.800146858272087
 20
0.6787141193091859
 30
0.0
 10
6.75557210473602
 20
0.6607300880538549
 30
0.0
 10
6.666086398918925
 20
0.6255607901891141
 30
0.0
 10
6.621201250606045
 20
0.6083142166956271
 30
0.0
 10
6.531336383762639
 20
0.5740457562893064
 30
0.0
 10
6.486345073598505
 20
0.557051409595597
 30
0.0
 10
6.351244669334069
 20
0.50636885480557
 30
0.0
 10
6.261037099878177
 20
0.4729146113915065
 30
0.0
 10
6.080442061780412
 20
0.4064335417139178
 30
0.0
 10
5.989963266090779
 20
0.3736236966797066
 30
0.0
 10
5.80759966112454
 20
0.3113445126714781
 30
0.0
 10
5.715666936256041
 20
0.2819890149338623
 30
0.0
 10
5.576457938039844
 20
0.2410679468904544
 30
0.0
 10
5.529830974925537
 20
0.2279410626010622
 30
0.0
 10
5.436565992882644
 20
0.202880839956125
 30
0.0
 10
5.389874851821925
 20
0.1909302956217411
 30
0.0
 10
5.24961695267965
 20
0.1569016141101499
 30
0.0
 10
5.155865295701842
 20
0.1366506077879088
 30
0.0
 10
4.967818086051053
 20
0.101523254628399
 30
0.0
 10
4.873531782296419
 20
0.0865555119827132
 30
0.0
 10
4.684640977100383
 20
0.0597643873298569
 30
0.0
 10
4.590062053804042
 20
0.047688247631785
 30
0.0
 10
4.40057637080295
 20
0.0267755766341482
 30
0.0
 10
4.305656260028742
 20
0.0180709777118681
 30
0.0
 10
4.115331530062744
 20
0.0054495871349241
 30
0.0
 10
4.019931767884287
 20
0.0014847995261692
 30
0.0
 10
3.828566758248659
 20
-0.0008567726167692
 30
0.0
 10
3.732605131707506
 20
0.000730661741055
 30
0.0
 10
3.588101434582509
 20
0.0086580365132587
 30
0.0
 10
3.53983989130127
 20
0.0122258668684967
 30
0.0
 10
3.44310637557131
 20
0.0214409430458499
 30
0.0
 10
3.394554140633421
 20
0.0271060489324751
 30
0.0
 10
3.250456326756205
 20
0.0469950302528423
 30
0.0
 10
3.155867059934355
 20
0.0641346074093213
 30
0.0
 10
3.016200958152816
 20
0.0956745707249809
 30
0.0
 10
2.970013833498257
 20
0.1071560025466044
 30
0.0
 10
2.878298594892578
 20
0.131851406949442
 30
0.0
 10
2.832681322836552
 20
0.144830982653642
 30
0.0
 10
2.765314291623705
 20
0.1670841361076551
 30
0.0
 10
2.743042271159536
 20
0.1749846875964219
 30
0.0
 10
2.698975740464224
 20
0.192041166150583
 30
0.0
 10
2.677194560693314
 20
0.2012321390286956
 30
0.0
 10
2.634105399297196
 20
0.220858123873386
 30
0.0
 10
2.61278137579135
 20
0.2312509616963147
 30
0.0
 10
2.570532372349666
 20
0.2530857238688125
 30
0.0
 10
2.549621503718841
 20
0.2645647468739607
 30
0.0
 10
2.507873286910066
 20
0.2877160783356066
 30
0.0
 10
2.486993874990651
 20
0.2992778011123722
 30
0.0
 10
2.445087361145682
 20
0.3220129692766757
 30
0.0
 10
2.424085495312338
 20
0.3332527604126777
 30
0.0
 10
2.361013303603706
 20
0.3667970574825193
 30
0.0
 10
2.318896094405055
 20
0.38897830704398
 30
0.0
 10
2.234802542875301
 20
0.4337111455080109
 30
0.0
 10
2.192799653319978
 20
0.4561929416928618
 30
0.0
 10
2.108934016137368
 20
0.5015249675358855
 30
0.0
 10
2.06706797472415
 20
0.5243665378227621
 30
0.0
 10
1.983245257369138
 20
0.5698113999980629
 30
0.0
 10
1.941263454774832
 20
0.5923322151918736
 30
0.0
 10
1.857135479406802
 20
0.6371930322827388
 30
0.0
 10
1.815017205198755
 20
0.6595527507121546
 30
0.0
 10
1.752029393535461
 20
0.6933392187477474
 30
0.0
 10
1.731068515500516
 20
0.704647027672208
 30
0.0
 10
1.689306915773155
 20
0.7274711958130853
 30
0.0
 10
1.668524320752201
 20
0.7390111589815231
 30
0.0
 10
1.606919711949149
 20
0.774598788031243
 30
0.0
 10
1.566826995102622
 20
0.7995961202599787
 30
0.0
 10
1.490368956060136
 20
0.8544444747450138
 30
0.0
 10
1.453795918225742
 20
0.8840250165672983
 30
0.0
 10
1.382209753799117
 20
0.945217365036167
 30
0.0
 10
1.347315421172494
 20
0.9769838612555668
 30
0.0
 10
1.243870615620299
 20
1.073895683008708
 30
0.0
 10
1.17623274738716
 20
1.140229372187852
 30
0.0
 10
1.094591677310862
 20
1.22693092609799
 30
0.0
 10
1.078419739019734
 20
1.244474733959046
 30
0.0
 10
1.04646054507017
 20
1.280063270681775
 30
0.0
 10
1.030648766563909
 20
1.298140343968208
 30
0.0
 10
0.9842129528874468
 20
1.352905507203364
 30
0.0
 10
0.9544805950293436
 20
1.390158816830525
 30
0.0
 10
0.8963407976296719
 20
1.465469354397426
 30
0.0
 10
0.8678488352421919
 20
1.503475296561417
 30
0.0
 10
0.8117657188108062
 20
1.580033762753722
 30
0.0
 10
0.7842008157491522
 20
1.618602215043488
 30
0.0
 10
0.7302077049237274
 20
1.696428830191877
 30
0.0
 10
0.7038698067300752
 20
1.735741790026518
 30
0.0
 10
0.6537524011518207
 20
1.815920059902185
 30
0.0
 10
0.6300795059059704
 20
1.856850058799586
 30
0.0
 10
0.5627306262814081
 20
1.981866777170393
 30
0.0
 10
0.5227760812129606
 20
2.06821154770499
 30
0.0
 10
0.4672262953514418
 20
2.200387581053556
 30
0.0
 10
0.4494082818816316
 20
2.244881447534897
 30
0.0
 10
0.4144775001364864
 20
2.334250452709383
 30
0.0
 10
0.3972901217729061
 20
2.378995129468553
 30
0.0
 10
0.3466352885403085
 20
2.513425539895258
 30
0.0
 10
0.3144254972493199
 20
2.603383487444962
 30
0.0
 10
0.2596597066690474
 20
2.785388889026362
 30
0.0
 10
0.237662738217037
 20
2.877557341993795
 30
0.0
 10
0.2107210688398366
 20
3.017120327223786
 30
0.0
 10
0.2026668116664373
 20
3.063841814331077
 30
0.0
 10
0.1871531186525089
 20
3.157413534123602
 30
0.0
 10
0.1796293718298288
 20
3.204249847075117
 30
0.0
 10
0.1647738418037472
 20
3.297964022374149
 30
0.0
 10
0.1574151427397697
 20
3.344836058942001
 30
0.0
 10
0.1428883072285259
 20
3.438621378234938
 30
0.0
 10
0.1357614422342853
 20
3.48554359392322
 30
0.0
 10
0.1221582499244501
 20
3.579528830352972
 30
0.0
 10
0.1156836831907982
 20
3.626592232162046
 30
0.0
 10
0.1038787129854342
 20
3.720966683186713
 30
0.0
 10
0.0986520223194836
 20
3.768300180428938
 30
0.0
 10
0.089033252192995
 20
3.863147821598462
 30
0.0
 10
0.0845662088949257
 20
3.910647306418086
 30
0.0
 10
0.0756012685984728
 20
4.005611511810325
 30
0.0
 10
0.0711695157929702
 20
4.05309497842997
 30
0.0
 10
0.0624362471938213
 20
4.148065414087053
 30
0.0
 10
0.0581348081928778
 20
4.195552385189656
 30
0.0
 10
0.0496867448272032
 20
4.290530490769997
 30
0.0
 10
0.0454806655592503
 20
4.338020026348102
 30
0.0
 10
0.0376081689055167
 20
4.433013610440028
 30
0.0
 10
0.034006003689022
 20
4.480519386864676
 30
0.0
 10
0.0283265378141032
 20
4.57557194735606
 30
0.0
 10
0.0261785380373444
 20
4.623116830136477
 30
0.0
 10
0.0210041019899754
 20
4.765785620393115
 30
0.0
 10
0.0191860112097269
 20
4.86094202347633
 30
0.0
 10
0.016739325705002
 20
5.003684170161511
 30
0.0
 10
0.0159707833538657
 20
5.051266150201553
 30
0.0
 10
0.0141568966270404
 20
5.146422666342893
 30
0.0
 10
0.01309930379388
 20
5.193996873050768
 30
0.0
 10
0.009741175888358
 20
5.336714508638511
 30
0.0
 10
0.0072634774508065
 20
5.431853173126782
 30
0.0
 10
0.0052529401536981
 20
5.527004400814025
 30
0.0
  0
SPLINE
  5
87
330
1F
100
AcDbEntity
  8
0
  6
Continuous
 62
     7
370
    25
100
AcDbSpline
210
0.0
220
0.0
230
1.0
 70
     8
 71
     3
 72
   222
 73
   218
 74
     0
 42
0.000000001
 43
0.00000001
 40
0.0
 40
0.0
 40
0.0
 40
0.0
 40
0.0156249999999993
 40
0.0156249999999993
 40
0.023437499999999
 40
0.023437499999999
 40
0.0312499999999987
 40
0.0312499999999987
 40
0.0468749999999982
 40
0.0468749999999982
 40
0.0546874999999979
 40
0.0546874999999979
 40
0.0624999999999975
 40
0.0624999999999975
 40
0.0703124999999972
 40
0.0703124999999972
 40
0.0781249999999969
 40
0.0781249999999969
 40
0.0859374999999966
 40
0.0859374999999966
 40
0.0937499999999962
 40
0.0937499999999962
 40
0.1015624999999959
 40
0.1015624999999959
 40
0.1093749999999956
 40
0.1093749999999956
 40
0.1249999999999949
 40
0.1249999999999949
 40
0.1328124999999946
 40
0.1328124999999946
 40
0.1406249999999942
 40
0.1406249999999942
 40
0.1484374999999938
 40
0.1484374999999938
 40
0.1562499999999935
 40
0.1562499999999935
 40
0.1640624999999931
 40
0.1640624999999931
 40
0.1718749999999928
 40
0.1718749999999928
 40
0.1796874999999924
 40
0.1796874999999924
 40
0.187499999999992
 40
0.187499999999992
 40
0.2031249999999913
 40
0.2031249999999913
 40
0.210937499999991
 40
0.210937499999991
 40
0.2187499999999906
 40
0.2187499999999906
 40
0.2265624999999903
 40
0.2265624999999903
 40
0.2343749999999899
 40
0.2343749999999899
 40
0.2382812499999897
 40
0.2382812499999897
 40
0.2421874999999895
 40
0.2421874999999895
 40
0.2499999999999892
 40
0.2499999999999892
 40
0.2578124999999888
 40
0.2578124999999888
 40
0.2656249999999885
 40
0.2656249999999885
 40
0.2695312499999883
 40
0.2695312499999883
 40
0.2734374999999881
 40
0.2734374999999881
 40
0.2773437499999879
 40
0.2773437499999879
 40
0.2812499999999877
 40
0.2812499999999877
 40
0.2890624999999873
 40
0.2890624999999873
 40
0.296874999999987
 40
0.296874999999987
 40
0.3046874999999866
 40
0.3046874999999866
 40
0.3124999999999862
 40
0.3124999999999862
 40
0.3203124999999859
 40
0.3203124999999859
 40
0.3281249999999855
 40
0.3281249999999855
 40
0.3320312499999853
 40
0.3320312499999853
 40
0.3359374999999851
 40
0.3359374999999851
 40
0.339843749999985
 40
0.339843749999985
 40
0.3437499999999848
 40
0.3437499999999848
 40
0.3476562499999846
 40
0.3476562499999846
 40
0.3515624999999844
 40
0.3515624999999844
 40
0.3593749999999842
 40
0.3593749999999842
 40
0.3749999999999836
 40
0.3749999999999836
 40
0.3906249999999831
 40
0.3906249999999831
 40
0.4062499999999826
 40
0.4062499999999826
 40
0.4218749999999821
 40
0.4218749999999821
 40
0.4374999999999816
 40
0.4374999999999816
 40
0.4531249999999811
 40
0.4531249999999811
 40
0.460937499999981
 40
0.460937499999981
 40
0.4687499999999808
 40
0.4687499999999808
 40
0.4843749999999807
 40
0.4843749999999807
 40
0.4921874999999807
 40
0.4921874999999807
 40
0.4999999999999807
 40
0.4999999999999807
 40
0.5156249999999809
 40
0.5156249999999809
 40
0.523437499999981
 40
0.523437499999981
 40
0.5312499999999811
 40
0.5312499999999811
 40
0.5468749999999815
 40
0.5468749999999815
 40
0.5546874999999817
 40
0.5546874999999817
 40
0.5624999999999819
 40
0.5624999999999819
 40
0.570312499999982
 40
0.570312499999982
 40
0.5781249999999822
 40
0.5781249999999822
 40
0.5937499999999826
 40
0.5937499999999826
 40
0.609374999999983
 40
0.609374999999983
 40
0.6249999999999833
 40
0.6249999999999833
 40
0.6328124999999836
 40
0.6328124999999836
 40
0.6406249999999838
 40
0.6406249999999838
 40
0.6562499999999841
 40
0.6562499999999841
 40
0.6718749999999845
 40
0.6718749999999845
 40
0.6796874999999848
 40
0.6796874999999848
 40
0.6874999999999851
 40
0.6874999999999851
 40
0.6953124999999855
 40
0.6953124999999855
 40
0.7031249999999857
 40
0.7031249999999857
 40
0.7187499999999862
 40
0.7187499999999862
 40
0.7265624999999863
 40
0.7265624999999863
 40
0.7343749999999866
 40
0.7343749999999866
 40
0.7421874999999868
 40
0.7421874999999868
 40
0.7460937499999868
 40
0.7460937499999868
 40
0.7499999999999868
 40
0.7499999999999868
 40
0.757812499999987
 40
0.757812499999987
 40
0.7656249999999872
 40
0.7656249999999872
 40
0.7734374999999875
 40
0.7734374999999875
 40
0.7812499999999876
 40
0.7812499999999876
 40
0.7968749999999876
 40
0.7968749999999876
 40
0.8046874999999875
 40
0.8046874999999875
 40
0.8124999999999875
 40
0.8124999999999875
 40
0.8281249999999878
 40
0.8281249999999878
 40
0.843749999999988
 40
0.843749999999988
 40
0.8515624999999883
 40
0.8515624999999883
 40
0.8593749999999886
 40
0.8593749999999886
 40
0.8749999999999897
 40
0.8749999999999897
 40
0.8906249999999907
 40
0.8906249999999907
 40
0.9062499999999918
 40
0.9062499999999918
 40
0.9140624999999923
 40
0.9140624999999923
 40
0.921874999999993
 40
0.921874999999993
 40
0.9296874999999937
 40
0.9296874999999937
 40
0.9374999999999942
 40
0.9374999999999942
 40
0.953124999999996
 40
0.953124999999996
 40
0.9609374999999967
 40
0.9609374999999967
 40
0.9687499999999974
 40
0.9687499999999974
 40
0.9765624999999982
 40
0.9765624999999982
 40
0.984374999999999
 40
0.984374999999999
 40
1.0
 40
1.0
 40
1.0
 40
1.0
 10
0.4426553068148336
 20
5.536246675384588
 30
0.0
 10
0.4445906598899683
 20
5.444653636363471
 30
0.0
 10
0.4469613369996626
 20
5.353081983574024
 30
0.0
 10
0.4502161983730208
 20
5.215709709536064
 30
0.0
 10
0.4512503080240456
 20
5.169916453695417
 30
0.0
 10
0.4530609242858052
 20
5.078317286709438
 30
0.0
 10
0.4538223691952816
 20
5.032510635625552
 30
0.0
 10
0.4561478789619058
 20
4.895092705186418
 30
0.0
 10
0.457754699398226
 20
4.80348352629117
 30
0.0
 10
0.4623009563719995
 20
4.666174694846078
 30
0.0
 10
0.4641775974969583
 20
4.620422830180421
 30
0.0
 10
0.4692328099820645
 20
4.528983060978613
 30
0.0
 10
0.4725335527512543
 20
4.483301158376305
 30
0.0
 10
0.4799428719434171
 20
4.391977039741468
 30
0.0
 10
0.4839749229906318
 20
4.346331064234878
 30
0.0
 10
0.4920548610880217
 20
4.25503989119948
 30
0.0
 10
0.4961682365817167
 20
4.209397910931643
 30
0.0
 10
0.5045202692153099
 20
4.118120105126918
 30
0.0
 10
0.5087588616693105
 20
4.072484276412199
 30
0.0
 10
0.5173356125585784
 20
3.981217510376229
 30
0.0
 10
0.5216184667826199
 20
3.935572319588855
 30
0.0
 10
0.5305921841849107
 20
3.844363422981121
 30
0.0
 10
0.5353426728685132
 20
3.798815569604799
 30
0.0
 10
0.546241330132244
 20
3.70801991063781
 30
0.0
 10
0.5523134898977121
 20
3.66275578780842
 30
0.0
 10
0.5715907900825311
 20
3.527191151692564
 30
0.0
 10
0.5857662235187042
 20
3.437098936652253
 30
0.0
 10
0.6070762951508919
 20
3.301970686988731
 30
0.0
 10
0.6142572477509342
 20
3.256944594938499
 30
0.0
 10
0.628977963110077
 20
3.16696943862813
 30
0.0
 10
0.6364711723516833
 20
3.122010380463189
 30
0.0
 10
0.6530988214517706
 20
3.032444596318648
 30
0.0
 10
0.6623252229164601
 20
2.987857612253044
 30
0.0
 10
0.6834474500170625
 20
2.89925670438661
 30
0.0
 10
0.6953459772877684
 20
2.855243360560876
 30
0.0
 10
0.7220287618959649
 20
2.767836168774461
 30
0.0
 10
0.7366596745450769
 20
2.724409401449121
 30
0.0
 10
0.767347396153896
 20
2.637861971960027
 30
0.0
 10
0.7834175985116038
 20
2.594744185032176
 30
0.0
 10
0.8161705449424795
 20
2.508640108943453
 30
0.0
 10
0.8327406343237264
 20
2.465592336854264
 30
0.0
 10
0.8666349781887236
 20
2.379831447518222
 30
0.0
 10
0.8839929155319022
 20
2.337200282349394
 30
0.0
 10
0.9385237691052655
 20
2.21079788144242
 30
0.0
 10
0.9782679424617431
 20
2.128587053840075
 30
0.0
 10
1.047106951817355
 20
2.010867784022025
 30
0.0
 10
1.071779736500265
 20
1.972675749885379
 30
0.0
 10
1.122919525588888
 20
1.897380532285269
 30
0.0
 10
1.14925510292327
 20
1.860197590220742
 30
0.0
 10
1.202759457150688
 20
1.786337346448212
 30
0.0
 10
1.230003159693958
 20
1.749705514558459
 30
0.0
 10
1.285480553903752
 20
1.677042641367532
 30
0.0
 10
1.313773147863311
 20
1.641047345856357
 30
0.0
 10
1.358167228142289
 20
1.588240940225755
 30
0.0
 10
1.373346079166462
 20
1.570832481972431
 30
0.0
 10
1.40408566972423
 20
1.536635878064653
 30
0.0
 10
1.41966454022096
 20
1.519811465127283
 30
0.0
 10
1.466878927199006
 20
1.469964113303704
 30
0.0
 10
1.498962151500308
 20
1.437527672691958
 30
0.0
 10
1.563974519724775
 20
1.373762948119774
 30
0.0
 10
1.596878146739395
 20
1.34240123695042
 30
0.0
 10
1.663501067448506
 20
1.28074633983937
 30
0.0
 10
1.697336961344243
 20
1.250605900429639
 30
0.0
 10
1.749887045180983
 20
1.207748323769606
 30
0.0
 10
1.767683545976861
 20
1.193829011627368
 30
0.0
 10
1.80452916082493
 20
1.167631313591241
 30
0.0
 10
1.823643528615891
 20
1.155438410245285
 30
0.0
 10
1.862566185116903
 20
1.131961641554261
 30
0.0
 10
1.882396754652978
 20
1.12070696414255
 30
0.0
 10
1.922361972005623
 20
1.098595952566336
 30
0.0
 10
1.942474635785372
 20
1.087710819263013
 30
0.0
 10
2.002900211646077
 20
1.055170155277681
 30
0.0
 10
2.043345118664518
 20
1.033687538267537
 30
0.0
 10
2.124164469467663
 20
0.9906299972488976
 30
0.0
 10
2.164534501023475
 20
0.9690791268152634
 30
0.0
 10
2.24508914797898
 20
0.9255660196052614
 30
0.0
 10
2.28530049838536
 20
0.9036396610897783
 30
0.0
 10
2.365791355844048
 20
0.859962369166659
 30
0.0
 10
2.406090879506468
 20
0.8382629555476012
 30
0.0
 10
2.486804931935727
 20
0.7951601344079327
 30
0.0
 10
2.527220019561227
 20
0.7737581653067088
 30
0.0
 10
2.60805869763524
 20
0.7309761121108544
 30
0.0
 10
2.648455262626532
 20
0.7095264684936836
 30
0.0
 10
2.708763332649918
 20
0.6766138803685672
 30
0.0
 10
2.728789358773696
 20
0.6654456961820143
 30
0.0
 10
2.768904751169122
 20
0.6432723559644323
 30
0.0
 10
2.789031385282173
 20
0.6323631218352103
 30
0.0
 10
2.829915078298045
 20
0.6121672735755486
 30
0.0
 10
2.850621749264768
 20
0.6027509683635843
 30
0.0
 10
2.892821711711422
 20
0.585943002587097
 30
0.0
 10
2.914281663687032
 20
0.5784655310783617
 30
0.0
 10
2.957619459577528
 20
0.5645861799935297
 30
0.0
 10
2.97949592676536
 20
0.5581807569259919
 30
0.0
 10
3.023420839927814
 20
0.5458125587060092
 30
0.0
 10
3.045467703705793
 20
0.539845711213849
 30
0.0
 10
3.111881202611981
 20
0.522647592391613
 30
0.0
 10
3.15652413033118
 20
0.5121274572524748
 30
0.0
 10
3.291684869534871
 20
0.4837379241587544
 30
0.0
 10
3.383385245009765
 20
0.4689122706949567
 30
0.0
 10
3.570024178972423
 20
0.4475955670408766
 30
0.0
 10
3.662915542299555
 20
0.4415181985426664
 30
0.0
 10
3.847934820765612
 20
0.4363745398827231
 30
0.0
 10
3.940095823981324
 20
0.4371939541487257
 30
0.0
 10
4.123893374642266
 20
0.4439342558066353
 30
0.0
 10
4.215521940303278
 20
0.4499327834114361
 30
0.0
 10
4.398342171169176
 20
0.4661796458708202
 30
0.0
 10
4.489537860708651
 20
0.4763888353180721
 30
0.0
 10
4.671652961484391
 20
0.4994946216517285
 30
0.0
 10
4.762595144340939
 20
0.5121697149996811
 30
0.0
 10
4.898697332917289
 20
0.5342083401874395
 30
0.0
 10
4.944011366125833
 20
0.5420736196698734
 30
0.0
 10
5.034503014413164
 20
0.559131141673397
 30
0.0
 10
5.079678889811101
 20
0.5683403063747072
 30
0.0
 10
5.215008200454037
 20
0.5978968505725595
 30
0.0
 10
5.304964835780266
 20
0.6201585373439444
 30
0.0
 10
5.439547043273651
 20
0.6569822847154447
 30
0.0
 10
5.48437568652912
 20
0.6698423070587799
 30
0.0
 10
5.573507947279166
 20
0.6965455491439826
 30
0.0
 10
5.61786123752027
 20
0.7104015033514101
 30
0.0
 10
5.75032217803387
 20
0.7533885549329971
 30
0.0
 10
5.837774465470819
 20
0.7840725606185255
 30
0.0
 10
5.968410084587326
 20
0.8313847838678938
 30
0.0
 10
6.011867630337224
 20
0.8473632402829191
 30
0.0
 10
6.098730936298962
 20
0.8794428610055982
 30
0.0
 10
6.142146423056539
 20
0.8955209778761644
 30
0.0
 10
6.272320512511633
 20
0.9439268140194375
 30
0.0
 10
6.358995406376823
 20
0.9764528847005514
 30
0.0
 10
6.488654856774899
 20
1.026078178563482
 30
0.0
 10
6.531818375702873
 20
1.042753343230436
 30
0.0
 10
6.617823202111303
 20
1.076867165407857
 30
0.0
 10
6.660628050805244
 20
1.09439221346344
 30
0.0
 10
6.745932613604582
 20
1.130165338121424
 30
0.0
 10
6.788461813624869
 20
1.148343546675432
 30
0.0
 10
6.873459295330509
 20
1.184844312201633
 30
0.0
 10
6.915906292027505
 20
1.203217304800532
 30
0.0
 10
7.042993572705913
 20
1.258937457143687
 30
0.0
 10
7.127362165593262
 20
1.296928399744125
 30
0.0
 10
7.294973835223082
 20
1.375577240227077
 30
0.0
 10
7.378268942391714
 20
1.416111849944848
 30
0.0
 10
7.543979478409771
 20
1.499265502154288
 30
0.0
 10
7.626338729195052
 20
1.542017660803872
 30
0.0
 10
7.75033370094085
 20
1.605065162185191
 30
0.0
 10
7.791741090431376
 20
1.625901545418875
 30
0.0
 10
7.874889448137442
 20
1.666783883826381
 30
0.0
 10
7.916632673835144
 20
1.686824489806465
 30
0.0
 10
8.042364675581258
 20
1.745756029497191
 30
0.0
 10
8.126969193183895
 20
1.783187939098872
 30
0.0
 10
8.296290280086078
 20
1.857786247348641
 30
0.0
 10
8.38097799799876
 20
1.895021010505707
 30
0.0
 10
8.508116724627957
 20
1.950619259621783
 30
0.0
 10
8.55050771528537
 20
1.969122460034557
 30
0.0
 10
8.635339768663554
 20
2.005948313265238
 30
0.0
 10
8.677806562409488
 20
2.024186842632405
 30
0.0
 10
8.763192601108118
 20
2.059109620889003
 30
0.0
 10
8.806133642726467
 20
2.075718992904603
 30
0.0
 10
8.892599376161371
 20
2.106932755856258
 30
0.0
 10
8.936110015554922
 20
2.121585420299866
 30
0.0
 10
9.067399159026737
 20
2.162942159683716
 30
0.0
 10
9.155921490800147
 20
2.187091004693842
 30
0.0
 10
9.289591777053293
 20
2.220267936653898
 30
0.0
 10
9.334297715809548
 20
2.230814455646077
 30
0.0
 10
9.423912700446985
 20
2.25120977101535
 30
0.0
 10
9.468808128688122
 20
2.261105347314257
 30
0.0
 10
9.559022887283577
 20
2.279440292548285
 30
0.0
 10
9.604343438850862
 20
2.287875466318383
 30
0.0
 10
9.672823729938457
 20
2.298812446965238
 30
0.0
 10
9.695733626136283
 20
2.302172526718403
 30
0.0
 10
9.741748725367652
 20
2.308221759509494
 30
0.0
 10
9.764888624375846
 20
2.310913272811264
 30
0.0
 10
9.834137849812942
 20
2.317789204479625
 30
0.0
 10
9.88019268578796
 20
2.320716419509972
 30
0.0
 10
9.972099638712374
 20
2.323553694087491
 30
0.0
 10
10.01795378018704
 20
2.323493885525409
 30
0.0
 10
10.10950798168059
 20
2.321081007037678
 30
0.0
 10
10.15520875570801
 20
2.318738564011914
 30
0.0
 10
10.24651360458416
 20
2.312614461999789
 30
0.0
 10
10.29212191961792
 20
2.308895911532546
 30
0.0
 10
10.42884740351015
 20
2.296259935670465
 30
0.0
 10
10.51984465460763
 20
2.285557722049917
 30
0.0
 10
10.6559583616064
 20
2.263816404433519
 30
0.0
 10
10.70126546434274
 20
2.255614780254267
 30
0.0
 10
10.79172276010384
 20
2.236876176370418
 30
0.0
 10
10.83674646827176
 20
2.2263607982865
 30
0.0
 10
10.9702219719593
 20
2.19127775365889
 30
0.0
 10
11.05729195750665
 20
2.162742571474096
 30
0.0
 10
11.22949993675044
 20
2.100476484740883
 30
0.0
 10
11.31466322379537
 20
2.066813601812876
 30
0.0
 10
11.44194398726799
 20
2.015070988845753
 30
0.0
 10
11.48429387983466
 20
1.997616297535654
 30
0.0
 10
11.56900119705466
 20
1.962727171021072
 30
0.0
 10
11.61135290769465
 20
1.9452773690712
 30
0.0
 10
11.73839937971909
 20
1.892904674089837
 30
0.0
 10
11.82308308412715
 20
1.85795204543625
 30
0.0
 10
11.99242238152985
 20
1.787971187862302
 30
0.0
 10
12.07709760375983
 20
1.752995748013956
 30
0.0
 10
12.24693844921838
 20
1.684363707956488
 30
0.0
 10
12.33207562741527
 20
1.650630610278076
 30
0.0
 10
12.46068698902832
 20
1.602466386377137
 30
0.0
 10
12.50371183506613
 20
1.586826853263861
 30
0.0
 10
12.5901871983295
 20
1.556692548237353
 30
0.0
 10
12.63365270968921
 20
1.542238100178557
 30
0.0
 10
12.72102119274721
 20
1.514505669926113
 30
0.0
 10
12.76493661536742
 20
1.501200651313851
 30
0.0
 10
12.85286540184343
 20
1.475609039473803
 30
0.0
 10
12.89691003335068
 20
1.463312120074813
 30
0.0
 10
13.02923861063928
 20
1.427631814311852
 30
0.0
 10
13.11771313012995
 20
1.405433332055876
 30
0.0
 10
13.2509267634013
 20
1.375255917923053
 30
0.0
 10
13.29541233917595
 20
1.365700597435165
 30
0.0
 10
13.3845747444259
 20
1.347779088456658
 30
0.0
 10
13.42925984283286
 20
1.339464312572443
 30
0.0
 10
13.51901437828443
 20
1.325224410626741
 30
0.0
 10
13.56409377230238
 20
1.31936119267768
 30
0.0
 10
13.65465480040087
 20
1.310135709845589
 30
0.0
 10
13.70014365922092
 20
1.306818365238163
 30
0.0
 10
13.83715285960339
 20
1.300240130021282
 30
0.0
 10
13.92916082818313
 20
1.300011091277354
 30
0.0
 10
14.02167074264972
 20
1.302902932877007
 30
0.0
  0
CIRCLE
  5
BA
330
1F
100
AcDbEntity
  8
0
  6
Continuous
 62
     7
370
    25
100
AcDbCircle
 10
6.033401524
 20
7.0490120745
 30
0.0
 40
0.0520000000000005
  0
CIRCLE
  5
BB
330
1F
100
AcDbEntity
  8
0
  6
Continuous
 62
     7
370
    25
100
AcDbCircle
 10
6.0333728398
 20
7.4930120736
 30
0.0
 40
0.0519999999999996
  0
CIRCLE
  5
BC
330
1F
100
AcDbEntity
  8
0
  6
Continuous
 62
     7
370
    25
100
AcDbCircle
 10
6.0334302082
 20
6.6050120754
 30
0.0
 40
0.0519999999999987
  0
CIRCLE
  5
BD
330
1F
100
AcDbEntity
  8
0
  6
Continuous
 62
     7
370
    25
100
AcDbCircle
 10
6.0334588924
 20
6.1610120764
 30
0.0
 40
0.0519999999999978
  0
CIRCLE
  5
BE
330
1F
100
AcDbEntity
  8
0
  6
Continuous
 62
     7
370
    25
100
AcDbCircle
 10
6.0334875767
 20
5.7170120773
 30
0.0
 40
0.0519999999999987
  0
CIRCLE
  5
BF
330
1F
100
AcDbEntity
  8
0
  6
Continuous
 62
     7
370
    25
100
AcDbCircle
 10
6.0335162609
 20
5.2730120782
 30
0.0
 40
0.0519999999999987
  0
CIRCLE
  5
C0
330
1F
100
AcDbEntity
  8
0
  6
Continuous
 62
     7
370
    25
100
AcDbCircle
 10
2.6322459809
 20
1.637414986
 30
0.0
 40
0.0624999999999996
  0
CIRCLE
  5
C1
330
1F
100
AcDbEntity
  8
0
  6
Continuous
 62
     7
370
    25
100
AcDbCircle
 10
4.306198959
 20
3.8192448206
 30
0.0
 40
0.0624999999999991
  0
CIRCLE
  5
C2
330
1F
100
AcDbEntity
  8
0
  6
Continuous
 62
     7
370
    25
100
AcDbCircle
 10
13.9857511716
 20
8.174864414
 30
0.0
 40
0.0688976377952777
  0
CIRCLE
  5
C3
330
1F
100
AcDbEntity
  8
0
  6
Continuous
 62
     7
370
    25
100
AcDbCircle
 10
10.7652826798
 20
8.1136327363
 30
0.0
 40
0.0688976377952759
  0
CIRCLE
  5
C4
330
1F
100
AcDbEntity
  8
0
  6
Continuous
 62
     7
370
    25
100
AcDbCircle
 10
8.0053826835
 20
9.0032182168
 30
0.0
 40
0.0688976377952741
  0
CIRCLE
  5
C5
330
1F
100
AcDbEntity
  8
0
  6
Continuous
 62
     7
370
    25
100
AcDbCircle
 10
5.9818046425
 20
8.3219851218
 30
0.0
 40
0.0688976377952768
  0
CIRCLE
  5
C6
330
1F
100
AcDbEntity
  8
0
  6
Continuous
 62
     7
370
    25
100
AcDbCircle
 10
5.9387340985
 20
4.6605650087
 30
0.0
 40
0.0688976377952768
  0
CIRCLE
  5
C7
330
1F
100
AcDbEntity
  8
0
  6
Continuous
 62
     7
370
    25
100
AcDbCircle
 10
4.4625914197
 20
1.0187373528
 30
0.0
 40
0.0688976377952768
  0
CIRCLE
  5
C8
330
1F
100
AcDbEntity
  8
0
  6
Continuous
 62
     7
370
    25
100
AcDbCircle
 10
6.6771278226
 20
1.4913213668
 30
0.0
 40
0.068897637795275
  0
CIRCLE
  5
C9
330
1F
100
AcDbEntity
  8
0
  6
Continuous
 62
     7
370
    25
100
AcDbCircle
 10
8.6239202211
 20
2.3890849347
 30
0.0
 40
0.0688976377952759
  0
CIRCLE
  5
CA
330
1F
100
AcDbEntity
  8
0
  6
Continuous
 62
     7
370
    25
100
AcDbCircle
 10
12.3168559818
 20
2.0428668199
 30
0.0
 40
0.0688976377952741
  0
CIRCLE
  5
CB
330
1F
100
AcDbEntity
  8
0
  6
Continuous
 62
     7
370
    25
100
AcDbCircle
 10
14.5885091005
 20
1.8643167499
 30
0.0
 40
0.0688976377952777
  0
CIRCLE
  5
D3
330
1F
100
AcDbEntity
  8
0
  6
Continuous
 62
     7
370
    25
100
AcDbCircle
 10
13.4713960819
 20
7.1334925997
 30
0.0
 40
0.0829999999999984
  0
CIRCLE
  5
D4
330
1F
100
AcDbEntity
  8
0
  6
Continuous
 62
     7
370
    25
100
AcDbCircle
 10
13.4718195405
 20
5.6326722675
 30
0.0
 40
0.0829999999999966
  0
CIRCLE
  5
D5
330
1F
100
AcDbEntity
  8
0
  6
Continuous
 62
     7
370
    25
100
AcDbCircle
 10
15.4714820182
 20
5.6336300341
 30
0.0
 40
0.083000000000002
  0
CIRCLE
  5
D8
330
1F
100
AcDbEntity
  8
0
  6
Continuous
 62
     7
370
    25
100
AcDbCircle
 10
15.4716827951
 20
7.1332247864
 30
0.0
 40
0.083000000000002
  0
SPLINE
  5
DA
330
1F
100
AcDbEntity
  8
0
  6
Continuous
 62
     7
370
    25
100
AcDbSpline
210
0.0
220
0.0
230
1.0
 70
     8
 71
     3
 72
     8
 73
     4
 74
     0
 42
0.000000001
 43
0.00000001
 40
0.0
 40
0.0
 40
0.0
 40
0.0
 40
1.0
 40
1.0
 40
1.0
 40
1.0
 10
15.67231571847189
 20
7.455729329005576
 30
0.0
 10
15.64433435965939
 20
7.454660314484725
 30
0.0
 10
15.61658959643057
 20
7.454984114421944
 30
0.0
 10
15.5892174398469
 20
7.456855349446517
 30
0.0
  0
LINE
  5
DD
330
1F
100
AcDbEntity
  8
0
  6
Continuous
 62
     7
370
    25
100
AcDbLine
 10
0.4201263294
 20
5.5588062402
 30
0.0
 11
6.585530709
 21
11.715851234
 31
0.0
  0
LINE
  5
DE
330
1F
100
AcDbEntity
  8
0
  6
Continuous
 62
     7
370
    25
100
AcDbLine
 10
6.7721264077
 20
12.0988633162
 30
0.0
 11
6.6080596863
 21
11.6932916691
 31
0.0
  0
LINE
  5
DF
330
1F
100
AcDbEntity
  8
0
  6
Continuous
 62
     7
370
    25
100
AcDbLine
 10
0.4426553068
 20
5.5362466754
 30
0.0
 11
0.0052529402
 21
5.5270044008
 31
0.0
  0
LINE
  5
E0
330
1F
100
AcDbEntity
  8
0
  6
Continuous
 62
     7
370
    25
100
AcDbLine
 10
6.585530709
 20
11.715851234
 30
0.0
 11
6.6080596863
 21
11.6932916691
 31
0.0
  0
LINE
  5
E1
330
1F
100
AcDbEntity
  8
0
  6
Continuous
 62
     7
370
    25
100
AcDbLine
 10
6.6080596863
 20
11.6932916691
 30
0.0
 11
0.4426553068
 21
5.5362466754
 31
0.0
  0
LINE
  5
E2
330
1F
100
AcDbEntity
  8
0
  6
Continuous
 62
     7
370
    25
100
AcDbLine
 10
0.4201263294
 20
5.5588062402
 30
0.0
 11
0.4426553068
 21
5.5362466754
 31
0.0
  0
LINE
  5
E3
330
1F
100
AcDbEntity
  8
0
  6
Continuous
 62
     7
370
    25
100
AcDbLine
 10
12.8480722498
 20
7.2659179096
 30
0.0
 11
12.8480722498
 21
5.5093885413
 31
0.0
  0
LINE
  5
E4
330
1F
100
AcDbEntity
  8
0
  6
Continuous
 62
     7
370
    25
100
AcDbLine
 10
5.7664277409
 20
3.0829948186
 30
0.0
 11
4.6379074958
 21
1.7937709992
 31
0.0
  0
LINE
  5
E5
330
1F
100
AcDbEntity
  8
0
  6
Continuous
 62
     7
370
    25
100
AcDbLine
 10
5.3913274187
 20
0.9666533735
 30
0.0
 11
6.3874400749
 21
1.6866037719
 31
0.0
  0
LINE
  5
E6
330
1F
100
AcDbEntity
  8
0
  6
Continuous
 62
     7
370
    25
100
AcDbLine
 10
6.8514779809
 20
1.7973391097
 30
0.0
 11
7.0697327317
 21
1.7627144977
 31
0.0
  0
LINE
  5
E7
330
1F
100
AcDbEntity
  8
0
  6
Continuous
 62
     7
370
    25
100
AcDbLine
 10
7.3480531425
 20
1.8290817646
 30
0.0
 11
8.6625825408
 21
2.7784974854
 31
0.0
  0
LINE
  5
E8
330
1F
100
AcDbEntity
  8
0
  6
Continuous
 62
     7
370
    25
100
AcDbLine
 10
8.7090201387
 20
3.4491434305
 30
0.0
 11
7.2556993579
 21
4.8409126133
 31
0.0
  0
LINE
  5
E9
330
1F
100
AcDbEntity
  8
0
  6
Continuous
 62
     7
370
    25
100
AcDbLine
 10
7.5264471497
 20
4.7448270083
 30
0.0
 11
7.7660373401
 21
6.1041240079
 31
0.0
  0
LINE
  5
EA
330
1F
100
AcDbEntity
  8
0
  6
Continuous
 62
     7
370
    25
100
AcDbLine
 10
7.7660373401
 20
6.1041240079
 30
0.0
 11
8.9218124953
 21
6.1041986757
 31
0.0
  0
LINE
  5
EB
330
1F
100
AcDbEntity
  8
0
  6
Continuous
 62
     7
370
    25
100
AcDbLine
 10
8.9218124953
 20
6.1041986757
 30
0.0
 11
9.2351489967
 21
4.9351130488
 31
0.0
  0
LINE
  5
EC
330
1F
100
AcDbEntity
  8
0
  6
Continuous
 62
     7
370
    25
100
AcDbLine
 10
10.0333013018
 20
5.0402442513
 30
0.0
 11
10.0332326259
 21
6.1032704784
 31
0.0
  0
LINE
  5
ED
330
1F
100
AcDbEntity
  8
0
  6
Continuous
 62
     7
370
    25
100
AcDbLine
 10
10.0332326259
 20
6.1032704784
 30
0.0
 11
11.2508125542
 21
6.103349139
 31
0.0
  0
LINE
  5
EE
330
1F
100
AcDbEntity
  8
0
  6
Continuous
 62
     7
370
    25
100
AcDbLine
 10
11.2508125542
 20
6.103349139
 30
0.0
 11
11.5641422655
 21
4.9342888467
 31
0.0
  0
LINE
  5
EF
330
1F
100
AcDbEntity
  8
0
  6
Continuous
 62
     7
370
    25
100
AcDbLine
 10
12.3623013607
 20
5.0394209435
 30
0.0
 11
12.3621277048
 21
7.7274209377
 31
0.0
  0
LINE
  5
F0
330
1F
100
AcDbEntity
  8
0
  6
Continuous
 62
     7
370
    25
100
AcDbLine
 10
11.5639550332
 20
7.8324499049
 30
0.0
 11
11.2507763768
 21
6.6633491375
 31
0.0
  0
LINE
  5
F1
330
1F
100
AcDbEntity
  8
0
  6
Continuous
 62
     7
370
    25
100
AcDbLine
 10
11.2507763768
 20
6.6633491375
 30
0.0
 11
10.0331964493
 21
6.6632704769
 31
0.0
  0
LINE
  5
F2
330
1F
100
AcDbEntity
  8
0
  6
Continuous
 62
     7
370
    25
100
AcDbLine
 10
10.0331964493
 20
6.6632704769
 30
0.0
 11
10.0331276459
 21
7.7282704746
 31
0.0
  0
LINE
  5
F3
330
1F
100
AcDbEntity
  8
0
  6
Continuous
 62
     7
370
    25
100
AcDbLine
 10
9.2349549735
 20
7.833299442
 30
0.0
 11
8.921776317
 21
6.6641986746
 31
0.0
  0
LINE
  5
F4
330
1F
100
AcDbEntity
  8
0
  6
Continuous
 62
     7
370
    25
100
AcDbLine
 10
8.921776317
 20
6.6641986746
 30
0.0
 11
7.8647442708
 21
6.664130386
 31
0.0
  0
LINE
  5
F5
330
1F
100
AcDbEntity
  8
0
  6
Continuous
 62
     7
370
    25
100
AcDbLine
 10
7.8647442708
 20
6.664130386
 30
0.0
 11
8.0460242356
 21
7.7281158704
 31
0.0
  0
LINE
  5
F6
330
1F
100
AcDbEntity
  8
0
  6
Continuous
 62
     7
370
    25
100
AcDbLine
 10
7.2742998949
 20
7.9044159175
 30
0.0
 11
6.7964103086
 21
6.9130613677
 31
0.0
  0
LINE
  5
F7
330
1F
100
AcDbEntity
  8
0
  6
Continuous
 62
     7
370
    25
100
AcDbLine
 10
6.7964103086
 20
6.9130613677
 30
0.0
 11
6.6464652224
 21
6.0630516789
 31
0.0
  0
LINE
  5
F8
330
1F
100
AcDbEntity
  8
0
  6
Continuous
 62
     7
370
    25
100
AcDbLine
 10
6.6464652224
 20
6.0630516789
 30
0.0
 11
6.719461912
 21
4.8229935068
 31
0.0
  0
LINE
  5
F9
330
1F
100
AcDbEntity
  8
0
  6
Continuous
 62
     7
370
    25
100
AcDbLine
 10
6.6906572543
 20
4.7873026155
 30
0.0
 11
5.7664277409
 21
3.0829948186
 31
0.0
  0
LINE
  5
FA
330
1F
100
AcDbEntity
  8
0
  6
Continuous
 62
     7
370
    25
100
AcDbLine
 10
5.5335414575
 20
4.882979777
 30
0.0
 11
5.5333718717
 21
7.5079797715
 31
0.0
  0
LINE
  5
FB
330
1F
100
AcDbEntity
  8
0
  6
Continuous
 62
     7
370
    25
100
AcDbLine
 10
5.2833557213
 20
7.7579636199
 30
0.0
 11
5.0953557218
 21
7.7579514743
 31
0.0
  0
LINE
  5
FC
330
1F
100
AcDbEntity
  8
0
  6
Continuous
 62
     7
370
    25
100
AcDbLine
 10
4.8453718733
 20
7.5079353238
 30
0.0
 11
4.8455414591
 21
4.8829353294
 31
0.0
  0
LINE
  5
FD
330
1F
100
AcDbEntity
  8
0
  6
Continuous
 62
     7
370
    25
100
AcDbLine
 10
5.0955576096
 20
4.6329514809
 30
0.0
 11
5.2835576091
 21
4.6329636265
 31
0.0
  0
LINE
  5
FE
330
1F
100
AcDbEntity
  8
0
  6
Continuous
 62
     7
370
    25
100
AcDbLine
 10
14.8175136867
 20
7.4673091052
 30
0.0
 11
13.076119809
 21
7.4908972695
 31
0.0
  0
LINE
  5
FF
330
1F
100
AcDbEntity
  8
0
  6
Continuous
 62
     7
370
    25
100
AcDbLine
 10
13.892005988
 20
5.2954611349
 30
0.0
 11
13.8205546978
 21
5.2748860917
 31
0.0
  0
LINE
  5
100
330
1F
100
AcDbEntity
  8
0
  6
Continuous
 62
     7
370
    25
100
AcDbLine
 10
13.8147683496
 20
5.2944148777
 30
0.0
 11
15.6794352523
 21
5.3196735627
 31
0.0
  0
LINE
  5
101
330
1F
100
AcDbEntity
  8
0
  6
Continuous
 62
     7
370
    25
100
AcDbLine
 10
15.8422003755
 20
5.4846584267
 30
0.0
 11
15.8422003755
 21
7.2906480242
 31
0.0
  0
LINE
  5
102
330
1F
100
AcDbEntity
  8
0
  6
Continuous
 62
     7
370
    25
100
AcDbLine
 10
15.6794352523
 20
7.4556328882
 30
0.0
 11
15.6723157189
 21
7.4557293586
 31
0.0
  0
ARC
  5
103
330
1F
100
AcDbEntity
  8
0
  6
Continuous
 62
     7
370
    25
100
AcDbCircle
 10
0.3612955064
 20
3.6042557728
 30
0.0
 40
1.955435653655383
100
AcDbArc
 50
88.2759511532
 51
100.4908433295
  0
ARC
  5
104
330
1F
100
AcDbEntity
  8
0
  6
Continuous
 62
     7
370
    25
100
AcDbCircle
 10
13.0730722498
 20
7.2659179096
 30
0.0
 40
0.2250000000000398
100
AcDbArc
 50
89.2239216892
 51
180.0
  0
ARC
  5
105
330
1F
100
AcDbEntity
  8
0
  6
Continuous
 62
     7
370
    25
100
AcDbCircle
 10
5.0615349852
 20
1.4229492762
 30
0.0
 40
0.5629999999999978
100
AcDbArc
 50
138.8027649835
 51
305.8578982842
  0
ARC
  5
106
330
1F
100
AcDbEntity
  8
0
  6
Continuous
 62
     7
370
    25
100
AcDbCircle
 10
6.7535506804
 20
1.1800585869
 30
0.0
 40
0.6249999999998489
100
AcDbArc
 50
80.9855427156
 51
125.8578982842
  0
ARC
  5
107
330
1F
100
AcDbEntity
  8
0
  6
Continuous
 62
     7
370
    25
100
AcDbCircle
 10
7.1284891119
 20
2.1330828114
 30
0.0
 40
0.3749999999999135
100
AcDbArc
 50
260.9855427156
 51
305.838609047
  0
ARC
  5
108
330
1F
100
AcDbEntity
  8
0
  6
Continuous
 62
     7
370
    25
100
AcDbCircle
 10
8.4064245052
 20
3.1331653734
 30
0.0
 40
0.4375000000000538
100
AcDbArc
 50
305.838609047
 51
46.2393621221
  0
ARC
  5
109
330
1F
100
AcDbEntity
  8
0
  6
Continuous
 62
     7
370
    25
100
AcDbCircle
 10
7.1266140496
 20
4.8153017379
 30
0.0
 40
0.4059965460882755
100
AcDbArc
 50
331.6340494196
 51
350.0037015424
  0
ARC
  5
10A
330
1F
100
AcDbEntity
  8
0
  6
Continuous
 62
     7
370
    25
100
AcDbCircle
 10
9.6273047565
 20
5.0402180223
 30
0.0
 40
0.4059965460831395
100
AcDbArc
 50
195.0037015439
 51
0.0037015406
  0
ARC
  5
10B
330
1F
100
AcDbEntity
  8
0
  6
Continuous
 62
     7
370
    25
100
AcDbCircle
 10
11.9563013615
 20
5.0393947143
 30
0.0
 40
0.4060000000000104
100
AcDbArc
 50
195.0037015424
 51
0.0037015424
  0
ARC
  5
10C
330
1F
100
AcDbEntity
  8
0
  6
Continuous
 62
     7
370
    25
100
AcDbCircle
 10
11.9561277061
 20
7.7273947084
 30
0.0
 40
0.4059999995690645
100
AcDbArc
 50
0.0037015424
 51
165.0037015424
  0
ARC
  5
10D
330
1F
100
AcDbEntity
  8
0
  6
Continuous
 62
     7
370
    25
100
AcDbCircle
 10
9.6271276468
 20
7.7282442454
 30
0.0
 40
0.4059999999999961
100
AcDbArc
 50
0.0037015424
 51
165.0037015424
  0
ARC
  5
10E
330
1F
100
AcDbEntity
  8
0
  6
Continuous
 62
     7
370
    25
100
AcDbCircle
 10
7.6400242356
 20
7.7281158704
 30
0.0
 40
0.4060000000000072
100
AcDbArc
 50
0.0
 51
154.2632744533
  0
ARC
  5
10F
330
1F
100
AcDbEntity
  8
0
  6
Continuous
 62
     7
370
    25
100
AcDbCircle
 10
6.996331672
 20
4.5700742786
 30
0.0
 40
0.3750000000003745
100
AcDbArc
 50
46.2393621221
 51
144.6003941292
  0
ARC
  5
110
330
1F
100
AcDbEntity
  8
0
  6
Continuous
 62
     7
370
    25
100
AcDbCircle
 10
1.5349274642
 20
4.3597032123
 30
0.0
 40
3.000000000000104
100
AcDbArc
 50
300.1026098351
 51
338.1533572046
  0
ARC
  5
111
330
1F
100
AcDbEntity
  8
0
  6
Continuous
 62
     7
370
    25
100
AcDbCircle
 10
3.9714083634
 20
3.3828788537
 30
0.0
 40
0.3749999999999833
100
AcDbArc
 50
338.1533572046
 51
126.8540458801
  0
ARC
  5
112
330
1F
100
AcDbEntity
  8
0
  6
Continuous
 62
     7
370
    25
100
AcDbCircle
 10
5.5458273056
 20
1.2824431859
 30
0.0
 40
3.000000000000401
100
AcDbArc
 50
126.8540458801
 51
164.9047932496
  0
ARC
  5
113
330
1F
100
AcDbEntity
  8
0
  6
Continuous
 62
     7
370
    25
100
AcDbCircle
 10
2.9061655592
 20
1.9944416862
 30
0.0
 40
0.2660000000000394
100
AcDbArc
 50
164.9047932496
 51
300.1026098351
  0
ARC
  5
114
330
1F
100
AcDbEntity
  8
0
  6
Continuous
 62
     7
370
    25
100
AcDbCircle
 10
5.283541458
 20
4.882963626
 30
0.0
 40
0.2499999999999997
100
AcDbArc
 50
270.0037015424
 51
0.0037015424
  0
ARC
  5
115
330
1F
100
AcDbEntity
  8
0
  6
Continuous
 62
     7
370
    25
100
AcDbCircle
 10
5.2833718723
 20
7.5079636205
 30
0.0
 40
0.2499999999440222
100
AcDbArc
 50
0.0037015423
 51
90.0037015424
  0
ARC
  5
116
330
1F
100
AcDbEntity
  8
0
  6
Continuous
 62
     7
370
    25
100
AcDbCircle
 10
5.0953718728
 20
7.5079514749
 30
0.0
 40
0.2500000000000006
100
AcDbArc
 50
90.0037015424
 51
180.0037015424
  0
ARC
  5
117
330
1F
100
AcDbEntity
  8
0
  6
Continuous
 62
     7
370
    25
100
AcDbCircle
 10
5.0955414586
 20
4.8829514804
 30
0.0
 40
0.2499999999999979
100
AcDbArc
 50
180.0037015424
 51
270.0037015424
  0
ARC
  5
118
330
1F
100
AcDbEntity
  8
0
  6
Continuous
 62
     7
370
    25
100
AcDbCircle
 10
12.7457981888
 20
5.0094299706
 30
0.0
 40
0.068897637795336
100
AcDbArc
 50
53.9856953852
 51
248.5508045614
  0
ARC
  5
119
330
1F
100
AcDbEntity
  8
0
  6
Continuous
 62
     7
370
    25
100
AcDbCircle
 10
13.0730722498
 20
5.5093885413
 30
0.0
 40
0.2249999999999392
100
AcDbArc
 50
180.0
 51
245.5448686302
  0
ARC
  5
11A
330
1F
100
AcDbEntity
  8
0
  6
Continuous
 62
     7
370
    25
100
AcDbCircle
 10
15.6772003755
 20
5.4846584267
 30
0.0
 40
0.1649999999999885
100
AcDbArc
 50
270.7760783108
 51
0.0
  0
ARC
  5
11B
330
1F
100
AcDbEntity
  8
0
  6
Continuous
 62
     7
370
    25
100
AcDbCircle
 10
15.6772003755
 20
7.2906480242
 30
0.0
 40
0.1650000000000045
100
AcDbArc
 50
0.0
 51
89.2239216892
  0
MTEXT
  5
11D
330
1F
100
AcDbEntity
  8
0
  6
Continuous
 62
     7
100
AcDbMText
 10
0.0002220232
 20
-0.0341248309
 30
0.0
 40
0.1903
 41
0.0
 71
     1
 72
     1
  1
SOLIDWORKS Educational Product.
  7
SLDTEXTSTYLE0
 73
     1
 44
1.0
  0
MTEXT
  5
11E
330
1F
100
AcDbEntity
  8
0
  6
Continuous
 62
     7
100
AcDbMText
 10
0.0002220232
 20
-0.3195748309
 30
0.0
 40
0.1903
 41
0.0
 71
     1
 72
     1
  1
For Instructional Use Only.
  7
SLDTEXTSTYLE0
 73
     1
 44
1.0
  0
ENDSEC
  0
SECTION
  2
OBJECTS
  0
DICTIONARY
  5
C
330
0
100
AcDbDictionary
281
     1
  3
ACAD_GROUP
350
D
  3
ACAD_LAYOUT
350
1A
  3
ACAD_MLINESTYLE
350
17
  3
ACAD_PLOTSETTINGS
350
19
  3
ACAD_PLOTSTYLENAME
350
E
  3
ACAD_SCALELIST
350
47
  0
DICTIONARY
  5
D
102
{ACAD_REACTORS
330
C
102
}
330
C
100
AcDbDictionary
281
     1
  0
DICTIONARY
  5
1A
102
{ACAD_REACTORS
330
C
102
}
330
C
100
AcDbDictionary
281
     1
  3
Layout1
350
1E
  3
Layout2
350
26
  3
Model
350
22
  0
DICTIONARY
  5
17
102
{ACAD_REACTORS
330
C
102
}
330
C
100
AcDbDictionary
281
     1
  3
Standard
350
18
  0
DICTIONARY
  5
19
102
{ACAD_REACTORS
330
C
102
}
330
C
100
AcDbDictionary
281
     1
  0
ACDBDICTIONARYWDFLT
  5
E
102
{ACAD_REACTORS
330
C
102
}
330
C
100
AcDbDictionary
281
     1
  3
Normal
350
F
100
AcDbDictionaryWithDefault
340
F
  0
DICTIONARY
  5
47
102
{ACAD_REACTORS
330
C
102
}
330
C
100
AcDbDictionary
281
     1
  3
A0
350
48
  3
A1
350
49
  3
A2
350
4A
  3
A3
350
4B
  3
A4
350
4C
  3
A5
350
4D
  3
A6
350
4E
  3
A7
350
4F
  3
A8
350
50
  3
A9
350
51
  3
B0
350
52
  3
B1
350
53
  3
B2
350
54
  3
B3
350
55
  3
B4
350
56
  3
B5
350
57
  3
B6
350
58
  3
B7
350
59
  3
B8
350
5A
  3
B9
350
5B
  3
C0
350
5C
  3
C1
350
5D
  3
C2
350
5E
  3
C3
350
5F
  3
C4
350
60
  3
C5
350
61
  3
C6
350
62
  3
C7
350
63
  3
C8
350
64
  3
C9
350
65
  3
D0
350
66
  3
D1
350
67
  3
D2
350
68
  0
LAYOUT
  5
1E
102
{ACAD_REACTORS
330
1A
102
}
330
1A
100
AcDbPlotSettings
  1

  2
none_device
  4

  6

 40
0.0
 41
0.0
 42
0.0
 43
0.0
 44
0.0
 45
0.0
 46
0.0
 47
0.0
 48
0.0
 49
0.0
140
0.0
141
0.0
142
1.0
143
1.0
 70
   688
 72
     0
 73
     0
 74
     5
  7

 75
    16
147
1.0
148
0.0
149
0.0
100
AcDbLayout
  1
Layout1
 70
     1
 71
     1
 10
0.0
 20
0.0
 11
12.0
 21
9.0
 12
0.0
 22
0.0
 32
0.0
 14
1.0000000000E+20
 24
1.0000000000E+20
 34
1.0000000000E+20
 15
-1.0000000000E+20
 25
-1.0000000000E+20
 35
-1.0000000000E+20
146
0.0
 13
0.0
 23
0.0
 33
0.0
 16
1.0
 26
0.0
 36
0.0
 17
0.0
 27
1.0
 37
0.0
 76
     0
330
1B
  0
LAYOUT
  5
26
102
{ACAD_REACTORS
330
1A
102
}
330
1A
100
AcDbPlotSettings
  1

  2
none_device
  4

  6

 40
0.0
 41
0.0
 42
0.0
 43
0.0
 44
0.0
 45
0.0
 46
0.0
 47
0.0
 48
0.0
 49
0.0
140
0.0
141
0.0
142
1.0
143
1.0
 70
   688
 72
     0
 73
     0
 74
     5
  7

 75
    16
147
1.0
148
0.0
149
0.0
100
AcDbLayout
  1
Layout2
 70
     1
 71
     2
 10
0.0
 20
0.0
 11
0.0
 21
0.0
 12
0.0
 22
0.0
 32
0.0
 14
0.0
 24
0.0
 34
0.0
 15
0.0
 25
0.0
 35
0.0
146
0.0
 13
0.0
 23
0.0
 33
0.0
 16
1.0
 26
0.0
 36
0.0
 17
0.0
 27
1.0
 37
0.0
 76
     0
330
23
  0
LAYOUT
  5
22
102
{ACAD_REACTORS
330
1A
102
}
330
1A
100
AcDbPlotSettings
  1

  2
none_device
  4
ANSI_A_(11.00_x_8.50_Inches)
  6

 40
6.35
 41
19.05
 42
6.35000508
 43
19.05000254
 44
279.4
 45
215.9
 46
-0.2716541516
 47
-18.0712776395
 48
0.0
 49
0.0
140
0.0
141
0.0
142
0.6595498274
143
1.0
 70
  1696
 72
     0
 73
     0
 74
     0
  7

 75
     0
147
0.5913241897
148
-39.4088153714
149
0.0
100
AcDbLayout
  1
Model
 70
     1
 71
     0
 10
0.0
 20
0.0
 11
12.0
 21
9.0
 12
0.0
 22
0.0
 32
0.0
 14
0.0002220232
 24
0.0060155783
 34
0.0
 15
15.9521586058
 25
12.7647180299
 35
0.0
146
0.0
 13
0.0
 23
0.0
 33
0.0
 16
1.0
 26
0.0
 36
0.0
 17
0.0
 27
1.0
 37
0.0
 76
     0
330
1F
331
29
  0
MLINESTYLE
  5
18
102
{ACAD_REACTORS
330
17
102
}
330
17
100
AcDbMlineStyle
  2
Standard
 70
     0
  3

 62
   256
 51
90.0
 52
90.0
 71
     2
 49
0.5
 62
   256
  6
BYLAYER
 49
-0.5
 62
   256
  6
BYLAYER
  0
ACDBPLACEHOLDER
  5
F
102
{ACAD_REACTORS
330
E
102
}
330
E
  0
SCALE
  5
48
102
{ACAD_REACTORS
330
47
102
}
330
47
100
AcDbScale
 70
     0
300
1:1
140
1.0
141
1.0
290
     1
  0
SCALE
  5
49
102
{ACAD_REACTORS
330
47
102
}
330
47
100
AcDbScale
 70
     0
300
1:2
140
1.0
141
2.0
290
     0
  0
SCALE
  5
4A
102
{ACAD_REACTORS
330
47
102
}
330
47
100
AcDbScale
 70
     0
300
1:4
140
1.0
141
4.0
290
     0
  0
SCALE
  5
4B
102
{ACAD_REACTORS
330
47
102
}
330
47
100
AcDbScale
 70
     0
300
1:5
140
1.0
141
5.0
290
     0
  0
SCALE
  5
4C
102
{ACAD_REACTORS
330
47
102
}
330
47
100
AcDbScale
 70
     0
300
1:8
140
1.0
141
8.0
290
     0
  0
SCALE
  5
4D
102
{ACAD_REACTORS
330
47
102
}
330
47
100
AcDbScale
 70
     0
300
1:10
140
1.0
141
10.0
290
     0
  0
SCALE
  5
4E
102
{ACAD_REACTORS
330
47
102
}
330
47
100
AcDbScale
 70
     0
300
1:16
140
1.0
141
16.0
290
     0
  0
SCALE
  5
4F
102
{ACAD_REACTORS
330
47
102
}
330
47
100
AcDbScale
 70
     0
300
1:20
140
1.0
141
20.0
290
     0
  0
SCALE
  5
50
102
{ACAD_REACTORS
330
47
102
}
330
47
100
AcDbScale
 70
     0
300
1:30
140
1.0
141
30.0
290
     0
  0
SCALE
  5
51
102
{ACAD_REACTORS
330
47
102
}
330
47
100
AcDbScale
 70
     0
300
1:40
140
1.0
141
40.0
290
     0
  0
SCALE
  5
52
102
{ACAD_REACTORS
330
47
102
}
330
47
100
AcDbScale
 70
     0
300
1:50
140
1.0
141
50.0
290
     0
  0
SCALE
  5
53
102
{ACAD_REACTORS
330
47
102
}
330
47
100
AcDbScale
 70
     0
300
1:100
140
1.0
141
100.0
290
     0
  0
SCALE
  5
54
102
{ACAD_REACTORS
330
47
102
}
330
47
100
AcDbScale
 70
     0
300
2:1
140
2.0
141
1.0
290
     0
  0
SCALE
  5
55
102
{ACAD_REACTORS
330
47
102
}
330
47
100
AcDbScale
 70
     0
300
4:1
140
4.0
141
1.0
290
     0
  0
SCALE
  5
56
102
{ACAD_REACTORS
330
47
102
}
330
47
100
AcDbScale
 70
     0
300
8:1
140
8.0
141
1.0
290
     0
  0
SCALE
  5
57
102
{ACAD_REACTORS
330
47
102
}
330
47
100
AcDbScale
 70
     0
300
10:1
140
10.0
141
1.0
290
     0
  0
SCALE
  5
58
102
{ACAD_REACTORS
330
47
102
}
330
47
100
AcDbScale
 70
     0
300
100:1
140
100.0
141
1.0
290
     0
  0
SCALE
  5
59
102
{ACAD_REACTORS
330
47
102
}
330
47
100
AcDbScale
 70
     0
300
1/128" = 1'-0"
140
0.0078125
141
12.0
290
     0
  0
SCALE
  5
5A
102
{ACAD_REACTORS
330
47
102
}
330
47
100
AcDbScale
 70
     0
300
1/64" = 1'-0"
140
0.015625
141
12.0
290
     0
  0
SCALE
  5
5B
102
{ACAD_REACTORS
330
47
102
}
330
47
100
AcDbScale
 70
     0
300
1/32" = 1'-0"
140
0.03125
141
12.0
290
     0
  0
SCALE
  5
5C
102
{ACAD_REACTORS
330
47
102
}
330
47
100
AcDbScale
 70
     0
300
1/16" = 1'-0"
140
0.0625
141
12.0
290
     0
  0
SCALE
  5
5D
102
{ACAD_REACTORS
330
47
102
}
330
47
100
AcDbScale
 70
     0
300
3/32" = 1'-0"
140
0.09375
141
12.0
290
     0
  0
SCALE
  5
5E
102
{ACAD_REACTORS
330
47
102
}
330
47
100
AcDbScale
 70
     0
300
1/8" = 1'-0"
140
0.125
141
12.0
290
     0
  0
SCALE
  5
5F
102
{ACAD_REACTORS
330
47
102
}
330
47
100
AcDbScale
 70
     0
300
3/16" = 1'-0"
140
0.1875
141
12.0
290
     0
  0
SCALE
  5
60
102
{ACAD_REACTORS
330
47
102
}
330
47
100
AcDbScale
 70
     0
300
1/4" = 1'-0"
140
0.25
141
12.0
290
     0
  0
SCALE
  5
61
102
{ACAD_REACTORS
330
47
102
}
330
47
100
AcDbScale
 70
     0
300
3/8" = 1'-0"
140
0.375
141
12.0
290
     0
  0
SCALE
  5
62
102
{ACAD_REACTORS
330
47
102
}
330
47
100
AcDbScale
 70
     0
300
1/2" = 1'-0"
140
0.5
141
12.0
290
     0
  0
SCALE
  5
63
102
{ACAD_REACTORS
330
47
102
}
330
47
100
AcDbScale
 70
     0
300
3/4" = 1'-0"
140
0.75
141
12.0
290
     0
  0
SCALE
  5
64
102
{ACAD_REACTORS
330
47
102
}
330
47
100
AcDbScale
 70
     0
300
1" = 1'-0"
140
1.0
141
12.0
290
     0
  0
SCALE
  5
65
102
{ACAD_REACTORS
330
47
102
}
330
47
100
AcDbScale
 70
     0
300
1-1/2" = 1'-0"
140
1.5
141
12.0
290
     0
  0
SCALE
  5
66
102
{ACAD_REACTORS
330
47
102
}
330
47
100
AcDbScale
 70
     0
300
3" = 1'-0"
140
3.0
141
12.0
290
     0
  0
SCALE
  5
67
102
{ACAD_REACTORS
330
47
102
}
330
47
100
AcDbScale
 70
     0
300
6" = 1'-0"
140
6.0
141
12.0
290
     0
  0
SCALE
  5
68
102
{ACAD_REACTORS
330
47
102
}
330
47
100
AcDbScale
 70
     0
300
1'-0" = 1'-0"
140
12.0
141
12.0
290
     0
  0
ENDSEC
  0
EOF
